<svg width="385" height="385" viewBox="0 0 385 385" fill="none" xmlns="http://www.w3.org/2000/svg">
<path d="M348.765 125.903C348.765 125.903 294.141 32.1322 217.865 16.5628C150.49 2.81826 84.7625 30.3073 70.3712 99.8922C65.243 124.678 57.466 151.936 45.7312 173.997C32.5873 198.729 11.9359 218.557 22.5234 268.969C33.1109 319.381 90.8609 368.738 135.428 372.149C179.996 375.56 225.08 338.438 262.54 304.389C300.001 270.339 412.721 244.46 348.765 125.903Z" fill="#B5E8A8"/>
<path opacity="0.7" d="M348.765 125.903C348.765 125.903 294.141 32.1322 217.865 16.5628C150.49 2.81826 84.7625 30.3073 70.3712 99.8922C65.243 124.678 57.466 151.936 45.7312 173.997C32.5873 198.729 11.9359 218.557 22.5234 268.969C33.1109 319.381 90.8609 368.738 135.428 372.149C179.996 375.56 225.08 338.438 262.54 304.389C300.001 270.339 412.721 244.46 348.765 125.903Z" fill="white"/>
<path d="M170.943 55.2706C170.943 55.2706 146.427 74.0432 143.94 83.4218C141.452 92.8004 144.894 109.278 143.94 112.536C142.985 115.793 127.662 124.979 127.469 138.192C127.277 151.405 133.213 164.434 180.9 170.17C228.586 175.907 246.773 148.91 246.773 134.357C246.773 119.804 234.522 110.611 232.413 103.719C230.303 96.8275 239.119 84.3766 226.476 69.069C213.832 53.7614 180.9 38.9928 170.943 55.2706Z" fill="#263238" stroke="#263238" stroke-linejoin="round"/>
<path d="M277.309 225.348C277.309 225.348 281.736 263.378 282.66 273.527C283.584 283.676 281.182 289.589 273.982 293.285C266.783 296.981 262.91 299.376 255.502 291.807C248.095 284.238 253.285 269.654 252.915 263.925C252.546 258.196 247.379 236.205 247.379 236.205L277.309 225.348Z" fill="white" stroke="#263238" stroke-linejoin="round"/>
<path d="M278.179 236.013L250.167 245.361L247.402 236.236L277.309 225.341L278.179 236.013Z" fill="#263238" stroke="#263238" stroke-linejoin="round"/>
<path d="M260.324 261.715C260.324 261.715 273.245 258.389 279.336 270.393L260.324 261.715Z" fill="white"/>
<path d="M260.324 261.715C260.324 261.715 273.245 258.389 279.336 270.393" stroke="#263238" stroke-linejoin="round"/>
<path d="M233.958 274.444L241.381 231.116L277.371 221.221C277.371 221.221 276.069 191.53 268.277 179.949C260.485 168.368 240.264 161.839 227.467 157.727C214.67 153.615 202.604 151.19 202.604 151.19C202.604 151.19 179.596 148.017 169.394 153.623C169.394 153.623 134.513 168.93 128.391 171.918C122.27 174.906 115.409 178.271 112.806 192.646C110.204 207.022 108.91 219.912 108.91 219.912L132.842 231.863L140.08 274.444L138.54 286.494L111.767 339.955H262.887L235.706 285.67L233.958 274.444Z" fill="#F0F0F0" stroke="#263238" stroke-linejoin="round"/>
<path d="M195.158 219.196C195.975 219.196 196.636 218.534 196.636 217.718C196.636 216.901 195.975 216.239 195.158 216.239C194.342 216.239 193.68 216.901 193.68 217.718C193.68 218.534 194.342 219.196 195.158 219.196Z" stroke="#263238" stroke-linejoin="round"/>
<path d="M195.158 241.819C195.975 241.819 196.636 241.157 196.636 240.34C196.636 239.524 195.975 238.862 195.158 238.862C194.342 238.862 193.68 239.524 193.68 240.34C193.68 241.157 194.342 241.819 195.158 241.819Z" stroke="#263238" stroke-linejoin="round"/>
<path d="M195.158 264.433C195.975 264.433 196.636 263.771 196.636 262.955C196.636 262.138 195.975 261.477 195.158 261.477C194.342 261.477 193.68 262.138 193.68 262.955C193.68 263.771 194.342 264.433 195.158 264.433Z" stroke="#263238" stroke-linejoin="round"/>
<path d="M196.636 285.57C196.636 285.863 196.55 286.148 196.387 286.392C196.225 286.635 195.994 286.824 195.724 286.936C195.454 287.048 195.156 287.077 194.87 287.02C194.583 286.963 194.319 286.822 194.113 286.616C193.906 286.409 193.765 286.145 193.708 285.859C193.651 285.572 193.68 285.275 193.792 285.004C193.904 284.734 194.094 284.503 194.337 284.341C194.58 284.179 194.866 284.092 195.158 284.092C195.55 284.092 195.926 284.248 196.203 284.525C196.481 284.802 196.636 285.178 196.636 285.57Z" stroke="#263238" stroke-linejoin="round"/>
<path d="M195.158 309.663C195.975 309.663 196.636 309.001 196.636 308.185C196.636 307.368 195.975 306.707 195.158 306.707C194.342 306.707 193.68 307.368 193.68 308.185C193.68 309.001 194.342 309.663 195.158 309.663Z" stroke="#263238" stroke-linejoin="round"/>
<path d="M196.636 330.807C196.636 331.1 196.55 331.386 196.387 331.629C196.225 331.872 195.994 332.061 195.724 332.173C195.454 332.285 195.156 332.315 194.87 332.257C194.583 332.2 194.319 332.06 194.113 331.853C193.906 331.646 193.765 331.383 193.708 331.096C193.651 330.809 193.68 330.512 193.792 330.242C193.904 329.972 194.094 329.741 194.337 329.578C194.58 329.416 194.866 329.329 195.158 329.329C195.55 329.329 195.926 329.485 196.203 329.762C196.481 330.039 196.636 330.415 196.636 330.807Z" stroke="#263238" stroke-linejoin="round"/>
<path d="M189.785 209.271V323.076" stroke="#263238" stroke-linejoin="round"/>
<path d="M241.804 216.701L239.855 228.128L247.009 215.954" stroke="#263238" stroke-linejoin="round"/>
<path d="M135.229 216.701L137.177 228.128L130.023 215.954" stroke="#263238" stroke-linejoin="round"/>
<path d="M158.173 186.856C158.173 186.856 153.438 194.633 155.809 193.955C158.181 193.278 171.363 184.492 171.363 184.492C171.363 184.492 166.289 192.269 170.347 194.972C174.405 197.675 190.96 205.521 190.96 205.521C190.96 205.521 210.587 197.682 210.926 194.633C211.265 191.584 210.248 190.236 210.248 188.55C210.248 186.864 208.216 184.831 212.281 186.178C216.347 187.526 231.215 195.649 230.199 193.624C229.183 191.599 212.72 158.974 210.472 157.866C208.223 156.757 177.785 155.74 172.372 158.79C166.959 161.839 158.173 186.856 158.173 186.856Z" fill="#263238" stroke="#263238" stroke-linejoin="round"/>
<path d="M104.314 210.164L101.472 223.947L135.129 240.487L138.409 228.767L104.314 210.164Z" fill="#ABABAB" stroke="#263238" stroke-linejoin="round"/>
<path d="M239.855 228.128L243.005 240.271L282.898 228.32L277.516 213.937L239.855 228.128Z" fill="#ABABAB" stroke="#263238" stroke-linejoin="round"/>
<path d="M171.959 144.128C171.959 144.128 163.335 154.585 162.411 156.256C161.487 157.927 154.641 185.139 151.854 190.521C149.066 195.903 153.34 194.225 156.304 190.891C159.269 187.556 171.704 180.111 171.335 182.351C170.965 184.592 167.623 189.959 169.664 191.075C171.704 192.192 188.406 206.106 189.884 206.106C191.363 206.106 212.522 192.561 213.261 190.706C214.001 188.85 209.18 181.466 211.598 181.797C214.016 182.128 231.618 198.313 233.674 197.012C235.73 195.711 224.396 169.369 219.044 157.496C217.4 153.656 214.76 150.324 211.397 147.846C208.035 145.367 204.072 143.831 199.917 143.397C196.922 143.22 171.959 144.128 171.959 144.128Z" fill="#ABABAB" stroke="#263238" stroke-linejoin="round"/>
<path d="M172.482 140.055C172.482 140.055 169.141 155.086 169.141 159.167C169.141 163.248 187.482 210.895 191.001 205.521C194.52 200.146 210.513 160.861 210.513 157.866C210.513 154.87 209.027 138.939 209.027 138.939C209.027 138.939 196.044 147.663 190.477 148.217C184.91 148.772 172.482 140.055 172.482 140.055Z" fill="white" stroke="#263238" stroke-linejoin="round"/>
<path d="M171.481 142.273C171.481 142.273 166.322 162.47 171.805 164.01C177.287 165.55 208.611 144.229 208.611 144.229L171.481 142.273Z" fill="#263238" stroke="#263238" stroke-linejoin="round"/>
<path d="M176.333 77.6777C175.213 83.9658 173.282 90.0819 170.589 95.8728C166.377 104.489 157.945 111.381 157.945 111.381C157.945 111.381 156.605 115.593 158.33 118.311C159.377 119.937 160.828 121.264 162.542 122.161C162.542 122.161 166.946 135.374 168.702 138.631C170.458 141.888 182.878 154.524 186.127 155.864C189.377 157.203 195.706 157.019 198.386 155.486C201.065 153.954 211.152 142.219 212.523 138.77C213.893 135.32 217.143 121.344 217.143 121.344C217.143 121.344 219.638 120.574 221.17 116.724C222.144 114.077 222.725 111.301 222.895 108.485C222.895 108.485 217.72 107.531 209.866 105.405C202.012 103.28 200.488 101.964 200.488 101.964C200.488 101.964 194.166 102.156 186.312 96.4041C178.458 90.6522 176.333 77.6777 176.333 77.6777Z" fill="white" stroke="#263238" stroke-linejoin="round"/>
<path d="M183.77 80.7422C183.77 80.7422 184.54 91.0833 189.514 95.1027C194.488 99.1221 197.56 98.3598 197.56 98.3598C197.56 98.3598 187.789 89.7435 183.77 80.7422Z" fill="white" stroke="#263238" stroke-linejoin="round"/>
<path d="M172.48 116.748C174.152 117.646 176.015 118.132 177.913 118.166C179.81 118.199 181.689 117.779 183.391 116.94" stroke="#263238" stroke-width="2" stroke-linejoin="round"/>
<path d="M197.754 116.748C199.426 117.646 201.288 118.132 203.186 118.166C205.084 118.199 206.962 117.779 208.665 116.94" stroke="#263238" stroke-width="2" stroke-linejoin="round"/>
<path d="M183.386 108.131C183.386 108.131 177.642 105.251 171.32 110.441" stroke="#263238" stroke-linejoin="round"/>
<path d="M197.938 108.131C197.938 108.131 203.682 105.251 210.003 110.441" stroke="#263238" stroke-linejoin="round"/>
<path d="M186.066 132.255C186.066 132.255 187.791 134.565 190.094 134.75C192.396 134.935 194.714 134.365 195.838 132.833" stroke="#263238" stroke-linejoin="round"/>
<path d="M182.238 139.155C182.238 139.155 186.858 142.235 191.24 141.834C195.621 141.434 199.856 138.385 199.856 138.385" stroke="#263238" stroke-linejoin="round"/>
<path d="M265.489 266.882C265.489 266.882 261.431 260.422 259.583 258.019C257.735 255.617 253.677 254.516 248.503 248.972C243.328 243.428 241.303 248.787 242.966 252.483C244.629 256.179 249.057 259.128 251.09 260.422C253.123 261.715 254.786 265.219 254.786 266.882C254.786 268.545 253.677 272.418 253.677 272.418C251.966 270.249 250.141 268.173 248.21 266.197C243.705 261.346 240.387 257.465 239.463 261.531C238.539 265.596 240.233 267.621 243.313 270.393C246.393 273.165 249.773 276.669 250.143 277.408C250.512 278.147 251.621 283.868 253.284 284.977C254.947 286.086 256.973 286.817 256.973 287.741C256.973 288.665 255.502 291.992 259.005 296.05C262.509 300.108 266.759 299.561 269.015 293.647C271.271 287.734 271.04 277.038 268.831 271.864C266.621 266.69 265.489 266.882 265.489 266.882Z" fill="white" stroke="#263238" stroke-linejoin="round"/>
<path d="M263.826 265.219C263.826 265.219 259.029 270.024 253.678 272.419C248.326 274.813 244.815 275.93 244.438 277.963C244.06 279.995 244.622 281.813 248.865 281.466C253.108 281.12 266.036 276.076 268.254 273.343C270.471 270.609 269.185 262.27 263.826 265.219Z" fill="white" stroke="#263238" stroke-linejoin="round"/>
<path d="M270.34 283.067C270.34 283.067 271.21 285.162 267.337 288.665C263.464 292.169 255.887 296.05 252.754 296.789C249.62 297.528 247.032 296.019 249.058 294.017C251.083 292.015 256.996 287.741 256.996 287.741C261.587 286.627 266.057 285.061 270.34 283.067Z" fill="white" stroke="#263238" stroke-linejoin="round"/>
<path d="M268.261 273.35C268.261 273.35 271.395 272.056 272.319 278.517C273.243 284.977 260.137 288.303 254.97 288.673C249.804 289.043 246.293 287.01 247.032 285.354C247.771 283.699 248.502 283.506 254.786 280.919C261.069 278.332 268.261 273.35 268.261 273.35Z" fill="white" stroke="#263238" stroke-linejoin="round"/>
<path d="M106.716 214.06C106.716 214.06 98.1845 217.209 100.964 225.371C103.744 233.533 104.86 235.766 105.792 240.771C106.724 245.776 103.382 249.495 100.225 267.86C97.068 286.224 108.017 290.121 113.585 293.462C119.152 296.804 127.498 278.062 128.422 272.495C129.346 266.928 122.671 250.419 121.377 241.518C120.083 232.617 118.22 227.597 122.486 221.498C126.752 215.4 119.706 213.336 117.481 212.043C115.255 210.749 106.716 214.06 106.716 214.06Z" fill="white" stroke="#263238" stroke-linejoin="round"/>
<path d="M112.098 240.056C118.219 240.056 122.3 234.119 122.3 234.119C124.268 233.481 126.028 232.327 127.398 230.777C129.346 228.367 129.353 223.916 129.353 223.916C129.353 223.916 134.02 217.225 137.515 215.192C141.011 213.159 143.452 211.85 144.569 208.332C145.685 204.813 144.006 202.942 139.556 206.661C135.105 210.38 133.065 211.111 133.065 211.111L117.665 214.268" fill="white"/>
<path d="M112.098 240.056C118.219 240.056 122.3 234.119 122.3 234.119C124.268 233.481 126.028 232.327 127.398 230.777C129.346 228.367 129.353 223.916 129.353 223.916C129.353 223.916 134.02 217.225 137.515 215.192C141.011 213.159 143.452 211.85 144.569 208.332C145.685 204.813 144.006 202.942 139.556 206.661C135.105 210.38 133.065 211.111 133.065 211.111L117.665 214.268" stroke="#263238" stroke-linejoin="round"/>
<path d="M136.304 211.663L114.852 221.444L132.232 259.564L153.685 249.783L136.304 211.663Z" fill="white" stroke="#263238" stroke-linejoin="round"/>
<path d="M127.297 219.204L141.85 251.112" stroke="#263238" stroke-linejoin="round"/>
<path d="M122.601 230.23C123.021 230.419 123.499 230.436 123.931 230.276C124.363 230.116 124.715 229.793 124.911 229.376L127.105 224.663C127.29 224.242 127.303 223.765 127.142 223.333C126.981 222.902 126.659 222.551 126.243 222.353C125.822 222.168 125.346 222.154 124.915 222.313C124.484 222.473 124.132 222.793 123.933 223.208L121.746 227.92C121.559 228.341 121.544 228.818 121.703 229.249C121.863 229.681 122.185 230.033 122.601 230.23Z" fill="#263238" stroke="#263238" stroke-linejoin="round"/>
<path d="M126.066 237.83C126.486 238.017 126.963 238.033 127.395 237.873C127.826 237.713 128.178 237.391 128.376 236.976L130.562 232.263C130.752 231.843 130.768 231.365 130.608 230.933C130.448 230.501 130.125 230.149 129.708 229.953C129.287 229.766 128.81 229.751 128.379 229.91C127.947 230.07 127.595 230.392 127.398 230.808L125.211 235.52C125.024 235.941 125.008 236.418 125.168 236.849C125.328 237.281 125.65 237.633 126.066 237.83Z" fill="#263238" stroke="#263238" stroke-linejoin="round"/>
<path d="M129.531 245.422C129.951 245.611 130.428 245.628 130.861 245.468C131.293 245.308 131.645 244.984 131.841 244.567L134.027 239.855C134.217 239.435 134.233 238.957 134.073 238.525C133.913 238.093 133.59 237.741 133.173 237.545C132.752 237.358 132.275 237.342 131.844 237.502C131.412 237.662 131.06 237.984 130.863 238.4L128.676 243.112C128.489 243.533 128.473 244.009 128.633 244.441C128.793 244.873 129.115 245.225 129.531 245.422Z" fill="#263238" stroke="#263238" stroke-linejoin="round"/>
<path d="M132.998 253.022C133.418 253.209 133.895 253.225 134.327 253.065C134.758 252.905 135.11 252.583 135.308 252.167L137.495 247.455C137.682 247.035 137.697 246.558 137.537 246.126C137.378 245.695 137.056 245.342 136.64 245.145C136.219 244.958 135.743 244.943 135.311 245.102C134.879 245.262 134.527 245.584 134.33 246L132.143 250.712C131.954 251.132 131.937 251.61 132.097 252.042C132.257 252.474 132.581 252.826 132.998 253.022Z" fill="#263238" stroke="#263238" stroke-linejoin="round"/>
<path d="M132.572 225.687C132.992 225.874 133.469 225.889 133.901 225.73C134.333 225.57 134.685 225.248 134.882 224.832L137.069 220.12C137.256 219.699 137.271 219.222 137.112 218.791C136.952 218.359 136.63 218.007 136.214 217.81C135.794 217.622 135.317 217.607 134.885 217.767C134.454 217.926 134.102 218.249 133.904 218.664L131.71 223.377C131.523 223.798 131.509 224.276 131.67 224.708C131.831 225.139 132.155 225.491 132.572 225.687Z" fill="#263238" stroke="#263238" stroke-linejoin="round"/>
<path d="M136.03 233.31C136.452 233.497 136.929 233.511 137.361 233.35C137.793 233.189 138.144 232.865 138.34 232.448L140.535 227.743C140.722 227.323 140.737 226.846 140.578 226.414C140.418 225.982 140.096 225.63 139.68 225.433C139.47 225.334 139.242 225.278 139.01 225.268C138.778 225.257 138.546 225.293 138.328 225.372C138.11 225.452 137.91 225.574 137.739 225.731C137.568 225.888 137.429 226.077 137.332 226.288L135.145 231C134.962 231.425 134.952 231.904 135.117 232.335C135.283 232.767 135.61 233.117 136.03 233.31Z" fill="#263238" stroke="#263238" stroke-linejoin="round"/>
<path d="M139.495 240.879C139.916 241.066 140.393 241.082 140.824 240.922C141.256 240.762 141.608 240.44 141.805 240.024L144 235.312C144.186 234.891 144.201 234.413 144.04 233.981C143.878 233.55 143.555 233.198 143.137 233.002C142.717 232.817 142.241 232.803 141.81 232.962C141.379 233.122 141.026 233.442 140.827 233.857L138.641 238.569C138.454 238.99 138.438 239.467 138.598 239.898C138.758 240.33 139.08 240.682 139.495 240.879Z" fill="#263238" stroke="#263238" stroke-linejoin="round"/>
<path d="M142.96 248.479C143.38 248.666 143.857 248.682 144.289 248.522C144.721 248.362 145.073 248.04 145.27 247.624L147.457 242.912C147.646 242.492 147.662 242.014 147.502 241.582C147.343 241.15 147.019 240.798 146.602 240.602C146.182 240.413 145.704 240.396 145.272 240.556C144.84 240.716 144.488 241.04 144.292 241.457L142.105 246.169C141.918 246.59 141.903 247.067 142.062 247.498C142.222 247.93 142.544 248.282 142.96 248.479Z" fill="#263238" stroke="#263238" stroke-linejoin="round"/>
<path d="M119.152 207.584C119.152 207.584 124.157 202.394 126.752 203.318C129.347 204.242 135.992 211.111 136.216 212.782C136.439 214.452 138.818 219.835 137.886 220.204C136.955 220.574 130.841 216.678 128.238 214.044C125.636 211.411 119.152 207.584 119.152 207.584Z" fill="white" stroke="#263238" stroke-linejoin="round"/>
<path d="M109.133 214.83C109.133 214.83 113.214 205.921 115.994 205.921C118.773 205.921 128.799 210.379 130.092 212.235C131.386 214.091 137.33 219.843 135.844 220.582C134.358 221.321 131.224 219.812 128.983 218.172C127.852 217.304 126.674 216.497 125.457 215.754L119.151 213.898" fill="white"/>
<path d="M109.133 214.83C109.133 214.83 113.214 205.921 115.994 205.921C118.773 205.921 128.799 210.379 130.092 212.235C131.386 214.091 137.33 219.843 135.844 220.582C134.358 221.321 131.224 219.812 128.983 218.172C127.852 217.304 126.674 216.497 125.457 215.754L119.151 213.898" stroke="#263238" stroke-linejoin="round"/>
<path d="M102.637 218.164C102.637 218.164 106.718 209.255 109.505 209.255C112.293 209.255 122.303 213.706 123.604 215.562C124.905 217.417 130.842 223.169 129.356 223.916C127.87 224.663 124.736 223.146 122.487 221.498C121.358 220.633 120.183 219.829 118.968 219.088L112.654 217.233" fill="white"/>
<path d="M102.637 218.164C102.637 218.164 106.718 209.255 109.505 209.255C112.293 209.255 122.303 213.706 123.604 215.562C124.905 217.417 130.842 223.169 129.356 223.916C127.87 224.663 124.736 223.146 122.487 221.498C121.358 220.633 120.183 219.829 118.968 219.088L112.654 217.233" stroke="#263238" stroke-linejoin="round"/>
<path d="M100.965 222.245C100.965 222.245 98.925 217.787 100.965 216.855C103.006 215.924 116.181 212.774 117.482 212.035C118.783 211.296 121.193 212.405 118.252 215.739C115.311 219.073 106.563 221.129 105.639 221.306" fill="white"/>
<path d="M100.965 222.245C100.965 222.245 98.925 217.787 100.965 216.855C103.006 215.924 116.181 212.774 117.482 212.035C118.783 211.296 121.193 212.405 118.252 215.739C115.311 219.073 106.563 221.129 105.639 221.306" stroke="#263238" stroke-linejoin="round"/>
<path d="M96.7867 116.264L88.6718 90L42 104.421L50.115 130.684L96.7867 116.264Z" fill="white" stroke="black" stroke-linejoin="round"/>
<path d="M89.4098 104.722L50.3477 116.795" stroke="black" stroke-linejoin="round"/>
<path d="M85.8093 103.334L86.1216 102.839C86.6412 102.016 86.3948 100.927 85.5712 100.407L79.9578 96.8654C79.1342 96.3458 78.0453 96.5921 77.5256 97.4157L77.2133 97.9107C76.6937 98.7343 76.9401 99.8232 77.7637 100.343L83.3771 103.885C84.2007 104.404 85.2897 104.158 85.8093 103.334Z" fill="white" stroke="black" stroke-linejoin="round"/>
<path d="M76.4847 106.19L76.7971 105.695C77.3169 104.871 77.0707 103.782 76.2472 103.262L70.6344 99.7196C69.8108 99.1998 68.7219 99.4461 68.2021 100.27L67.8897 100.764C67.3699 101.588 67.6161 102.677 68.4396 103.197L74.0525 106.74C74.876 107.259 75.9649 107.013 76.4847 106.19Z" fill="white" stroke="black" stroke-linejoin="round"/>
<path d="M67.1879 109.065L67.5002 108.57C68.02 107.746 67.7738 106.657 66.9503 106.137L61.3375 102.595C60.514 102.075 59.425 102.321 58.9052 103.145L58.5928 103.639C58.073 104.463 58.3192 105.552 59.1428 106.072L64.7556 109.615C65.5791 110.134 66.6681 109.888 67.1879 109.065Z" fill="white" stroke="black" stroke-linejoin="round"/>
<path d="M57.903 111.946L58.2153 111.451C58.735 110.628 58.4886 109.539 57.665 109.019L52.0515 105.477C51.2279 104.958 50.139 105.204 49.6193 106.028L49.3071 106.523C48.7874 107.346 49.0338 108.435 49.8574 108.955L55.4709 112.496C56.2945 113.016 57.3834 112.77 57.903 111.946Z" fill="white" stroke="black" stroke-linejoin="round"/>
<path d="M89.5785 115.542L89.8908 115.047C90.4106 114.223 90.1644 113.134 89.3409 112.614L83.7281 109.072C82.9046 108.552 81.8156 108.798 81.2958 109.622L80.9835 110.116C80.4637 110.94 80.7099 112.029 81.5334 112.549L87.1462 116.092C87.9697 116.611 89.0587 116.365 89.5785 115.542Z" fill="white" stroke="black" stroke-linejoin="round"/>
<path d="M80.2583 118.393L80.5707 117.898C81.0905 117.075 80.8442 115.986 80.0207 115.466L74.4079 111.923C73.5844 111.403 72.4954 111.65 71.9756 112.473L71.6633 112.968C71.1435 113.792 71.3897 114.881 72.2132 115.4L77.826 118.943C78.6495 119.463 79.7385 119.217 80.2583 118.393Z" fill="white" stroke="black" stroke-linejoin="round"/>
<path d="M70.9535 121.264L71.2658 120.769C71.7856 119.946 71.5394 118.857 70.7159 118.337L65.1031 114.794C64.2796 114.275 63.1906 114.521 62.6708 115.344L62.3585 115.839C61.8387 116.663 62.0849 117.752 62.9084 118.271L68.5212 121.814C69.3447 122.334 70.4337 122.088 70.9535 121.264Z" fill="white" stroke="black" stroke-linejoin="round"/>
<path d="M61.6527 124.139L61.9651 123.644C62.4849 122.821 62.2387 121.732 61.4151 121.212L55.8023 117.669C54.9788 117.15 53.8898 117.396 53.37 118.219L53.0577 118.714C52.5379 119.538 52.7841 120.627 53.6076 121.146L59.2204 124.689C60.0439 125.209 61.1329 124.963 61.6527 124.139Z" fill="white" stroke="black" stroke-linejoin="round"/>
<path d="M292.204 125.015L287.268 129.542L281 120.71L283.957 118L292.204 125.015Z" fill="white" stroke="black" stroke-linejoin="round"/>
<path d="M289.785 124.745L287.583 126.77C287.075 127.239 286.665 127.803 286.376 128.431C286.087 129.058 285.925 129.736 285.898 130.426C285.872 131.117 285.982 131.805 286.222 132.453C286.462 133.101 286.828 133.695 287.298 134.201L321.763 171.369L325.497 178.083L340.012 163.515L333.297 159.788L296.953 124.799C295.988 123.883 294.71 123.369 293.38 123.359C292.049 123.349 290.764 123.844 289.785 124.745Z" fill="white" stroke="black" stroke-linejoin="round"/>
<path d="M316.288 165.494L323.102 157.501L297.068 132.191L290.785 137.997L316.288 165.494Z" fill="white" stroke="black" stroke-linejoin="round"/>
<path d="M328.912 302.81H310.086V339.955H328.912V302.81Z" fill="white" stroke="#263238" stroke-linejoin="round"/>
<path d="M325.424 314.229H313.566V328.536H325.424V314.229Z" fill="white" stroke="#263238" stroke-linejoin="round"/>
<path d="M324.722 293.131H314.266V302.671H324.722V293.131Z" fill="white" stroke="#263238" stroke-linejoin="round"/>
<path d="M321.15 278.031H317.839L316.738 293.193H322.259L321.15 278.031Z" fill="white" stroke="#263238" stroke-linejoin="round"/>
<path d="M324.722 297.728H314.266V302.671H324.722V297.728Z" fill="white" stroke="#263238" stroke-linejoin="round"/>
<path d="M297.312 314.545H269.246V339.955H297.312V314.545Z" fill="white" stroke="#263238" stroke-linejoin="round"/>
<path d="M297.312 325.048H269.246V339.955H297.312V325.048Z" fill="white" stroke="#263238" stroke-linejoin="round"/>
<path d="M291.938 327.72H269.246V337.291H291.938V327.72Z" fill="white" stroke="#263238" stroke-linejoin="round"/>
<path d="M97.4298 296.08H69.3633V339.955H97.4298V296.08Z" fill="white" stroke="#263238" stroke-linejoin="round"/>
<path d="M83.2227 296.504V339.724" stroke="#263238" stroke-linejoin="round"/>
<path d="M78.9192 300.207H71.5195V311.911H78.9192V300.207Z" stroke="#263238" stroke-linejoin="round"/>
<path d="M77.6479 302.225H72.7969V309.894H77.6479V302.225Z" stroke="#263238" stroke-linejoin="round"/>
<path d="M94.6809 300.207H87.2812V311.911H94.6809V300.207Z" stroke="#263238" stroke-linejoin="round"/>
<path d="M93.4096 302.225H88.5586V309.894H93.4096V302.225Z" stroke="#263238" stroke-linejoin="round"/>
<path d="M87.2953 303.133H78.9023V308.523H87.2953V303.133Z" stroke="#263238" stroke-linejoin="round"/>
<path d="M78.9192 320.15H71.5195V331.854H78.9192V320.15Z" stroke="#263238" stroke-linejoin="round"/>
<path d="M77.6479 322.168H72.7969V329.837H77.6479V322.168Z" stroke="#263238" stroke-linejoin="round"/>
<path d="M94.6809 320.15H87.2812V331.854H94.6809V320.15Z" stroke="#263238" stroke-linejoin="round"/>
<path d="M93.4096 322.168H88.5586V329.837H93.4096V322.168Z" stroke="#263238" stroke-linejoin="round"/>
<path d="M87.2953 323.076H78.9023V328.466H87.2953V323.076Z" stroke="#263238" stroke-linejoin="round"/>
<path d="M243.812 243.22H133.656V339.963H243.812V243.22Z" fill="#263238" stroke="#263238" stroke-linejoin="round"/>
<path d="M243.812 272.626H133.656V339.955H243.812V272.626Z" fill="url(#paint0_linear_2511_175322)" stroke="#263238" stroke-linejoin="round"/>
<path d="M206.683 299.114H196.018V288.611H181.45V299.114H170.785V313.467H181.45V323.977H196.018V313.467H206.683V299.114Z" fill="white" stroke="#263238" stroke-linejoin="round"/>
<path d="M243.65 238.061H133.871V247.802H243.65V238.061Z" fill="url(#paint1_linear_2511_175322)" stroke="#263238" stroke-linejoin="round"/>
<path d="M31.8633 339.955H353.8" stroke="#263238" stroke-linejoin="round"/>
<defs>
<linearGradient id="paint0_linear_2511_175322" x1="133.656" y1="272.626" x2="182.062" y2="367.748" gradientUnits="userSpaceOnUse">
<stop stop-color="#BFC754"/>
<stop offset="1" stop-color="#5DA14C"/>
</linearGradient>
<linearGradient id="paint1_linear_2511_175322" x1="133.871" y1="238.061" x2="135.144" y2="255.292" gradientUnits="userSpaceOnUse">
<stop stop-color="#BFC754"/>
<stop offset="1" stop-color="#5DA14C"/>
</linearGradient>
</defs>
</svg>
