<svg width="56" height="56" viewBox="0 0 56 56" fill="none" xmlns="http://www.w3.org/2000/svg">
<circle cx="28" cy="28" r="28" fill="url(#paint0_linear_1236_82567)"/>
<g clip-path="url(#clip0_1236_82567)">
<path fill-rule="evenodd" clip-rule="evenodd" d="M36.1387 25.0456C39.6741 25.0456 42.5343 27.9212 42.5343 31.436C42.5343 34.9509 39.6419 37.8264 36.1065 37.8264C32.5712 37.8264 29.6788 34.9509 29.6788 31.436C29.6788 24.3746 35.4316 18.6553 42.5343 18.6553C42.5343 18.6553 38.3242 20.2208 36.1387 25.0456ZM26.4649 31.436C26.4649 34.9509 23.5725 37.8264 20.0371 37.8264C16.5018 37.8264 13.6094 34.9509 13.6094 31.436C13.6094 24.3746 19.3622 18.6553 26.4649 18.6553C26.4649 18.6553 22.2548 20.221 20.0693 25.0456C23.6047 25.0456 26.4649 27.9212 26.4649 31.436Z" fill="white"/>
</g>
<defs>
<linearGradient id="paint0_linear_1236_82567" x1="-3.74254e-07" y1="18.9" x2="70.2373" y2="18.9" gradientUnits="userSpaceOnUse">
<stop stop-color="#E34423"/>
<stop offset="1" stop-color="#FF6545"/>
</linearGradient>
<clipPath id="clip0_1236_82567">
<rect width="28.9249" height="19.1712" fill="white" transform="translate(13.6211 18.6667)"/>
</clipPath>
</defs>
</svg>
