<svg width="57" height="86" viewBox="0 0 57 86" fill="none" xmlns="http://www.w3.org/2000/svg">
    <circle cx="28.5" cy="28.5" r="28.5" fill="#E31E24"/>
    <path d="M20.5 85.5C26.1 71.9 27.5 60.8333 27.5 57C35 53.3333 51.4 45.6 51 46C44.6 61.2 27.5 78.8333 20.5 85.5Z"
          fill="#E31E24"/>
    <path
        d="M27.4376 40.4416C26.5931 40.4416 25.8795 40.1785 25.2964 39.6525C24.7133 39.1268 24.4271 38.4836 24.4374 37.7242L24.4338 32.0698L17.3959 39.2143C16.8113 40.0325 15.9805 40.4416 14.9031 40.4416C14.117 40.4416 13.4633 40.2444 12.9426 39.8499C12.4216 39.4553 12.112 38.9075 12.0142 38.2062C11.9816 37.9725 12.0051 37.673 12.0851 37.3078C12.1651 36.9426 12.288 36.627 12.5054 36.4091L17.5846 31.3246C17.5292 31.3048 17.1964 31.2846 16.8444 31.2638C15.7835 31.2017 15.3687 31.0656 14.4209 30.3087C14.0598 30.0202 13.7467 29.6942 13.4822 29.3303C12.8336 28.4391 12.4216 27.3653 12.2461 26.1087C11.9073 23.6835 12.4418 21.7255 13.8494 20.2354C15.2574 18.7452 17.5481 18 20.7217 18H27.4474C28.2919 18 29.0138 18.2704 29.6134 18.8109C30.2131 19.3514 30.5056 19.987 30.4911 20.7174L30.4644 37.7242C30.4541 38.4836 30.1582 39.1268 29.5764 39.6525C28.9949 40.1785 28.2818 40.4416 27.4376 40.4416ZM38.868 23.8551C38.9998 23.0788 39.7345 22.5567 40.5081 22.6892C41.2815 22.8214 41.8017 23.5588 41.6699 24.3349C41.4926 25.378 41.3252 26.4188 41.174 27.4531C42.5005 27.497 43.7565 27.6232 44.7094 27.9357C45.4556 28.1791 45.8635 28.9835 45.621 29.7324C45.3787 30.4809 44.5769 30.8906 43.8308 30.6472C43.1017 30.4082 42.002 30.317 40.8027 30.2895C40.6507 31.6113 40.5237 32.9831 40.4318 34.4194C40.3826 35.2054 39.7079 35.8023 38.925 35.7532C38.1418 35.7039 37.5471 35.0267 37.596 34.241C37.6816 32.9064 37.8015 31.5945 37.9464 30.3009L37.9366 30.3012C36.7357 30.322 35.6386 30.3409 34.8678 30.2812C34.0849 30.223 33.4977 29.5383 33.5557 28.7523C33.6139 27.9666 34.2961 27.3773 35.079 27.4354C35.8027 27.4918 36.8001 27.4744 37.8918 27.4554L38.308 27.4484C38.4834 26.1991 38.6721 25.0087 38.868 23.8551ZM18.169 25.3635C18.2301 25.8019 18.4754 26.2037 18.9051 26.5689C19.3347 26.9344 20.1316 27.117 21.2962 27.117H24.4408L24.433 22.9967H20.8081C18.8282 22.9967 17.9485 23.7858 18.169 25.3635Z"
        fill="#FEFEFE"/>
</svg>
