<svg width="507" height="436" viewBox="0 0 507 436" fill="none" xmlns="http://www.w3.org/2000/svg">
<path d="M439.163 162.381C425.108 101.375 374.223 56.2495 316.126 33.4067C261.574 11.9582 202.416 22.8328 149.748 48.5892C95.3762 75.1786 41.769 113.707 30.1305 173.268C18.5471 232.547 55.3387 286.916 94.1553 333.088C132.821 379.081 179.952 423.817 239.907 422.797C300.303 421.77 347.249 376.238 384.036 328.159C421.232 279.547 452.921 222.096 439.163 162.381Z" fill="#E3F5DE"/>
<path d="M234.613 204.822L234.613 179.928C234.613 171.091 227.45 163.928 218.613 163.928L193.753 163.928L193.753 188.822C193.753 197.659 200.916 204.822 209.753 204.822L234.613 204.822Z" fill="#C5E4BC"/>
<path d="M193.754 249.89L193.754 224.995C193.754 216.159 200.917 208.995 209.754 208.995L234.614 208.995L234.614 233.89C234.614 242.727 227.451 249.89 218.614 249.89L193.754 249.89Z" fill="#C5E4BC"/>
<path d="M238.789 204.822L238.789 179.928C238.789 171.091 245.953 163.928 254.789 163.928L279.649 163.928L279.649 188.822C279.649 197.659 272.486 204.822 263.649 204.822L238.789 204.822Z" fill="#C5E4BC"/>
<path d="M279.648 249.89L279.648 224.995C279.648 216.159 272.485 208.995 263.648 208.995L238.788 208.995L238.788 233.89C238.788 242.727 245.952 249.89 254.788 249.89L279.648 249.89Z" fill="#C5E4BC"/>
<g filter="url(#filter0_d_2511_175505)">
<ellipse rx="112.365" ry="73.9635" transform="matrix(0.965873 -0.259017 0.258621 0.965979 127.659 100.552)" fill="white"/>
</g>
<path d="M223.855 74.7543C228.31 91.393 221.769 109.428 207.317 125.173C192.873 140.909 170.613 154.246 143.947 161.397C117.28 168.549 91.3387 168.137 70.9692 161.737C50.5874 155.334 35.9121 142.988 31.4575 126.349C27.0028 109.711 33.5442 91.6756 47.9962 75.9305C62.4394 60.1949 84.6995 46.8574 111.366 39.7063C138.033 32.5551 163.974 32.9665 184.344 39.3664C204.725 45.7701 219.401 58.1156 223.855 74.7543Z" fill="white" stroke="#5DA14C" stroke-width="1.82998"/>
<rect x="0.612247" y="0.353481" width="28.9639" height="28.9852" rx="7.5" transform="matrix(0.965873 -0.259017 0.258621 0.965979 63.6092 99.2536)" fill="#E03B6F" stroke="#E03B6F"/>
<path d="M116.21 101.278L117.632 100.897L118.856 105.472L116.94 105.986L116.303 103.605L109.24 105.499L109.878 107.88L107.961 108.393L106.737 103.819L107.664 103.57C108.027 102.247 108.215 100.887 108.228 99.4925C108.239 98.0872 108.033 96.5963 107.611 95.0199L107.367 94.108L113.826 92.3757L116.21 101.278ZM114.185 101.821L112.389 95.1133L109.87 95.7888C110.114 97.0267 110.248 98.2497 110.273 99.4577C110.298 100.666 110.181 101.835 109.92 102.965L114.185 101.821ZM119.921 90.9897C120.531 90.5058 121.223 90.1602 121.996 89.953C122.768 89.7458 123.538 89.6939 124.306 89.7973C125.073 89.9007 125.789 90.1395 126.452 90.5138C127.113 90.8778 127.688 91.3752 128.177 92.006C128.673 92.6238 129.034 93.35 129.257 94.1846C129.478 95.0089 129.527 95.8128 129.406 96.5964C129.295 97.3772 129.045 98.0956 128.658 98.7517C128.27 99.4078 127.771 99.9778 127.161 100.462C126.548 100.935 125.855 101.276 125.082 101.483C124.31 101.69 123.54 101.742 122.772 101.639C122.002 101.525 121.285 101.281 120.622 100.907C119.958 100.532 119.378 100.036 118.882 99.4186C118.395 98.7981 118.042 98.0757 117.821 97.2514C117.6 96.4271 117.546 95.6245 117.657 94.8437C117.778 94.0602 118.033 93.3404 118.42 92.6843C118.808 92.0282 119.308 91.4633 119.921 90.9897ZM124.091 92.0251C123.601 91.9687 123.098 92.0096 122.583 92.1477C122.068 92.2859 121.612 92.5019 121.216 92.7959C120.817 93.0796 120.496 93.4253 120.252 93.8331C120.005 94.2307 119.848 94.6758 119.781 95.1686C119.712 95.6511 119.748 96.1602 119.892 96.696C120.035 97.2318 120.259 97.6964 120.563 98.0897C120.864 98.4728 121.223 98.7798 121.638 99.0108C122.05 99.2315 122.502 99.37 122.991 99.4264C123.479 99.4724 123.98 99.4264 124.495 99.2882C125.01 99.1501 125.467 98.9392 125.866 98.6555C126.262 98.3616 126.578 98.0172 126.815 97.6224C127.059 97.2146 127.216 96.7695 127.286 96.287C127.352 95.7942 127.314 95.2799 127.171 94.7441C127.027 94.2083 126.805 93.7489 126.504 93.3658C126.2 92.9725 125.841 92.6655 125.429 92.4448C125.024 92.211 124.578 92.0711 124.091 92.0251ZM132.277 87.4277C132.782 87.2923 133.274 87.2322 133.753 87.2473C134.229 87.2522 134.661 87.3406 135.05 87.5125C135.448 87.6817 135.791 87.932 136.079 88.2635C136.364 88.5848 136.574 88.9978 136.709 89.5027C136.841 89.9973 136.865 90.4381 136.781 90.825C136.705 91.199 136.552 91.5548 136.322 91.8925C136.849 92.0052 137.309 92.2406 137.703 92.5987C138.097 92.9569 138.385 93.476 138.567 94.1561C138.703 94.6609 138.726 95.1406 138.638 95.5949C138.55 96.0492 138.373 96.4611 138.108 96.8305C137.842 97.1998 137.503 97.5226 137.091 97.7987C136.687 98.0618 136.237 98.2596 135.743 98.3922L132.436 99.2791L129.465 88.1819L132.277 87.4277ZM132.044 89.7101L132.706 92.183L133.849 91.8763C134.189 91.7851 134.448 91.5944 134.624 91.3042C134.808 91.0009 134.851 90.669 134.755 90.3083C134.666 89.9786 134.471 89.7219 134.168 89.5381C133.864 89.3544 133.532 89.3109 133.172 89.4076L132.044 89.7101ZM133.227 94.1304L133.906 96.6651L135.59 96.2134C135.941 96.1195 136.208 95.9209 136.391 95.6176C136.572 95.304 136.615 94.9669 136.518 94.6062C136.474 94.4414 136.4 94.2899 136.297 94.152C136.194 94.014 136.065 93.9049 135.911 93.8247C135.768 93.7418 135.609 93.6849 135.435 93.6543C135.261 93.6236 135.082 93.6331 134.896 93.6828L133.227 94.1304ZM138.32 85.8072L144.44 84.1661L145.027 86.3608L140.932 87.459L141.495 89.561L145.127 88.5871L145.714 90.7818L142.082 91.7557L142.728 94.1668L146.823 93.0686L147.411 95.2633L141.291 96.9044L138.32 85.8072ZM149.71 82.7528C150.225 82.6147 150.721 82.57 151.198 82.6189C151.685 82.6649 152.13 82.7997 152.532 83.0231C152.941 83.2335 153.296 83.5251 153.594 83.8978C153.893 84.2706 154.112 84.7197 154.253 85.2452C154.388 85.75 154.425 86.2372 154.363 86.7066C154.301 87.176 154.151 87.6081 153.915 88.0029C153.675 88.3874 153.358 88.7266 152.961 89.0205C152.563 89.3042 152.1 89.5165 151.575 89.6574L150.4 89.9723L151.522 94.1608L149.497 94.7037L146.526 83.6066L149.71 82.7528ZM149.134 85.2429L149.817 87.7931L151.285 87.3994C151.646 87.3027 151.919 87.1078 152.106 86.8149C152.29 86.5116 152.331 86.1693 152.228 85.7881C152.132 85.4274 151.932 85.1552 151.629 84.9715C151.326 84.7877 150.984 84.747 150.602 84.8492L149.134 85.2429ZM167.143 89.9718L165.118 90.5147L163.116 83.0341L159.879 91.9196L157.839 92.4666L154.868 81.3695L156.893 80.8266L158.908 88.3535L162.147 79.4175L164.172 78.8746L167.143 89.9718ZM166.651 78.2096L172.771 76.5685L173.359 78.7632L169.264 79.8614L169.826 81.9634L173.458 80.9895L174.046 83.1842L170.414 84.1581L171.059 86.5692L175.155 85.471L175.742 87.6657L169.623 89.3068L166.651 78.2096Z" fill="#5DA14C"/>
<g filter="url(#filter1_d_2511_175505)">
<ellipse rx="112.365" ry="73.9635" transform="matrix(0.965873 0.259017 -0.258621 0.965979 379.339 190.512)" fill="white"/>
</g>
<path d="M475.536 216.31C471.081 232.948 456.406 245.294 436.024 251.698C415.655 258.097 389.714 258.509 363.047 251.358C336.38 244.206 314.12 230.869 299.677 215.133C285.225 199.388 278.684 181.353 283.138 164.715C287.593 148.076 302.268 135.73 322.65 129.327C343.019 122.927 368.961 122.515 395.627 129.666C422.294 136.818 444.554 150.155 458.997 165.891C473.449 181.636 479.991 199.671 475.536 216.31Z" fill="white" stroke="#5DA14C" stroke-width="1.82998"/>
<path d="M372.421 179.926C371.926 179.793 371.427 179.781 370.924 179.889C370.433 179.989 369.955 180.187 369.49 180.482L369.521 178.569C369.69 178.393 369.903 178.235 370.162 178.094C370.42 177.954 370.709 177.844 371.029 177.764C371.348 177.684 371.685 177.641 372.04 177.637C372.397 177.622 372.761 177.665 373.132 177.764C373.586 177.886 373.989 178.071 374.341 178.321C374.697 178.56 374.983 178.852 375.2 179.197C375.43 179.535 375.575 179.921 375.635 180.357C375.708 180.785 375.678 181.247 375.546 181.741C375.416 182.226 375.189 182.64 374.865 182.983C374.555 183.32 374.223 183.568 373.871 183.727C374.256 184.106 374.524 184.548 374.676 185.053C374.83 185.547 374.813 186.15 374.622 186.861C374.482 187.386 374.257 187.834 373.948 188.204C373.649 188.577 373.29 188.867 372.87 189.075C372.453 189.272 371.991 189.391 371.483 189.431C370.978 189.462 370.457 189.405 369.922 189.261C369.458 189.137 369.051 188.967 368.7 188.751C368.359 188.539 368.068 188.306 367.827 188.053C367.585 187.801 367.394 187.545 367.254 187.287C367.116 187.018 367.028 186.768 366.99 186.537L367.961 184.892C368.164 185.411 368.475 185.858 368.893 186.235C369.311 186.613 369.85 186.89 370.509 187.066C371.055 187.213 371.516 187.204 371.891 187.039C372.28 186.868 372.53 186.57 372.643 186.148C372.74 185.787 372.69 185.459 372.493 185.163C372.309 184.86 371.985 184.646 371.522 184.522L370.255 184.182L370.842 181.987L371.8 182.244C372.181 182.347 372.523 182.328 372.826 182.188C373.138 182.051 373.344 181.797 373.444 181.426C373.535 181.086 373.484 180.78 373.292 180.507C373.113 180.228 372.823 180.034 372.421 179.926ZM385.109 193.102L382.976 192.53L382.688 190.018L378.052 188.774L376.547 190.806L374.368 190.222L381.713 180.297L383.706 180.832L385.109 193.102ZM379.462 186.85L382.413 187.641L381.947 183.507L379.462 186.85ZM389.332 182.341L395.205 183.915L394.617 186.11L390.769 185.078L390.235 187.072L391.41 187.387C391.935 187.528 392.396 187.745 392.792 188.039C393.191 188.323 393.509 188.662 393.745 189.057C393.985 189.441 394.135 189.868 394.197 190.338C394.26 190.807 394.223 191.294 394.088 191.799C393.947 192.325 393.727 192.774 393.429 193.147C393.13 193.519 392.775 193.816 392.362 194.037C391.963 194.25 391.52 194.379 391.033 194.425C390.556 194.474 390.06 194.43 389.545 194.292L386.361 193.438L389.332 182.341ZM390.437 192.195C390.818 192.297 391.161 192.257 391.464 192.073C391.767 191.889 391.967 191.617 392.063 191.256C392.165 190.875 392.123 190.538 391.937 190.245C391.753 189.942 391.481 189.742 391.12 189.645L389.652 189.251L388.969 191.801L390.437 192.195ZM400.605 185.612C401.375 185.498 402.146 185.545 402.919 185.752C403.692 185.959 404.385 186.3 404.998 186.774C405.611 187.247 406.111 187.812 406.498 188.468C406.889 189.114 407.138 189.832 407.246 190.623C407.368 191.407 407.317 192.216 407.093 193.051C406.873 193.875 406.514 194.596 406.017 195.214C405.531 195.834 404.956 196.332 404.293 196.706C403.629 197.08 402.913 197.324 402.142 197.438C401.375 197.541 400.605 197.489 399.832 197.282C399.059 197.075 398.367 196.735 397.753 196.261C397.143 195.777 396.644 195.207 396.257 194.551C395.869 193.895 395.615 193.175 395.493 192.391C395.382 191.611 395.437 190.808 395.658 189.984C395.878 189.16 396.232 188.437 396.718 187.817C397.215 187.199 397.795 186.703 398.458 186.329C399.122 185.954 399.837 185.715 400.605 185.612ZM403.698 188.595C403.302 188.301 402.847 188.085 402.331 187.947C401.816 187.809 401.314 187.768 400.824 187.824C400.337 187.87 399.885 188.009 399.47 188.24C399.058 188.461 398.7 188.768 398.396 189.161C398.094 189.544 397.872 190.003 397.728 190.539C397.585 191.075 397.547 191.589 397.613 192.082C397.683 192.565 397.84 193.01 398.084 193.418C398.331 193.815 398.653 194.161 399.049 194.455C399.448 194.738 399.905 194.949 400.42 195.087C400.935 195.226 401.436 195.272 401.923 195.226C402.413 195.169 402.859 195.029 403.261 194.806C403.676 194.575 404.035 194.268 404.336 193.885C404.64 193.491 404.864 193.027 405.007 192.491C405.151 191.955 405.188 191.446 405.118 190.964C405.051 190.471 404.894 190.026 404.647 189.628C404.414 189.223 404.097 188.879 403.698 188.595ZM409.054 187.629L417.6 189.921L417.021 192.085L413.76 191.211L411.368 200.144L409.344 199.601L411.735 190.668L408.475 189.793L409.054 187.629ZM424.59 203.689L422.457 203.118L422.169 200.605L417.533 199.362L416.028 201.394L413.849 200.809L421.194 190.885L423.187 191.419L424.59 203.689ZM418.942 197.437L421.894 198.229L421.427 194.095L418.942 197.437Z" fill="#5DA14C"/>
<path d="M339.385 192.186L339.387 192.185L354.811 182.853L354.813 182.852C358.797 180.428 360.712 175.205 358.656 170.95C358.143 169.884 357.423 168.94 356.539 168.177C355.655 167.414 354.625 166.848 353.514 166.515C352.402 166.182 351.232 166.089 350.076 166.242C348.92 166.394 347.803 166.788 346.793 167.399L346.791 167.4L344.34 168.893L343.19 166.783L343.19 166.783L343.188 166.78C340.924 162.691 335.891 160.793 331.723 163.022C330.683 163.575 329.76 164.339 329.01 165.267C328.259 166.194 327.696 167.266 327.355 168.417C327.014 169.567 326.901 170.774 327.024 171.963C327.147 173.151 327.503 174.298 328.072 175.333L328.072 175.333L336.993 191.543L336.994 191.545C337.222 191.954 337.602 192.255 338.053 192.376C338.505 192.497 338.984 192.426 339.385 192.186Z" fill="#E03B6F" stroke="#E03B6F" stroke-linecap="round" stroke-linejoin="round"/>
<g filter="url(#filter2_d_2511_175505)">
<ellipse rx="112.365" ry="73.9635" transform="matrix(0.965873 -0.259017 0.258621 0.965979 207.561 335.449)" fill="white"/>
</g>
<path d="M303.758 309.651C308.212 326.29 301.671 344.325 287.219 360.07C272.776 375.806 250.516 389.143 223.849 396.294C197.182 403.446 171.241 403.034 150.872 396.634C130.49 390.231 115.814 377.885 111.36 361.246C106.905 344.608 113.447 326.573 127.899 310.827C142.342 295.092 164.602 281.754 191.269 274.603C217.935 267.452 243.876 267.863 264.246 274.263C284.628 280.667 299.303 293.013 303.758 309.651Z" fill="white" stroke="#5DA14C" stroke-width="1.82998"/>
<path d="M160.586 367.636L161.023 367.394C161.228 367.764 161.638 367.942 162.003 367.844C162.369 367.746 162.634 367.386 162.625 366.962C162.625 366.962 162.625 366.962 162.625 366.962L160.586 367.636ZM160.586 367.636L161.023 367.394C160.017 365.579 158.545 363.778 156.621 361.986C154.311 359.81 151.378 358.018 147.835 356.603C144.741 355.346 141.794 354.702 138.997 354.683L138.997 354.683C138.56 354.681 138.189 354.4 138.085 354.011C137.983 353.629 138.155 353.212 138.518 352.994C140.863 351.587 142.99 349.755 144.898 347.504L144.899 347.503C147.089 344.905 148.738 342.047 149.843 338.931L149.844 338.93C150.814 336.165 151.296 333.544 151.28 331.071C151.277 330.649 151.545 330.291 151.915 330.192C152.29 330.092 152.706 330.272 152.914 330.647C153.634 331.941 154.554 333.21 155.673 334.453L155.673 334.453L155.675 334.456C157.076 335.989 158.711 337.381 160.579 338.633L160.579 338.633L160.588 338.639C162.481 339.847 164.501 340.856 166.649 341.666L166.652 341.667C169.459 342.708 172.184 343.245 174.825 343.27L174.825 343.27C175.248 343.274 175.607 343.547 175.708 343.925C175.811 344.309 175.631 344.734 175.254 344.955C173.804 345.804 172.386 346.924 171.002 348.307L170.999 348.31C169.335 349.997 167.867 351.869 166.595 353.924L160.586 367.636Z" fill="#E03B6F" stroke="#E03B6F"/>
<path d="M185.936 332.464L187.96 331.922L189.094 336.156L191.731 330.91L194.327 330.214L191.056 336.74L197.901 341.15L195.104 341.9L189.702 338.428L190.931 343.019L188.907 343.562L185.936 332.464ZM208.58 338.286L206.447 338.858L204.942 336.826L200.306 338.07L200.018 340.582L197.839 341.166L199.242 328.896L201.235 328.362L208.58 338.286ZM200.566 335.697L203.517 334.906L201.048 331.559L200.566 335.697ZM207.394 326.71L208.205 329.739C208.362 330.327 208.606 330.703 208.938 330.868C209.279 331.03 209.733 331.036 210.3 330.884C210.599 330.804 210.842 330.722 211.029 330.638C211.217 330.555 211.407 330.46 211.599 330.353L210.407 325.902L212.432 325.359L215.403 336.456L213.378 336.999L212.187 332.548C211.974 332.66 211.743 332.766 211.493 332.866C211.244 332.966 210.939 333.065 210.579 333.161C210.115 333.286 209.662 333.346 209.219 333.344C208.774 333.33 208.364 333.242 207.989 333.077C207.621 332.9 207.292 332.64 207.002 332.298C206.719 331.943 206.503 331.488 206.354 330.931L205.369 327.253L207.394 326.71ZM214.901 324.697L221.021 323.056L221.609 325.25L217.513 326.349L218.076 328.451L221.708 327.477L222.295 329.671L218.664 330.645L219.309 333.056L223.404 331.958L223.992 334.153L217.872 335.794L214.901 324.697ZM234.694 329.395C234.603 329.717 234.457 330.038 234.256 330.357C234.051 330.666 233.794 330.961 233.483 331.243C233.169 331.515 232.803 331.757 232.385 331.968C231.98 332.187 231.525 332.365 231.02 332.5C230.278 332.699 229.525 332.752 228.76 332.659C228.006 332.563 227.298 332.333 226.638 331.969C225.987 331.602 225.412 331.105 224.913 330.477C224.413 329.849 224.049 329.107 223.82 328.252C223.591 327.397 223.536 326.572 223.655 325.778C223.774 324.985 224.023 324.266 224.403 323.623C224.793 322.977 225.291 322.424 225.897 321.964C226.512 321.5 227.191 321.169 227.933 320.97C228.428 320.838 228.905 320.765 229.365 320.752C229.826 320.739 230.256 320.778 230.656 320.87C231.063 320.948 231.427 321.071 231.748 321.239C232.08 321.404 232.358 321.6 232.585 321.827L232.431 323.789C232.221 323.625 231.978 323.48 231.702 323.355C231.436 323.228 231.14 323.131 230.812 323.064C230.485 322.997 230.141 322.968 229.779 322.977C229.424 322.972 229.056 323.021 228.675 323.123C228.129 323.27 227.646 323.488 227.227 323.777C226.818 324.063 226.49 324.405 226.243 324.803C225.996 325.2 225.839 325.645 225.772 326.138C225.705 326.631 225.745 327.151 225.891 327.697C226.037 328.243 226.263 328.712 226.567 329.106C226.871 329.499 227.229 329.806 227.641 330.027C228.054 330.248 228.509 330.38 229.006 330.423C229.514 330.463 230.041 330.41 230.587 330.264C230.989 330.156 231.354 330.014 231.682 329.838C232.007 329.651 232.295 329.447 232.545 329.225C232.792 328.993 232.998 328.751 233.161 328.497C233.336 328.24 233.471 327.983 233.568 327.725L234.694 329.395ZM232.721 319.918L241.267 317.626L241.847 319.79L238.586 320.664L240.978 329.598L238.953 330.141L236.562 321.207L233.301 322.082L232.721 319.918ZM245.442 316.507C245.946 316.371 246.438 316.311 246.917 316.326C247.393 316.331 247.826 316.42 248.214 316.592C248.613 316.761 248.956 317.011 249.243 317.343C249.528 317.664 249.738 318.077 249.873 318.582C250.005 319.076 250.03 319.517 249.945 319.904C249.869 320.278 249.716 320.634 249.486 320.972C250.013 321.084 250.474 321.32 250.868 321.678C251.262 322.036 251.55 322.555 251.732 323.235C251.867 323.74 251.89 324.22 251.802 324.674C251.714 325.128 251.537 325.54 251.272 325.91C251.006 326.279 250.668 326.602 250.256 326.878C249.851 327.141 249.402 327.339 248.907 327.471L245.6 328.358L242.629 317.261L245.442 316.507ZM245.208 318.789L245.87 321.262L247.014 320.955C247.354 320.864 247.612 320.674 247.788 320.383C247.972 320.08 248.015 319.748 247.919 319.387C247.831 319.058 247.635 318.801 247.332 318.617C247.029 318.434 246.697 318.39 246.336 318.487L245.208 318.789ZM246.391 323.21L247.07 325.744L248.755 325.293C249.105 325.199 249.372 325 249.556 324.697C249.737 324.383 249.779 324.046 249.682 323.685C249.638 323.521 249.565 323.369 249.461 323.231C249.358 323.093 249.23 322.984 249.076 322.904C248.932 322.821 248.773 322.764 248.599 322.733C248.426 322.703 248.246 322.712 248.06 322.762L246.391 323.21ZM254.297 314.381C254.907 313.897 255.599 313.551 256.372 313.344C257.144 313.137 257.914 313.085 258.682 313.188C259.449 313.292 260.165 313.53 260.828 313.905C261.489 314.269 262.064 314.766 262.553 315.397C263.049 316.015 263.41 316.741 263.633 317.575C263.854 318.4 263.903 319.204 263.782 319.987C263.671 320.768 263.421 321.486 263.034 322.143C262.646 322.799 262.147 323.369 261.537 323.853C260.924 324.326 260.231 324.667 259.458 324.874C258.686 325.081 257.916 325.133 257.148 325.03C256.378 324.916 255.661 324.672 254.998 324.298C254.334 323.923 253.754 323.427 253.258 322.809C252.771 322.189 252.418 321.466 252.197 320.642C251.976 319.818 251.922 319.015 252.033 318.235C252.154 317.451 252.409 316.731 252.796 316.075C253.184 315.419 253.684 314.854 254.297 314.381ZM258.467 315.416C257.977 315.36 257.474 315.4 256.959 315.539C256.444 315.677 255.988 315.893 255.592 316.187C255.193 316.47 254.872 316.816 254.628 317.224C254.381 317.621 254.224 318.067 254.157 318.559C254.088 319.042 254.124 319.551 254.268 320.087C254.411 320.623 254.635 321.087 254.939 321.481C255.24 321.864 255.599 322.171 256.014 322.402C256.426 322.622 256.878 322.761 257.367 322.817C257.855 322.863 258.356 322.817 258.871 322.679C259.386 322.541 259.843 322.33 260.242 322.046C260.638 321.752 260.954 321.408 261.191 321.013C261.435 320.605 261.592 320.16 261.662 319.678C261.728 319.185 261.69 318.671 261.547 318.135C261.403 317.599 261.181 317.14 260.88 316.757C260.576 316.363 260.217 316.056 259.805 315.836C259.4 315.602 258.954 315.462 258.467 315.416Z" fill="#5DA14C"/>
<defs>
<filter id="filter0_d_2511_175505" x="7.4373" y="17.3838" width="240.443" height="174.336" filterUnits="userSpaceOnUse" color-interpolation-filters="sRGB">
<feFlood flood-opacity="0" result="BackgroundImageFix"/>
<feColorMatrix in="SourceAlpha" type="matrix" values="0 0 0 0 0 0 0 0 0 0 0 0 0 0 0 0 0 0 127 0" result="hardAlpha"/>
<feOffset dy="4"/>
<feGaussianBlur stdDeviation="5"/>
<feComposite in2="hardAlpha" operator="out"/>
<feColorMatrix type="matrix" values="0 0 0 0 0.60842 0 0 0 0 0.734602 0 0 0 0 0.895833 0 0 0 0.4 0"/>
<feBlend mode="normal" in2="BackgroundImageFix" result="effect1_dropShadow_2511_175505"/>
<feBlend mode="normal" in="SourceGraphic" in2="effect1_dropShadow_2511_175505" result="shape"/>
</filter>
<filter id="filter1_d_2511_175505" x="259.118" y="107.344" width="240.443" height="174.336" filterUnits="userSpaceOnUse" color-interpolation-filters="sRGB">
<feFlood flood-opacity="0" result="BackgroundImageFix"/>
<feColorMatrix in="SourceAlpha" type="matrix" values="0 0 0 0 0 0 0 0 0 0 0 0 0 0 0 0 0 0 127 0" result="hardAlpha"/>
<feOffset dy="4"/>
<feGaussianBlur stdDeviation="5"/>
<feComposite in2="hardAlpha" operator="out"/>
<feColorMatrix type="matrix" values="0 0 0 0 0.60842 0 0 0 0 0.734602 0 0 0 0 0.895833 0 0 0 0.4 0"/>
<feBlend mode="normal" in2="BackgroundImageFix" result="effect1_dropShadow_2511_175505"/>
<feBlend mode="normal" in="SourceGraphic" in2="effect1_dropShadow_2511_175505" result="shape"/>
</filter>
<filter id="filter2_d_2511_175505" x="87.3396" y="252.281" width="240.443" height="174.336" filterUnits="userSpaceOnUse" color-interpolation-filters="sRGB">
<feFlood flood-opacity="0" result="BackgroundImageFix"/>
<feColorMatrix in="SourceAlpha" type="matrix" values="0 0 0 0 0 0 0 0 0 0 0 0 0 0 0 0 0 0 127 0" result="hardAlpha"/>
<feOffset dy="4"/>
<feGaussianBlur stdDeviation="5"/>
<feComposite in2="hardAlpha" operator="out"/>
<feColorMatrix type="matrix" values="0 0 0 0 0.60842 0 0 0 0 0.734602 0 0 0 0 0.895833 0 0 0 0.4 0"/>
<feBlend mode="normal" in2="BackgroundImageFix" result="effect1_dropShadow_2511_175505"/>
<feBlend mode="normal" in="SourceGraphic" in2="effect1_dropShadow_2511_175505" result="shape"/>
</filter>
</defs>
</svg>
