<svg width="198" height="162" viewBox="0 0 198 162" fill="none" xmlns="http://www.w3.org/2000/svg">
    <path d="M41.9503 158C31.441 158 22.4886 154.487 15.0932 147.46C7.69772 140.043 4 131.26 4 121.11C4 116.426 4.58385 111.741 5.75155 107.057C7.30849 101.982 10.0331 95.346 13.9255 87.1483L53.0435 4H88.0745L64.7205 91.8327C74.8406 99.64 79.9006 109.399 79.9006 121.11C79.9006 131.26 76.0083 140.043 68.2236 147.46C60.8282 154.487 52.0704 158 41.9503 158ZM145.876 158C135.366 158 126.414 154.487 119.019 147.46C111.623 140.043 107.925 131.26 107.925 121.11C107.925 116.426 108.509 111.741 109.677 107.057C111.234 101.982 113.959 95.346 117.851 87.1483L156.969 4H192L168.646 91.8327C178.766 99.64 183.826 109.399 183.826 121.11C183.826 131.26 179.934 140.043 172.149 147.46C164.754 154.487 155.996 158 145.876 158Z" stroke="white" stroke-width="8"/>
</svg>

