<svg width="60" height="5" viewBox="0 0 60 5" fill="none" xmlns="http://www.w3.org/2000/svg">
<mask id="mask0_2918_123732" style="mask-type:alpha" maskUnits="userSpaceOnUse" x="0" y="0" width="60" height="5">
<rect width="60" height="5" fill="#D9D9D9"/>
</mask>
<g mask="url(#mask0_2918_123732)">
<path d="M-2.69141 5L-0.792368 2.5C0.161971 1.24365 2.05137 1.24365 3.00571 2.5V2.5C3.96005 3.75635 5.84945 3.75635 6.80379 2.5V2.5C7.75812 1.24365 9.64752 1.24365 10.6019 2.5V2.5C11.5562 3.75635 13.4456 3.75635 14.3999 2.5V2.5C15.3543 1.24365 17.2437 1.24365 18.198 2.5V2.5C19.1524 3.75635 21.0418 3.75635 21.9961 2.5V2.5C22.9504 1.24365 24.8398 1.24365 25.7942 2.5V2.5C26.7485 3.75635 28.6379 3.75635 29.5922 2.5V2.5C30.5466 1.24365 32.436 1.24365 33.3903 2.5V2.5C34.3447 3.75635 36.2341 3.75635 37.1884 2.5V2.5C38.1427 1.24365 40.0321 1.24365 40.9865 2.5V2.5C41.9408 3.75635 43.8302 3.75635 44.7846 2.5V2.5C45.7389 1.24365 47.6283 1.24365 48.5826 2.5V2.5C49.537 3.75635 51.4264 3.75635 52.3807 2.5V2.5C53.335 1.24365 55.2244 1.24365 56.1788 2.5V2.5C57.1331 3.75635 59.0225 3.75635 59.9769 2.5V2.5C60.9312 1.24365 62.8206 1.24365 63.7749 2.5V2.5C64.7293 3.75635 66.6187 3.75635 67.573 2.5V2.5C68.5273 1.24365 70.4167 1.24365 71.3711 2.5V2.5C72.3254 3.75635 74.2148 3.75635 75.1692 2.5V2.5C76.1235 1.24365 78.0129 1.24365 78.9672 2.5V2.5C79.9216 3.75635 81.811 3.75635 82.7653 2.5V2.5C83.7197 1.24365 85.6091 1.24365 86.5634 2.5L88.4624 5" stroke="#007C81"/>
</g>
</svg>
