<svg width="116" height="5" viewBox="0 0 116 5" fill="none" xmlns="http://www.w3.org/2000/svg">
<path d="M-5.13281 5L0.898706 1.47468C2.45739 0.56366 4.38614 0.563661 5.94482 1.47468L9.45328 3.52532C11.012 4.43634 12.9407 4.43634 14.4994 3.52532L18.0079 1.47468C19.5665 0.56366 21.4953 0.563661 23.054 1.47468L26.5624 3.52532C28.1211 4.43634 30.0499 4.43634 31.6085 3.52532L35.117 1.47468C36.6757 0.56366 38.6044 0.563661 40.1631 1.47468L43.6716 3.52532C45.2302 4.43634 47.159 4.43634 48.7177 3.52532L52.2261 1.47468C53.7848 0.56366 55.7136 0.563661 57.2723 1.47468L60.7807 3.52532C62.3394 4.43634 64.2681 4.43634 65.8268 3.52532L69.3353 1.47468C70.894 0.56366 72.8227 0.563661 74.3814 1.47468L77.8899 3.52532C79.4485 4.43634 81.3773 4.43634 82.936 3.52532L86.4444 1.47468C88.0031 0.56366 89.9319 0.563661 91.4905 1.47468L94.999 3.52532C96.5577 4.43634 98.4864 4.43634 100.045 3.52532L103.554 1.47468C105.112 0.56366 107.041 0.563661 108.6 1.47468L112.108 3.52532C113.667 4.43634 115.596 4.43634 117.154 3.52532L120.663 1.47468C122.221 0.56366 124.15 0.563661 125.709 1.47468L129.217 3.52532C130.776 4.43634 132.705 4.43634 134.263 3.52532L137.772 1.47468C139.331 0.56366 141.259 0.563661 142.818 1.47468L146.326 3.52532C147.885 4.43634 149.814 4.43634 151.373 3.52532L154.881 1.47468C156.44 0.56366 158.368 0.563661 159.927 1.47468L163.436 3.52532C164.994 4.43634 166.923 4.43634 168.482 3.52532L171.99 1.47468C173.549 0.56366 175.478 0.563661 177.036 1.47468L180.545 3.52532C182.103 4.43634 184.032 4.43634 185.591 3.52532L189.099 1.47468C190.658 0.56366 192.587 0.563661 194.145 1.47468L200.177 5" stroke="#007C81"/>
</svg>
