<svg width="56" height="56" viewBox="0 0 56 56" fill="none" xmlns="http://www.w3.org/2000/svg">
<path d="M46.4695 37.5307C44.9387 39.0614 42.4565 39.0614 40.9257 37.5307L34.1674 30.772C32.6363 29.2413 32.6363 26.7593 34.1674 25.2285L40.9257 18.47C42.4565 16.9391 44.9387 16.9391 46.4695 18.47L53.2281 25.2284C54.7589 26.7593 54.7589 29.2413 53.2281 30.772L46.4695 37.5307ZM15.0739 37.5307C13.543 39.0614 11.061 39.0614 9.53014 37.5307L2.77168 30.772C1.24082 29.2413 1.24082 26.7593 2.77168 25.2285L9.53014 18.47C11.061 16.9391 13.543 16.9391 15.0739 18.47L21.8323 25.2284C23.3632 26.7593 23.3632 29.2413 21.8323 30.772L15.0739 37.5307ZM30.7718 53.2283C29.2408 54.7594 26.7588 54.7594 25.228 53.2283L18.4695 46.47C16.9386 44.9392 16.9386 42.457 18.4695 40.9262L25.228 34.1679C26.7588 32.6368 29.2408 32.6368 30.7718 34.1679L37.5302 40.9262C39.0609 42.457 39.0609 44.9392 37.5302 46.47L30.7718 53.2283ZM30.7718 21.8328C29.2408 23.3637 26.7588 23.3637 25.228 21.8328L18.4695 15.0743C16.9386 13.5435 16.9386 11.0615 18.4695 9.53062L25.228 2.77217C26.7588 1.24131 29.2408 1.24131 30.7718 2.77216L37.5302 9.53062C39.0609 11.0615 39.0609 13.5435 37.5302 15.0743L30.7718 21.8328Z" fill="#F4CC00"/>
</svg>
