<svg width="164" height="40" viewBox="0 0 164 40" fill="none" xmlns="http://www.w3.org/2000/svg">
<g clip-path="url(#clip0_2212_61005)">
<path fill-rule="evenodd" clip-rule="evenodd" d="M12.6522 6.80067C25.6837 -0.839685 34.3298 -2.1984 38.8006 3.51959C43.814 9.93188 43.8231 30.2508 38.7063 36.5992C34.209 42.1793 25.5926 40.7866 12.6522 33.1995C-4.21741 23.3087 -4.21741 16.6915 12.6522 6.80067Z" fill="#007C81"/>
<path fill-rule="evenodd" clip-rule="evenodd" d="M34.6734 6.80073C21.6422 -0.839624 12.9958 -2.19834 8.52531 3.51965C3.5116 9.93194 3.5028 30.2509 8.61952 36.5993C13.1169 42.1794 21.7333 40.7866 34.6734 33.1995C51.5433 23.3087 51.5433 16.6915 34.6734 6.80073Z" fill="#E31E24"/>
<path d="M25.3009 31.2717C24.4564 31.2717 23.7428 31.0086 23.1597 30.4826C22.5766 29.9568 22.2904 29.3137 22.3007 28.5542L22.2971 22.8999L15.2592 30.0444C14.6746 30.8626 13.8438 31.2717 12.7663 31.2717C11.9803 31.2717 11.3266 31.0745 10.8058 30.68C10.2848 30.2854 9.97531 29.7376 9.87748 29.0363C9.84487 28.8025 9.86842 28.5031 9.94839 28.1379C10.0284 27.7727 10.1513 27.4571 10.3687 27.2391L15.4479 22.1547C15.3925 22.1349 15.0597 22.1147 14.7077 22.0939C13.6468 22.0318 13.2319 21.8957 12.2842 21.1388C11.9231 20.8502 11.61 20.5243 11.3455 20.1604C10.6969 19.2692 10.2848 18.1954 10.1094 16.9388C9.77059 14.5135 10.305 12.5556 11.7127 11.0654C13.1207 9.57528 15.4114 8.83008 18.585 8.83008H25.3107C26.1552 8.83008 26.877 9.10047 27.4767 9.641C28.0764 10.1815 28.3688 10.8171 28.3543 11.5475L28.3277 28.5542C28.3173 29.3137 28.0215 29.9568 27.4397 30.4826C26.8581 31.0086 26.1451 31.2717 25.3009 31.2717ZM36.7313 14.6852C36.8631 13.9088 37.5978 13.3868 38.3714 13.5192C39.1447 13.6514 39.665 14.3889 39.5332 15.165C39.3559 16.2081 39.1885 17.2489 39.0373 18.2832C40.3637 18.3271 41.6198 18.4533 42.5727 18.7658C43.3189 19.0092 43.7268 19.8136 43.4842 20.5624C43.242 21.311 42.4402 21.7206 41.694 21.4773C40.965 21.2383 39.8653 21.1471 38.6659 21.1196C38.514 22.4414 38.3869 23.8131 38.2951 25.2495C38.2459 26.0355 37.5712 26.6324 36.7883 26.5833C36.0051 26.5339 35.4103 25.8568 35.4593 25.0711C35.5449 23.7365 35.6648 22.4245 35.8097 21.131L35.7999 21.1313C34.599 21.1521 33.5019 21.171 32.7311 21.1113C31.9482 21.0531 31.361 20.3684 31.4189 19.5824C31.4772 18.7967 32.1594 18.2073 32.9423 18.2655C33.6659 18.3219 34.6634 18.3045 35.7551 18.2855L36.1712 18.2785C36.3467 17.0291 36.5354 15.8387 36.7313 14.6852ZM16.0323 16.1936C16.0934 16.632 16.3387 17.0338 16.7684 17.399C17.198 17.7645 17.9949 17.9471 19.1595 17.9471H22.3041L22.2963 13.8268H18.6714C16.6915 13.8268 15.8118 14.6159 16.0323 16.1936Z" fill="#FEFEFE"/>
<path fill-rule="evenodd" clip-rule="evenodd" d="M65.1212 25.6604C65.1212 25.9467 65.1535 26.1672 65.2182 26.3233C65.2832 26.4791 65.3738 26.596 65.4902 26.674C65.6067 26.7521 65.7426 26.8041 65.8979 26.8301C66.0534 26.856 66.2087 26.9077 66.364 26.9859C66.9595 27.2197 67.2572 27.7134 67.2572 28.467C67.2572 29.0906 67.0501 29.5841 66.6357 29.948C66.2216 30.3119 65.4967 30.4937 64.4612 30.4937C63.736 30.4937 63.1146 30.3769 62.597 30.1428C62.0791 29.9091 61.6 29.4805 61.1598 28.8568C60.4351 29.4545 59.6517 29.8961 58.8103 30.1821C57.9686 30.4678 57.0043 30.6109 55.9168 30.6109C53.6385 30.6109 51.9168 30.0519 50.7517 28.9348C49.5865 27.8173 49.0039 26.3233 49.0039 24.4524V24.3355C49.0039 20.3598 51.5672 18.372 56.6935 18.372C57.2116 18.372 57.7228 18.398 58.2277 18.45C58.7327 18.5019 59.2438 18.6058 59.7617 18.7619V17.5146C59.7617 15.7216 58.778 14.825 56.8102 14.825C56.2664 14.825 55.8068 14.8834 55.4315 15.0006C55.056 15.1174 54.6742 15.2668 54.2857 15.4486C54.1305 15.5006 53.9361 15.5787 53.7032 15.6826C53.4702 15.7865 53.1723 15.8385 52.81 15.8385C52.3956 15.8385 52.046 15.7671 51.7613 15.6239C51.4766 15.4811 51.2434 15.2993 51.0622 15.0785C50.8811 14.8574 50.7517 14.6107 50.674 14.338C50.5961 14.0652 50.5573 13.8117 50.5573 13.5777C50.5573 13.006 50.7517 12.5125 51.1399 12.0966C51.5284 11.681 52.0398 11.3431 52.6741 11.0834C53.3085 10.8236 54.0205 10.635 54.8101 10.5182C55.5997 10.4013 56.3958 10.3428 57.1984 10.3428C60.0208 10.3428 62.0468 11.0249 63.2766 12.3891C64.5062 13.7533 65.1212 15.7606 65.1212 18.411V25.6604ZM57.0043 22.1526C56.4347 22.1526 55.9753 22.211 55.6256 22.3282C55.276 22.4451 55.0042 22.6074 54.8101 22.8152C54.6157 23.0233 54.4866 23.2635 54.4216 23.5365C54.3569 23.8092 54.3246 24.0885 54.3246 24.3744V24.4913C54.3246 25.1409 54.5189 25.602 54.9072 25.875C55.2956 26.148 55.9041 26.2841 56.7326 26.2841C57.2502 26.2841 57.7551 26.2129 58.2471 26.0698C58.7391 25.9269 59.2438 25.6604 59.7617 25.2708V22.4645C58.7262 22.2568 57.8071 22.1526 57.0043 22.1526ZM83.9184 10.6545C84.6693 10.6545 85.3036 10.8886 85.8215 11.3561C86.3394 11.8239 86.5982 12.3956 86.5982 13.0712V28.1942C86.5982 28.8696 86.3394 29.4413 85.8215 29.9091C85.3036 30.3769 84.6693 30.6109 83.9184 30.6109C83.1676 30.6109 82.5333 30.3769 82.0154 29.9091C81.4975 29.4413 81.2387 28.8696 81.2387 28.1942V15.059H75.7239V28.1942C75.7239 28.8696 75.4649 29.4413 74.947 29.9091C74.4294 30.3769 73.7948 30.6109 73.0442 30.6109C72.2931 30.6109 71.659 30.3769 71.1412 29.9091C70.6233 29.4413 70.3642 28.8696 70.3642 28.1942V13.0712C70.3642 12.3956 70.6233 11.8239 71.1412 11.3561C71.659 10.8886 72.2931 10.6545 73.0442 10.6545H83.9184ZM100.424 28.1942C100.424 28.8696 100.165 29.4413 99.6475 29.9091C99.1296 30.3769 98.4955 30.6109 97.7445 30.6109C96.9936 30.6109 96.3593 30.3769 95.8414 29.9091C95.3238 29.4413 95.0647 28.8696 95.0647 28.1942V15.3317H92.1909C91.4657 15.3317 90.8575 15.1109 90.3655 14.6691C89.8735 14.2273 89.6276 13.6689 89.6276 12.9933C89.6276 12.3177 89.8735 11.759 90.3655 11.3171C90.8575 10.8753 91.4657 10.6545 92.1909 10.6545H103.298C104.023 10.6545 104.631 10.8753 105.124 11.3171C105.615 11.759 105.862 12.3177 105.862 12.9933C105.862 13.6689 105.615 14.2273 105.124 14.6691C104.631 15.1109 104.023 15.3317 103.298 15.3317H100.424V28.1942ZM116.697 22.8934C116.179 22.8934 115.694 22.8736 115.241 22.8347C114.788 22.796 114.276 22.7375 113.707 22.6594V23.9456C113.707 24.6212 113.959 25.1539 114.464 25.5435C114.969 25.9334 115.752 26.1285 116.813 26.1285C117.435 26.1285 118.017 26.0568 118.561 25.9139C119.105 25.7711 119.688 25.5568 120.309 25.2708C120.387 25.2189 120.516 25.1669 120.697 25.115C120.878 25.063 121.137 25.037 121.474 25.037C121.94 25.037 122.328 25.1085 122.639 25.2513C122.95 25.3942 123.196 25.5695 123.377 25.7776C123.558 25.9854 123.688 26.2129 123.765 26.4597C123.843 26.7064 123.882 26.9469 123.882 27.1807C123.882 27.8563 123.61 28.415 123.066 28.8568C122.523 29.2984 121.862 29.6493 121.085 29.9091C120.309 30.1691 119.493 30.3509 118.639 30.4548C117.785 30.5587 117.047 30.6109 116.425 30.6109C115.131 30.6109 113.985 30.4353 112.988 30.0844C111.991 29.7337 111.15 29.2529 110.464 28.6423C109.777 28.0316 109.253 27.3108 108.891 26.4791C108.528 25.6477 108.347 24.7511 108.347 23.7898V17.2806C108.347 16.2933 108.522 15.3772 108.871 14.5328C109.221 13.6883 109.745 12.9543 110.444 12.3307C111.143 11.707 112.011 11.2197 113.046 10.8688C114.082 10.5182 115.273 10.3428 116.619 10.3428C119.183 10.3428 121.092 10.9535 122.348 12.1745C123.603 13.3959 124.231 14.9941 124.231 16.9689C124.231 18.8398 123.636 20.2949 122.445 21.3341C121.254 22.3736 119.338 22.8934 116.697 22.8934ZM118.911 16.6959C118.911 15.9164 118.71 15.3577 118.309 15.02C117.907 14.6821 117.331 14.5133 116.581 14.5133C115.648 14.5133 114.936 14.7406 114.445 15.1954C113.953 15.6499 113.707 16.2673 113.707 17.0466V18.7227C114.328 18.7746 114.898 18.8139 115.415 18.8398C115.933 18.8655 116.296 18.8788 116.503 18.8788C117.254 18.8788 117.843 18.7227 118.27 18.411C118.697 18.0993 118.911 17.5273 118.911 16.6959ZM133.242 23.0882V28.1942C133.242 28.8696 132.983 29.4413 132.465 29.9091C131.947 30.3769 131.313 30.6109 130.562 30.6109C129.811 30.6109 129.177 30.3769 128.659 29.9091C128.141 29.4413 127.882 28.8696 127.882 28.1942V12.8372C127.882 12.1878 128.141 11.6291 128.659 11.1613C129.177 10.6935 129.811 10.4597 130.562 10.4597C131.313 10.4597 131.947 10.6935 132.465 11.1613C132.983 11.6291 133.242 12.1878 133.242 12.8372V18.0211H133.785L138.523 11.5901C139.067 10.8626 139.805 10.4987 140.737 10.4987C141.462 10.4987 142.064 10.6935 142.543 11.0834C143.022 11.473 143.287 12.0057 143.339 12.6813C143.339 12.8891 143.301 13.1231 143.223 13.3831C143.145 13.6429 143.042 13.8766 142.912 14.0844L138.018 20.5547L142.912 27.0249C143.042 27.2327 143.145 27.4667 143.223 27.7264C143.301 27.9862 143.339 28.2202 143.339 28.428C143.287 29.1036 143.022 29.6363 142.543 30.0259C142.064 30.4158 141.462 30.6109 140.737 30.6109C139.805 30.6109 139.067 30.247 138.523 29.5192L133.785 23.0882H133.242ZM161.864 25.6604C161.864 25.9467 161.897 26.1672 161.961 26.3233C162.026 26.4791 162.117 26.596 162.233 26.674C162.35 26.7521 162.486 26.8041 162.641 26.8301C162.797 26.856 162.952 26.9077 163.107 26.9859C163.703 27.2197 164 27.7134 164 28.467C164 29.0906 163.793 29.5841 163.379 29.948C162.965 30.3119 162.24 30.4937 161.204 30.4937C160.479 30.4937 159.858 30.3769 159.34 30.1428C158.822 29.9091 158.343 29.4805 157.903 28.8568C157.178 29.4545 156.395 29.8961 155.554 30.1821C154.712 30.4678 153.748 30.6109 152.66 30.6109C150.382 30.6109 148.66 30.0519 147.495 28.9348C146.33 27.8173 145.747 26.3233 145.747 24.4524V24.3355C145.747 20.3598 148.31 18.372 153.437 18.372C153.955 18.372 154.466 18.398 154.971 18.45C155.476 18.5019 155.987 18.6058 156.505 18.7619V17.5146C156.505 15.7216 155.521 14.825 153.553 14.825C153.01 14.825 152.55 14.8834 152.175 15.0006C151.799 15.1174 151.417 15.2668 151.029 15.4486C150.874 15.5006 150.679 15.5787 150.446 15.6826C150.213 15.7865 149.916 15.8385 149.553 15.8385C149.139 15.8385 148.789 15.7671 148.505 15.6239C148.22 15.4811 147.987 15.2993 147.805 15.0785C147.624 14.8574 147.495 14.6107 147.417 14.338C147.339 14.0652 147.301 13.8117 147.301 13.5777C147.301 13.006 147.495 12.5125 147.883 12.0966C148.272 11.681 148.783 11.3431 149.417 11.0834C150.052 10.8236 150.764 10.635 151.553 10.5182C152.343 10.4013 153.139 10.3428 153.942 10.3428C156.764 10.3428 158.79 11.0249 160.02 12.3891C161.249 13.7533 161.864 15.7606 161.864 18.411V25.6604ZM153.748 22.1526C153.178 22.1526 152.719 22.211 152.369 22.3282C152.019 22.4451 151.747 22.6074 151.553 22.8152C151.359 23.0233 151.23 23.2635 151.165 23.5365C151.1 23.8092 151.068 24.0885 151.068 24.3744V24.4913C151.068 25.1409 151.262 25.602 151.65 25.875C152.039 26.148 152.647 26.2841 153.476 26.2841C153.993 26.2841 154.498 26.2129 154.99 26.0698C155.482 25.9269 155.987 25.6604 156.505 25.2708V22.4645C155.469 22.2568 154.55 22.1526 153.748 22.1526Z" fill="#E31E24"/>
</g>
<defs>
<clipPath id="clip0_2212_61005">
<rect width="164" height="40" fill="white"/>
</clipPath>
</defs>
</svg>
