<svg width="160" height="55" viewBox="0 0 160 55" fill="none" xmlns="http://www.w3.org/2000/svg">
<g clip-path="url(#clip0_260_21175)">
<path fill-rule="evenodd" clip-rule="evenodd" d="M16.4909 9.40323C16.1387 9.26993 15.3646 7.61466 15.6141 5.33536C15.7353 4.12612 16.1215 2.95804 16.7455 1.91346C17.4079 1.16419 17.992 1.51297 18.2849 2.52577C18.8581 3.62587 19.5753 4.53115 20.0288 4.95156C20.8384 5.70156 21.006 5.90958 22.2732 6.59659C22.7884 6.87638 22.9287 7.58243 22.9017 7.96769C22.8807 8.26945 22.2751 8.41593 21.474 8.05997C20.7822 7.75236 20.0063 7.20303 19.1424 6.28018C18.2831 5.36318 17.4421 4.46376 17.4421 4.46376C17.4421 4.46376 16.9251 5.19326 17.2117 6.48233C17.8068 9.15714 18.7078 9.3051 17.9786 9.39885C17.2058 9.49699 16.9943 9.59366 16.4909 9.40323Z" fill="white"/>
<path fill-rule="evenodd" clip-rule="evenodd" d="M6.04754 23.0825C5.44287 23.1279 4.41943 22.6489 3.07423 21.5546C2.00443 20.6831 1.28244 19.6489 0.35277 17.8163C-0.51891 15.4784 0.282851 15.1444 2.20196 16.0146C3.11144 16.4271 4.10648 16.6184 5.10491 16.5727C6.27186 16.5507 6.88477 16.4145 7.53684 16.1259C8.07395 15.89 9.35939 16.9067 9.00716 17.2861C8.32551 18.0199 6.65942 18.2719 5.39989 18.2587C3.68376 18.2397 2.94456 18.0375 2.94456 18.0375C2.94456 18.0375 3.51757 19.9521 5.25887 20.8105C7.08775 21.7128 7.31958 21.2602 7.61941 21.9282C7.94442 22.6533 6.89022 23.0195 6.04754 23.0825Z" fill="white"/>
<path fill-rule="evenodd" clip-rule="evenodd" d="M10.7959 40.2475C10.4573 40.7485 9.43815 41.018 6.71861 41.1601C5.65705 41.2143 3.64874 40.5742 2.57098 39.997C0.681315 39.0171 0.713852 38.4897 2.39436 37.6987C3.12562 37.4189 4.4006 36.8256 5.08623 36.2851C6.54727 35.1352 6.70904 34.3955 7.43588 33.206C7.7413 32.708 9.4302 32.248 9.64834 32.7167C9.86457 33.1826 9.50601 33.6162 9.04161 34.3574C8.33508 35.4868 7.79974 36.1694 7.04214 36.8447C5.37444 38.3344 4.44696 38.7431 4.44696 38.7431C4.44696 38.7431 5.67691 39.5297 7.73159 39.3964C9.82423 39.2602 9.82747 38.4648 10.5405 38.6421C11.3134 38.8354 11.267 39.5503 10.7959 40.2475Z" fill="white"/>
<path fill-rule="evenodd" clip-rule="evenodd" d="M24.6439 49.2433C24.6926 49.8439 23.5159 51.3542 22.5134 52.28C21.9209 52.8264 19.9299 53.7829 18.8119 54.1594C15.6914 55.2126 16.9777 53.2351 17.5146 52.3386C18.0381 51.4641 18.0487 50.3185 18.0773 49.6286C18.1151 48.5451 17.9189 47.4661 17.5018 46.4645C17.3631 46.1261 17.6266 45.8039 18.0227 45.404C18.2608 45.1623 18.6029 44.6715 18.7772 44.7594C19.2376 44.9894 19.3983 45.6325 19.5937 46.4835C19.8688 47.6833 20.0074 48.6706 19.8377 49.6696C19.464 51.8683 19.0255 52.0178 19.0255 52.0178C19.0255 52.0178 21.0618 51.5007 21.7935 50.7931C23.528 49.1115 23.0511 48.3556 23.4752 47.9308C24.038 47.3683 24.5762 48.404 24.6439 49.2433Z" fill="white"/>
<path fill-rule="evenodd" clip-rule="evenodd" d="M40.9971 43.716C41.459 44.1072 41.7535 45.3025 41.9538 47.6316C42.096 49.2795 41.5954 50.4001 41.001 51.5046C39.6193 54.0725 39.1518 53.1907 38.6839 51.4871C38.4849 50.7708 37.5753 49.8948 37.09 49.2356C36.3031 48.1648 35.6276 47.6667 34.5234 47.0588C34.0097 46.7746 33.7976 44.9333 34.2904 44.7707C34.7793 44.6081 35.242 45.0578 35.9292 45.5998C36.9763 46.4275 37.1067 46.4114 37.7376 47.2068C38.4517 48.1293 39.1137 49.0908 39.7203 50.0867C40.2375 49.0481 40.3884 47.8665 40.1485 46.7322C39.6067 44.2009 38.7555 44.2961 39.0138 43.612C39.2942 42.8679 40.3527 43.1711 40.9971 43.716Z" fill="white"/>
<path fill-rule="evenodd" clip-rule="evenodd" d="M33.3801 6.63507C33.2636 6.27911 33.7172 4.46856 35.5359 3.06084C37.2098 1.76591 38.3795 1.41229 39.5287 1.14789C41.6742 0.654232 41.029 1.71918 40.6503 2.40312C40.2127 3.17276 39.9134 4.01251 39.766 4.88457C39.461 6.52666 39.4432 7.22393 39.4301 7.65167C39.4121 8.23615 39.3902 8.86604 38.6025 9.41536C38.1808 9.70979 37.8026 9.51788 37.7263 8.83526C37.6674 8.30059 37.5882 8.53059 37.6839 7.27375C37.7334 6.62335 38.0111 5.30352 38.2497 4.41729C38.4695 3.5999 38.7915 2.98905 37.3171 3.88701C36.519 4.39233 35.8497 5.07534 35.3622 5.88214C34.4426 7.32209 34.3724 8.66095 34.0337 8.01202C33.7752 7.57327 33.5564 7.11247 33.3801 6.63507Z" fill="white"/>
<path fill-rule="evenodd" clip-rule="evenodd" d="M49.1222 30.4135C49.4687 30.2656 51.4231 30.8207 52.9976 32.4936C54.3006 33.8793 54.8228 34.9516 55.1374 35.9975C55.8929 37.9736 55.1141 38.0234 54.0278 37.2998C53.5301 37.0618 53.0013 36.8947 52.4568 36.8032C50.5001 36.5322 49.7909 37.0039 49.0158 37.0991C48.4327 37.1694 48.9489 36.9189 48.429 36.4765C48.0377 36.1425 48.3787 35.6958 48.7701 35.5859C49.209 35.4614 49.4701 35.3061 50.3745 35.2124C51.3598 35.1044 52.3559 35.1503 53.3269 35.3486C53.3269 35.3486 52.5898 33.9526 50.3315 32.5302C48.8823 31.6176 47.1317 31.852 47.7505 31.4565C47.7879 31.433 48.5269 30.6684 49.1222 30.4135Z" fill="white"/>
<path fill-rule="evenodd" clip-rule="evenodd" d="M45.6072 15.566C45.6692 15.1954 46.6988 14.2286 48.9971 14.0675C51.3107 13.9049 52.9501 14.4468 53.9582 14.9698C55.9874 16.0201 54.582 16.505 53.9768 16.6895C52.9784 16.9957 52.1317 17.2799 51.662 17.6402C50.3414 18.6539 50.0235 19.108 49.6082 19.7657C49.2959 20.2608 49.1582 20.085 48.4851 20.2066C47.9783 20.2989 47.5412 20.4044 47.8852 19.6016C48.0967 19.1065 48.2567 18.8429 49.0398 17.8526C49.8186 16.8668 51.6851 15.8238 51.6851 15.8238C51.6851 15.8238 49.9906 15.2701 47.4576 16.1182C45.8317 16.6617 46.525 17.3121 45.6436 17.022C45.6003 17.0074 45.4307 16.6207 45.6072 15.566Z" fill="white"/>
<path fill-rule="evenodd" clip-rule="evenodd" d="M29.3326 35.5354C28.3222 36.073 25.943 35.4871 23.8084 34.2463C21.7662 33.0583 19.9519 30.5197 20.0756 27.2019C20.2924 21.3776 24.6727 18.7834 27.7002 18.3923C31.3135 17.925 37.7314 19.6725 37.8536 26.4108C37.9627 32.4153 33.1515 33.9226 29.9449 33.366C27.2822 32.9045 24.9198 30.5417 25.644 27.1799C26.335 23.9704 29.0925 23.8415 30.419 24.3776C32.7569 25.3254 32.0381 28.2829 31.3155 27.8127C30.6404 27.3732 31.0064 26.4826 29.9361 26.2526C28.7769 26.0021 27.749 26.1926 27.4056 27.8581C26.9666 29.9909 29.2897 32.0652 32.3253 31.343C34.3906 30.8523 35.7955 29.3391 35.87 26.8078C35.9371 24.5256 34.9894 21.7292 32.0724 20.8459C26.7247 19.2287 24.0131 21.9636 22.7139 24.5051C21.739 26.4123 22.0612 28.8425 22.8628 30.3308C23.6694 31.8279 24.4571 32.6321 25.5417 33.3879C26.3782 33.9709 30.1208 35.1164 29.3326 35.5354Z" fill="white"/>
<path fill-rule="evenodd" clip-rule="evenodd" d="M24.6615 13.2077C25.0752 12.3083 25.391 10.839 24.6997 9.00506C23.6482 6.21305 24.1179 5.01335 24.5462 3.73014C24.9806 2.42788 26.4624 1.25453 27.064 0.549648C28.2951 -0.438247 28.9603 -0.134432 29.0175 1.80679C29.0493 2.88199 29.2228 3.59976 29.7682 4.68521C31.2435 7.62077 33.4127 7.33513 34.1457 11.6418C34.5898 14.2507 33.9526 14.1335 33.2242 14.1335C32.0721 14.1335 32.8778 12.5764 31.7266 9.92205C30.9066 8.03093 29.8237 8.43817 28.501 6.63347C27.5166 5.29167 27.3875 3.07974 27.3875 3.07974C27.3875 3.07974 25.1843 4.36295 26.0819 7.28972C26.9182 10.0173 27.2438 10.902 26.7737 12.4445C26.4571 13.4802 26.1777 14.3913 25.6484 15.049C24.8378 16.0554 24.3905 16.4406 23.9321 15.7302C23.5862 15.1955 24.0436 14.551 24.6615 13.2077Z" fill="white"/>
<path fill-rule="evenodd" clip-rule="evenodd" d="M16.2096 20.3422C15.8809 19.4091 14.9041 18.2899 13.0302 17.6908C10.1788 16.7782 9.11677 15.7762 8.19136 14.1693C7.52178 13.0062 7.29201 11.4535 7.21826 10.0868C7.18205 8.4725 7.81631 7.7225 9.19787 9.01304C9.98359 9.74693 11.243 10.5013 12.4478 10.7518C15.6766 11.4242 17.1245 9.85532 20.972 11.9588C23.3034 13.2318 22.8941 13.8368 22.4418 14.4051C21.7265 15.3046 20.9212 13.5277 18.1156 12.7777C16.1173 12.243 15.2842 12.9623 13.0426 12.8744C11.374 12.8085 9.59941 11.4769 9.59941 11.4769C9.59941 11.4769 9.39997 14.2133 12.2636 15.3309C14.9312 16.3724 16.0826 16.9188 17.0349 17.9794C17.7603 18.7865 18.1415 20.1942 18.3799 21.0028C18.7844 22.3739 18.0945 23.1562 17.2876 22.8969C16.3501 22.5981 16.8334 22.1147 16.2096 20.3422Z" fill="white"/>
<path fill-rule="evenodd" clip-rule="evenodd" d="M21.5266 40.217C20.2111 40.8367 19.2389 41.5222 18.2624 43.2244C16.7757 45.8113 15.5629 46.3343 14.2389 46.7723C13.1202 47.1429 11.5184 47.3582 10.5296 47.219C7.77089 47.0183 7.82565 46.0281 9.5746 44.8489C10.2618 44.386 10.8811 43.5335 11.2904 42.6062C12.618 39.6018 11.4781 37.3782 14.0215 34.3064C15.1166 32.9836 15.8358 32.9162 16.3012 33.4743C17.0372 34.3562 15.7993 34.6799 14.4828 37.258C13.545 39.0935 14.079 40.053 13.5298 42.218C13.1209 43.8279 11.7074 45.1067 11.7074 45.1067C11.7074 45.1067 14.2097 45.9534 15.8995 43.3972C17.4745 41.0139 18.2234 39.7542 19.4629 39.0452C20.4072 38.5061 21.7546 38.0813 22.5981 38.0168C24.0303 37.9055 24.8216 38.5002 24.4011 39.2327C23.9129 40.0823 23.1366 39.4583 21.5266 40.217Z" fill="white"/>
<path fill-rule="evenodd" clip-rule="evenodd" d="M32.3737 41.8632C31.9596 43.2519 32.2924 44.3139 32.7077 46.2285C33.302 48.9707 33.0893 49.8057 32.3332 51.4976C31.899 52.4702 31.1936 53.6187 30.3891 54.1826C28.9483 55.6152 28.5328 55.0571 28.3487 53.3608C28.22 51.7803 27.2625 49.8071 26.6776 49.1333C25.1397 47.3638 23.5592 47.3081 22.9904 43.413C22.6077 40.7939 23.2967 40.6855 24.0247 40.7133C25.1758 40.7573 24.4681 42.2646 25.5177 44.9614C26.2653 46.8804 27.2519 46.5156 28.5057 48.3672C29.4385 49.7456 29.8122 51.8433 29.8122 51.8433C29.8122 51.8433 31.5853 50.2407 31.0625 47.456C30.5361 44.6538 30.1589 43.9726 30.2076 42.5502C30.259 41.0546 30.6286 40.3017 31.0972 39.6C32.0855 38.1205 33.6341 36.5546 34.3624 37.3559C35.0223 38.0825 32.8805 40.1626 32.3737 41.8632Z" fill="white"/>
<path fill-rule="evenodd" clip-rule="evenodd" d="M14.8391 30.3216C13.8075 29.9012 12.2306 30.1722 10.6921 30.6131C7.81419 31.4393 6.75131 31.681 4.9872 31.0907C3.82157 30.701 2.40454 30.1283 1.48252 29.2362C-0.534029 27.6102 0.501484 26.9261 2.62107 26.9803C3.72502 26.8587 4.69266 26.4237 5.57597 25.9212C8.43859 24.2894 8.1576 21.9632 12.4371 20.992C15.0301 20.4032 15.0704 21.2601 15.1115 21.9837C15.1764 23.1278 12.833 22.4437 10.9708 23.4925C9.17043 24.5077 9.10685 25.6166 7.37233 27.0316C6.08114 28.0863 3.89767 28.3763 3.89767 28.3763C3.89767 28.3763 5.31235 30.0961 8.54398 29.1542C11.2937 28.3529 12.3667 28.1009 13.7866 28.2635C14.8681 28.3895 15.9725 28.5521 16.8052 29.3417C17.8444 30.329 18.8821 31.6752 18.2699 32.2582C17.2549 33.2264 16.4431 30.9735 14.8391 30.3216Z" fill="white"/>
<path fill-rule="evenodd" clip-rule="evenodd" d="M32.9939 15.8828C32.6641 16.8687 34.9472 17.2861 36.9387 15.9985C39.2427 14.5073 39.7034 11.9849 41.8922 10.4951C43.5084 9.39501 45.5737 9.81248 45.5737 9.81248C45.5737 9.81248 43.5099 10.8716 43.049 13.2783C42.5881 15.6851 42.5996 16.9214 42.0674 18.291C41.2263 20.4546 40.6827 19.9229 40.7325 20.4693C40.8043 21.2603 41.8089 21.4961 42.671 20.5616C43.3892 19.7837 44.3679 17.7095 44.4314 15.7686C44.4812 14.2466 44.9637 12.5488 45.5916 11.9453C46.2157 11.3447 47.2718 10.2622 47.9629 10.1099C48.654 9.95751 49.3932 8.95409 48.0234 8.51756C46.8703 7.98289 45.2101 7.85984 43.4401 8.20701C41.4038 8.60545 39.791 9.46386 38.7543 10.9536C37.7177 12.4434 37.4002 13.5903 36.0165 14.5073C34.6329 15.4243 33.2244 15.1958 32.9939 15.8828Z" fill="white"/>
<path fill-rule="evenodd" clip-rule="evenodd" d="M39.8515 22.02C39.0172 22.6426 40.6402 24.2422 43.0141 24.3096C45.7607 24.3887 46.5484 22.9165 49.197 23.0527C51.6159 23.1772 52.2361 24.3726 52.2361 24.3726C51.532 24.4849 50.8602 24.746 50.2661 25.1384C49.672 25.5308 49.1692 26.0454 48.7917 26.6475C47.8428 28.1372 46.8252 28.6162 45.5469 29.3487C43.2723 30.6524 41.5741 29.7866 41.4353 30.7564C41.3262 31.5181 42.3283 32.2271 44.723 31.7071C45.7606 31.4815 47.525 30.6524 48.9866 29.2066C49.9996 28.2046 50.2872 27.4649 51.035 26.8247C51.4935 26.4336 52.8525 25.9092 53.7295 25.7847C54.6362 25.978 55.8286 25.8316 54.2277 23.7573C53.6129 22.959 52.8736 22.3657 51.6539 21.8296C49.8386 21.0298 48.9088 20.8511 47.2041 21.4883C45.4995 22.1255 44.5399 22.7378 42.8783 22.71C41.2166 22.6821 40.4343 21.5849 39.8515 22.02Z" fill="white"/>
<path fill-rule="evenodd" clip-rule="evenodd" d="M39.8342 31.1917C38.8078 31.0071 38.729 33.4022 40.2931 35.1805C42.1028 37.2386 44.2389 36.8973 46.0322 38.8426C46.8302 39.7111 47.42 40.7483 47.7571 41.8763C47.7571 41.8763 46.6209 40.7689 43.6382 40.4305C41.9736 40.2415 41.2379 40.6444 38.6441 40.139C36.5392 39.7303 36.2684 38.6639 35.4596 39.222C34.8246 39.66 34.432 40.0072 36.4433 41.4017C37.3149 42.0052 39.3709 42.3231 41.43 42.2337C43.8587 42.1268 44.9462 42.4198 46.2393 43.3324C46.6252 43.6048 47.5459 44.2538 47.8346 44.6185C48.8084 45.8212 49.7481 46.1302 49.7679 43.681C49.7482 42.9999 49.778 41.3783 49.3794 40.3133C48.4328 37.785 47.1862 36.9749 45.5559 36.1663C43.9255 35.3577 42.6809 35.0457 41.5722 33.8152C40.4635 32.5848 40.5505 31.3221 39.8342 31.1917Z" fill="white"/>
<path fill-rule="evenodd" clip-rule="evenodd" d="M64.5581 16.5137C64.5581 17.2183 64.8819 17.561 65.5671 17.5405C67.1568 17.4907 68.1577 17.4966 68.1577 17.4966C68.1577 17.4966 70.6541 17.6856 71.8847 19.0039C72.7443 19.9268 73.4552 20.7471 73.5097 23.1495C73.5465 24.8091 73.5641 26.1539 73.5641 26.1539C73.5641 26.1539 73.3227 28.1446 72.8296 28.9693C72.2924 29.8658 71.5917 30.6085 71.2267 30.8458C70.3494 31.4141 67.906 31.524 67.906 31.524H65.8306C65.8306 31.524 64.8214 31.7862 64.7337 32.5714C64.646 33.3565 65.6111 33.6524 65.6111 33.6524C65.6111 33.6524 67.3698 33.6744 68.29 33.6744C69.2103 33.6744 71.7771 33.2159 72.7736 32.3751C73.483 31.776 74.113 31.1856 74.7268 29.876C75.3406 28.5665 75.6144 26.3502 75.6144 26.3502L75.6365 23.0293C75.6365 23.0293 75.5275 19.9634 74.4736 18.6538C73.4197 17.3442 72.7633 16.7759 71.5342 16.2515C70.3051 15.7271 68.2562 15.5762 68.2562 15.5762L65.5237 15.6187C65.5237 15.6187 64.5581 15.7285 64.5581 16.5137Z" fill="white"/>
<path fill-rule="evenodd" clip-rule="evenodd" d="M82.3936 16.2938L77.0402 32.2094C77.0402 32.2094 76.865 33.1923 77.7202 33.2582C78.7049 33.3329 78.9051 33.1923 79.2348 32.2753C79.5646 31.3583 84.3675 16.6879 84.3675 16.6879C84.3675 16.6879 85.0254 15.7049 83.7095 15.639C82.3936 15.5731 82.3936 16.2938 82.3936 16.2938Z" fill="white"/>
<path fill-rule="evenodd" clip-rule="evenodd" d="M84.3674 22.1885L87.5924 32.5377C87.5924 32.5377 87.7234 33.3228 88.8421 33.2584C89.9607 33.1939 89.8518 32.8658 89.4573 31.4244C89.0628 29.983 85.7495 20.0938 85.7495 20.0938C85.7495 20.0938 85.355 18.6523 84.9591 18.6523C84.5631 18.6523 84.4336 19.8315 84.3011 20.356C84.1687 20.8804 84.1039 21.207 84.3674 22.1885Z" fill="white"/>
<path fill-rule="evenodd" clip-rule="evenodd" d="M92.2864 16.5561V30.4312C92.2864 30.4312 92.3085 31.9707 92.7044 32.4951C93.1004 33.0195 93.5994 33.3887 94.2617 33.3887H97.8179C97.8179 33.3887 100.712 33.3887 101.895 32.5376C103.079 31.6865 104.002 30.7227 103.859 27.8325C103.728 25.1474 102.749 24.3447 101.972 23.8262C101.421 23.4585 100.239 22.8872 98.9896 22.8872H96.527C96.527 22.8872 95.6718 23.2153 95.6718 23.8042C95.6718 24.393 95.875 24.8149 96.7316 24.7871C97.8429 24.7505 97.6531 24.7095 99.1662 24.7768C100.316 24.8266 101.869 26.167 101.895 27.8223C101.922 29.3955 101.691 30.0195 100.977 30.8047C100.453 31.3804 99.0043 31.5401 98.4744 31.5195C97.5898 31.4829 97.2483 31.5078 96.3931 31.5078C95.5379 31.5078 94.8946 31.5342 94.5664 31.272C94.2382 31.0098 94.3618 30.3623 94.3618 30.3623V16.622C94.3618 16.622 94.4531 15.7827 93.2667 15.8354C92.3247 15.8779 92.2864 16.5561 92.2864 16.5561Z" fill="white"/>
<path fill-rule="evenodd" clip-rule="evenodd" d="M108.85 22.7129H113.918C113.918 22.7129 115.037 22.7788 114.97 23.8921C114.923 24.6787 113.983 24.875 113.983 24.875L108.784 24.9395C108.784 24.9395 107.534 24.9395 107.534 23.8262C107.534 22.7129 108.85 22.7129 108.85 22.7129Z" fill="white"/>
<path fill-rule="evenodd" clip-rule="evenodd" d="M117.538 15.5957L130.305 15.5752C130.305 15.5752 131.16 15.5752 131.16 16.4263C131.171 16.6529 131.095 16.8751 130.949 17.049C130.803 17.2229 130.596 17.3358 130.37 17.3653H117.58C117.58 17.3653 116.51 17.689 116.55 16.5127C116.587 15.4492 117.538 15.5957 117.538 15.5957Z" fill="white"/>
<path fill-rule="evenodd" clip-rule="evenodd" d="M134.013 17.2107L137.559 24.157C137.559 24.157 137.738 24.4573 137.924 24.8323C138.211 25.4168 138.437 25.4988 138.652 25.4812C139.022 25.4519 139.14 25.1062 139.413 24.554C139.586 24.1013 139.605 23.7571 139.444 23.4187C139.237 22.9792 139.104 22.5237 138.633 21.6682C137.987 20.4758 135.92 16.4914 135.92 16.4914C135.92 16.4914 135.72 15.781 134.669 15.7707C133.483 15.7575 133.486 16.3596 134.013 17.2107Z" fill="white"/>
<path fill-rule="evenodd" clip-rule="evenodd" d="M143.731 16.5564L137.347 32.5379C137.347 32.5379 136.886 33.5208 137.675 33.5852C138.597 33.6614 139.057 33.7171 139.584 32.6038C140.111 31.4905 145.902 16.4919 145.902 16.4919C145.902 16.4919 146.361 15.528 144.98 15.5749C143.86 15.6115 143.731 16.5564 143.731 16.5564Z" fill="white"/>
<path fill-rule="evenodd" clip-rule="evenodd" d="M150.363 19.0234L150.312 32.3418C150.312 32.3418 150.259 33.3672 149.272 33.3672C148.286 33.3672 148.163 32.3638 148.163 32.3638L148.183 17.4736C148.183 17.4736 148.241 16.5273 148.579 16.142C149.04 15.6176 149.851 15.5971 149.851 15.5971H154.42C154.42 15.5971 156.757 15.4243 158.038 16.4379C159.285 17.4223 159.981 18.7832 159.997 20.5527C160.015 22.3882 159.416 23.7827 158.454 24.6353C157.375 25.5903 155.873 25.8467 155.873 25.8467L152.313 25.9009C152.313 25.9009 151.567 25.6094 151.547 24.8315C151.53 24.2324 151.925 23.8252 152.446 23.8252C153.235 23.8252 154.382 23.8296 154.382 23.8296C154.382 23.8296 156.132 23.8486 156.987 22.9975C157.527 22.4599 157.687 21.5913 157.673 20.6831C157.66 19.8466 157.549 18.9692 157.19 18.4668C156.489 17.4897 155.612 17.5322 154.122 17.4794C152.724 17.4311 151.717 17.4794 151.717 17.4794C151.717 17.4794 151.003 17.3857 150.63 17.7768C150.275 18.146 150.381 18.7275 150.363 19.0234Z" fill="white"/>
<path fill-rule="evenodd" clip-rule="evenodd" d="M123.774 18.7187C124.825 18.6586 124.863 19.5697 124.863 19.5697V32.7344C124.863 32.7344 124.638 33.6294 123.717 33.6953C122.795 33.7612 122.772 32.6611 122.772 32.6611V19.5053C122.828 19.2822 122.956 19.0839 123.138 18.9415C123.319 18.7992 123.543 18.7208 123.774 18.7187Z" fill="white"/>
<path fill-rule="evenodd" clip-rule="evenodd" d="M66.2033 23.3858H71.2791C71.2791 23.3858 72.2506 23.3712 72.1844 24.4845C72.1314 25.3736 71.2703 25.3766 71.2703 25.3766L65.9401 25.3693C65.9401 25.3693 64.6897 25.2945 64.8871 24.2472C65.0845 23.1998 66.2033 23.3858 66.2033 23.3858Z" fill="white"/>
</g>
<defs>
<clipPath id="clip0_260_21175">
<rect width="160" height="55" fill="white"/>
</clipPath>
</defs>
</svg>
