<svg width="146" height="50" viewBox="0 0 146 50" fill="none" xmlns="http://www.w3.org/2000/svg">
<g clip-path="url(#clip0_1061_8232)">
<path fill-rule="evenodd" clip-rule="evenodd" d="M14.9898 8.54999C14.6696 8.42881 13.9658 6.92402 14.1927 4.85192C14.3029 3.75261 14.654 2.69073 15.2213 1.74111C15.8234 1.05995 16.3544 1.37702 16.6207 2.29775C17.1417 3.29784 17.7938 4.12082 18.2061 4.50301C18.942 5.18484 19.0945 5.37394 20.2464 5.9985C20.7148 6.25285 20.8423 6.89472 20.8178 7.24495C20.7987 7.51928 20.2482 7.65245 19.5198 7.32885C18.8909 7.04919 18.1856 6.54981 17.4003 5.71085C16.6191 4.87722 15.8545 4.05956 15.8545 4.05956C15.8545 4.05956 15.3845 4.72274 15.645 5.89462C16.1861 8.32627 17.0051 8.46078 16.3422 8.54601C15.6397 8.63523 15.4474 8.72311 14.9898 8.54999Z" fill="#FFB018"/>
<path fill-rule="evenodd" clip-rule="evenodd" d="M5.49621 20.981C4.94651 21.0223 4.01611 20.5869 2.7932 19.5921C1.82065 18.7998 1.1643 17.8596 0.319146 16.1936C-0.47329 14.0683 0.255584 13.7647 2.00023 14.5557C2.82703 14.9307 3.73161 15.1046 4.63928 15.0631C5.70014 15.0431 6.25733 14.9192 6.85012 14.6569C7.3384 14.4425 8.50698 15.3667 8.18677 15.7116C7.56709 16.3788 6.05246 16.6078 4.90743 16.5958C3.34732 16.5785 2.67532 16.3947 2.67532 16.3947C2.67532 16.3947 3.19624 18.1352 4.77924 18.9156C6.44186 19.7359 6.65261 19.3244 6.92518 19.9317C7.22064 20.5909 6.26228 20.9238 5.49621 20.981Z" fill="#FFB018"/>
<path fill-rule="evenodd" clip-rule="evenodd" d="M9.81411 36.5901C9.50634 37.0455 8.57983 37.2905 6.10751 37.4197C5.14246 37.469 3.31672 36.8871 2.33695 36.3624C0.619067 35.4715 0.648646 34.9921 2.17638 34.273C2.84116 34.0186 4.00024 33.4793 4.62353 32.9879C5.95175 31.9425 6.09881 31.27 6.75958 30.1887C7.03724 29.7359 8.5726 29.3178 8.77091 29.7439C8.96748 30.1674 8.64151 30.5616 8.21934 31.2354C7.57704 32.2621 7.09036 32.8827 6.40163 33.4966C4.88554 34.8509 4.04238 35.2224 4.04238 35.2224C4.04238 35.2224 5.16052 35.9376 7.0284 35.8164C8.93081 35.6925 8.93376 34.9694 9.58194 35.1306C10.2846 35.3063 10.2424 35.9562 9.81411 36.5901Z" fill="#FFB018"/>
<path fill-rule="evenodd" clip-rule="evenodd" d="M22.4039 44.7654C22.4482 45.3114 21.3785 46.6844 20.4671 47.526C19.9285 48.0227 18.1185 48.8923 17.1022 49.2345C14.2653 50.192 15.4347 48.3943 15.9227 47.5793C16.3987 46.7843 16.4083 45.7429 16.4343 45.1157C16.4687 44.1306 16.2903 43.1497 15.9111 42.2392C15.785 41.9316 16.0246 41.6386 16.3847 41.2751C16.6012 41.0553 16.9121 40.6092 17.0706 40.6892C17.4891 40.8982 17.6353 41.4828 17.8128 42.2565C18.0629 43.3472 18.189 44.2447 18.0347 45.1529C17.6949 47.1518 17.2963 47.2876 17.2963 47.2876C17.2963 47.2876 19.1475 46.8175 19.8126 46.1743C21.3895 44.6456 20.9559 43.9584 21.3415 43.5722C21.8532 43.0609 22.3424 44.0024 22.4039 44.7654Z" fill="#FFB018"/>
<path fill-rule="evenodd" clip-rule="evenodd" d="M37.2685 39.7396C37.6884 40.0951 37.9562 41.1818 38.1383 43.2991C38.2675 44.7973 37.8124 45.816 37.2721 46.8201C36.016 49.1545 35.591 48.3529 35.1656 46.8041C34.9847 46.1529 34.1578 45.3566 33.7166 44.7573C33.0012 43.7839 32.3872 43.3311 31.3833 42.7784C30.9163 42.5201 30.7235 40.8462 31.1715 40.6984C31.616 40.5505 32.0366 40.9594 32.6614 41.4521C33.6133 42.2045 33.7319 42.1898 34.3054 42.9129C34.9546 43.7516 35.5563 44.6257 36.1078 45.531C36.578 44.5869 36.7151 43.5127 36.4971 42.4815C36.0045 40.1803 35.2307 40.2669 35.4655 39.645C35.7204 38.9685 36.6827 39.2442 37.2685 39.7396Z" fill="#FFB018"/>
<path fill-rule="evenodd" clip-rule="evenodd" d="M30.3476 6.03295C30.2416 5.70935 30.654 4.06339 32.3074 2.78364C33.8291 1.60644 34.8925 1.28497 35.9372 1.0446C37.8876 0.595822 37.3011 1.56396 36.9568 2.18572C36.559 2.88539 36.2869 3.6488 36.1529 4.44158C35.8756 5.9344 35.8594 6.56828 35.8475 6.95713C35.8312 7.48847 35.8112 8.0611 35.0952 8.56048C34.7119 8.82815 34.368 8.65369 34.2986 8.03312C34.2451 7.54706 34.1731 7.75614 34.2601 6.61356C34.3051 6.02229 34.5576 4.82245 34.7745 4.01678C34.9743 3.2737 35.267 2.71839 33.9266 3.53471C33.2011 3.99409 32.5927 4.61501 32.1495 5.34846C31.3134 6.65751 31.2496 7.87465 30.9417 7.28472C30.7067 6.88586 30.5079 6.46695 30.3476 6.03295Z" fill="#FFB018"/>
<path fill-rule="evenodd" clip-rule="evenodd" d="M44.6565 27.6497C44.9715 27.5152 46.7483 28.0199 48.1796 29.5407C49.3642 30.8005 49.8389 31.7753 50.1249 32.7261C50.8117 34.5225 50.1037 34.5678 49.1162 33.9099C48.6637 33.6936 48.183 33.5417 47.688 33.4585C45.9091 33.2121 45.2644 33.6409 44.5598 33.7275C44.0297 33.7914 44.499 33.5637 44.0264 33.1615C43.6706 32.8579 43.9806 32.4518 44.3364 32.3519C44.7355 32.2387 44.9728 32.0975 45.795 32.0123C46.6907 31.9142 47.5963 31.9559 48.479 32.1361C48.479 32.1361 47.8088 30.867 45.7559 29.574C44.4384 28.7443 42.847 28.9574 43.4095 28.5979C43.4435 28.5766 44.1154 27.8814 44.6565 27.6497Z" fill="#FFB018"/>
<path fill-rule="evenodd" clip-rule="evenodd" d="M41.4621 14.1507C41.5185 13.8138 42.4545 12.9349 44.5438 12.7884C46.6471 12.6406 48.1375 13.1333 49.054 13.6087C50.8987 14.5635 49.6211 15.0043 49.0708 15.1721C48.1632 15.4505 47.3935 15.7088 46.9665 16.0364C45.7659 16.9579 45.4769 17.3707 45.0994 17.9687C44.8155 18.4188 44.6903 18.259 44.0784 18.3695C43.6177 18.4534 43.2203 18.5493 43.533 17.8195C43.7253 17.3694 43.8707 17.1297 44.5826 16.2295C45.2906 15.3333 46.9875 14.3851 46.9875 14.3851C46.9875 14.3851 45.4471 13.8817 43.1443 14.6528C41.6662 15.1468 42.2964 15.7381 41.4952 15.4744C41.4558 15.4611 41.3017 15.1095 41.4621 14.1507Z" fill="#FFB018"/>
<path fill-rule="evenodd" clip-rule="evenodd" d="M26.667 32.3054C25.7485 32.7942 23.5856 32.2615 21.645 31.1336C19.7885 30.0536 18.1391 27.7458 18.2515 24.7295C18.4486 19.4347 22.4308 17.0763 25.183 16.7208C28.4678 16.296 34.3023 17.8847 34.4134 24.0104C34.5125 29.469 30.1387 30.8393 27.2236 30.3332C24.803 29.9137 22.6554 27.7657 23.3138 24.7095C23.9419 21.7918 26.4487 21.6746 27.6546 22.162C29.78 23.0236 29.1266 25.7123 28.4697 25.2848C27.8559 24.8853 28.1887 24.0756 27.2156 23.8666C26.1618 23.6388 25.2274 23.812 24.9152 25.3261C24.5161 27.265 26.628 29.1507 29.3877 28.4942C31.2652 28.048 32.5424 26.6724 32.6101 24.3713C32.6711 22.2965 31.8095 19.7543 29.1578 18.9513C24.2962 17.4812 21.8311 19.9674 20.65 22.2779C19.7637 24.0117 20.0567 26.221 20.7854 27.574C21.5187 28.935 22.2347 29.6661 23.2208 30.3532C23.9812 30.8832 27.3835 31.9246 26.667 32.3054Z" fill="#FFB018"/>
<path fill-rule="evenodd" clip-rule="evenodd" d="M22.4198 12.0061C22.7959 11.1885 23.083 9.85279 22.4546 8.18553C21.4986 5.64734 21.9256 4.5567 22.315 3.39015C22.7099 2.20628 24.057 1.1396 24.6039 0.498792C25.7231 -0.399294 26.3278 -0.123099 26.3798 1.64165C26.4087 2.6191 26.5665 3.27162 27.0623 4.2584C28.4035 6.92709 30.3755 6.66741 31.0418 10.5826C31.4456 12.9543 30.8663 12.8477 30.204 12.8477C29.1567 12.8477 29.8892 11.4322 28.8426 9.01916C28.0972 7.29996 27.1127 7.67017 25.9103 6.02954C25.0153 4.80972 24.898 2.79888 24.898 2.79888C24.898 2.79888 22.8951 3.96543 23.7111 6.62613C24.4714 9.10572 24.7674 9.91005 24.34 11.3123C24.0522 12.2538 23.7982 13.0821 23.317 13.68C22.5801 14.5949 22.1734 14.9451 21.7568 14.2993C21.4423 13.8132 21.858 13.2273 22.4198 12.0061Z" fill="#FF6301"/>
<path fill-rule="evenodd" clip-rule="evenodd" d="M14.7378 18.4929C14.439 17.6446 13.551 16.6272 11.8474 16.0826C9.2552 15.2529 8.28975 14.342 7.44847 12.8812C6.83976 11.8238 6.63087 10.4122 6.56383 9.16979C6.53091 7.70227 7.10752 7.02046 8.36348 8.19367C9.07777 8.86084 10.2227 9.54666 11.3179 9.77438C14.2532 10.3856 15.5695 8.95939 19.0673 10.8717C21.1867 12.0289 20.8146 12.5789 20.4034 13.0956C19.7532 13.9132 19.0211 12.2979 16.4705 11.6161C14.6539 11.13 13.8965 11.7839 11.8587 11.704C10.3418 11.6441 8.72851 10.4336 8.72851 10.4336C8.72851 10.4336 8.5472 12.9211 11.1505 13.9372C13.5756 14.884 14.6223 15.3808 15.488 16.3449C16.1475 17.0786 16.494 18.3584 16.7108 19.0935C17.0785 20.3399 16.4514 21.0511 15.7178 20.8154C14.8655 20.5437 15.3049 20.1042 14.7378 18.4929Z" fill="#FF6301"/>
<path fill-rule="evenodd" clip-rule="evenodd" d="M19.5694 36.5594C18.3735 37.1227 17.4897 37.7459 16.602 39.2933C15.2505 41.645 14.1479 42.1205 12.9442 42.5186C11.9273 42.8556 10.4711 43.0513 9.57217 42.9248C7.06427 42.7423 7.11405 41.8421 8.704 40.7701C9.32877 40.3493 9.89172 39.5743 10.2639 38.7313C11.4707 36 10.4345 33.9785 12.7466 31.186C13.7422 29.9835 14.396 29.9222 14.8191 30.4296C15.4881 31.2313 14.3628 31.5256 13.166 33.8693C12.3135 35.5379 12.7989 36.4102 12.2997 38.3784C11.9279 39.8419 10.6429 41.0045 10.6429 41.0045C10.6429 41.0045 12.9178 41.7742 14.4539 39.4504C15.8857 37.2838 16.5665 36.1385 17.6934 35.494C18.5518 35.0039 19.7767 34.6178 20.5436 34.5592C21.8456 34.458 22.5649 34.9986 22.1826 35.6645C21.7388 36.4368 21.0331 35.8695 19.5694 36.5594Z" fill="#FF6301"/>
<path fill-rule="evenodd" clip-rule="evenodd" d="M29.4306 38.0568C29.0542 39.3192 29.3568 40.2847 29.7343 42.0252C30.2746 44.5181 30.0812 45.2772 29.3938 46.8153C28.9991 47.6995 28.3579 48.7435 27.6265 49.2562C26.3167 50.5586 25.9389 50.0512 25.7715 48.5091C25.6546 47.0723 24.7842 45.2785 24.2524 44.6659C22.8543 43.0572 21.4174 43.0066 20.9004 39.4657C20.5525 37.0846 21.1788 36.9861 21.8407 37.0114C22.8871 37.0514 22.2437 38.4217 23.1979 40.8733C23.8776 42.6178 24.7745 42.2862 25.9143 43.9694C26.7623 45.2226 27.1021 47.1295 27.1021 47.1295C27.1021 47.1295 28.7139 45.6727 28.2386 43.1411C27.7601 40.5936 27.4172 39.9744 27.4615 38.6813C27.5082 37.3217 27.8442 36.6372 28.2702 35.9993C29.1686 34.6543 30.5765 33.2308 31.2386 33.9592C31.8385 34.6197 29.8914 36.5107 29.4306 38.0568Z" fill="#FF6301"/>
<path fill-rule="evenodd" clip-rule="evenodd" d="M13.4919 27.566C12.554 27.1838 11.1204 27.4302 9.72184 27.831C7.10554 28.5821 6.13929 28.8018 4.53555 28.2652C3.47589 27.9109 2.18768 27.3902 1.34948 26.5792C-0.483749 25.1011 0.457626 24.4792 2.38452 24.5285C3.38811 24.4179 4.26779 24.0224 5.0708 23.5656C7.67318 22.0821 7.41773 19.9674 11.3082 19.0845C13.6654 18.5492 13.7021 19.3282 13.7394 19.9861C13.7984 21.0261 11.6681 20.4042 9.97515 21.3577C8.33849 22.2806 8.28069 23.2887 6.70385 24.5751C5.53004 25.5339 3.54507 25.7975 3.54507 25.7975C3.54507 25.7975 4.83114 27.3609 7.76899 26.5047C10.2687 25.7762 11.2442 25.5472 12.535 25.695C13.5182 25.8095 14.5222 25.9574 15.2792 26.6751C16.2239 27.5727 17.1673 28.7965 16.6108 29.3265C15.688 30.2067 14.95 28.1586 13.4919 27.566Z" fill="#FF6301"/>
<path fill-rule="evenodd" clip-rule="evenodd" d="M29.9939 14.4368C29.6941 15.333 31.7696 15.7125 33.5801 14.542C35.6747 13.1863 36.0935 10.8932 38.0833 9.53888C39.5526 8.53878 41.4301 8.91831 41.4301 8.91831C41.4301 8.91831 39.5539 9.88112 39.1349 12.0691C38.716 14.257 38.7264 15.381 38.2425 16.6261C37.4779 18.593 36.9838 18.1096 37.029 18.6063C37.0943 19.3254 38.0075 19.5398 38.7913 18.6902C39.4442 17.9831 40.3339 16.0974 40.3917 14.3329C40.4369 12.9493 40.8756 11.4059 41.4464 10.8572C42.0138 10.3113 42.9739 9.32714 43.6021 9.18865C44.2304 9.05015 44.9024 8.13795 43.6571 7.74111C42.6088 7.25504 41.0996 7.14318 39.4905 7.45879C37.6393 7.82101 36.1731 8.60137 35.2307 9.95569C34.2882 11.31 33.9996 12.3527 32.7418 13.1864C31.4839 14.02 30.2035 13.8122 29.9939 14.4368Z" fill="#FF6301"/>
<path fill-rule="evenodd" clip-rule="evenodd" d="M36.2286 20.0177C35.4701 20.5836 36.9456 22.0378 39.1037 22.0991C41.6006 22.171 42.3166 20.8326 44.7244 20.9565C46.9235 21.0697 47.4873 22.1563 47.4873 22.1563C46.8472 22.2584 46.2365 22.4958 45.6964 22.8526C45.1563 23.2093 44.6992 23.6771 44.3561 24.2244C43.4934 25.5788 42.5683 26.0142 41.4062 26.6801C39.3384 27.8653 37.7946 27.0782 37.6684 27.9598C37.5692 28.6523 38.4802 29.2968 40.6572 28.8241C41.6005 28.619 43.2045 27.8653 44.5332 26.5509C45.4541 25.64 45.7156 24.9675 46.3954 24.3856C46.8122 24.03 48.0477 23.5533 48.8449 23.4401C49.6692 23.6159 50.7532 23.4827 49.2979 21.597C48.739 20.8713 48.0668 20.3319 46.958 19.8445C45.3077 19.1174 44.4624 18.955 42.9128 19.5343C41.3631 20.1135 40.4908 20.6702 38.9802 20.6449C37.4696 20.6196 36.7583 19.6221 36.2286 20.0177Z" fill="#FF6301"/>
<path fill-rule="evenodd" clip-rule="evenodd" d="M36.2129 28.3568C35.2798 28.189 35.2083 30.3663 36.6301 31.983C38.2754 33.854 40.2172 33.5437 41.8475 35.3122C42.573 36.1017 43.1091 37.0446 43.4156 38.0701C43.4156 38.0701 42.3827 37.0633 39.6712 36.7557C38.1579 36.5839 37.4891 36.9501 35.131 36.4907C33.2175 36.1192 32.9713 35.1497 32.236 35.6571C31.6588 36.0553 31.3019 36.3709 33.1303 37.6386C33.9227 38.1873 35.7918 38.4762 37.6637 38.395C39.8716 38.2978 40.8602 38.5641 42.0358 39.3938C42.3866 39.6415 43.2236 40.2314 43.486 40.563C44.3713 41.6563 45.2256 41.9373 45.2436 39.7107C45.2257 39.0915 45.2527 37.6173 44.8904 36.6492C44.0298 34.3507 42.8966 33.6143 41.4145 32.8792C39.9324 32.1441 38.8008 31.8604 37.793 30.7418C36.7851 29.6232 36.8642 28.4753 36.2129 28.3568Z" fill="#FF6301"/>
<path fill-rule="evenodd" clip-rule="evenodd" d="M58.6875 17.2195C58.6875 17.86 58.9819 18.1716 59.6048 18.153C61.05 18.1077 61.9599 18.113 61.9599 18.113C61.9599 18.113 64.2293 18.2848 65.348 19.4833C66.1295 20.3223 66.7758 21.068 66.8253 23.252C66.8588 24.7608 66.8748 25.9833 66.8748 25.9833C66.8748 25.9833 66.6553 27.793 66.2071 28.5428C65.7187 29.3578 65.0817 30.0329 64.7499 30.2486C63.9523 30.7653 61.7311 30.8652 61.7311 30.8652H59.8443C59.8443 30.8652 58.9269 31.1036 58.8471 31.8174C58.7674 32.5311 59.6448 32.8001 59.6448 32.8001C59.6448 32.8001 61.2436 32.8201 62.0802 32.8201C62.9168 32.8201 65.2502 32.4033 66.1561 31.6389C66.8011 31.0943 67.3738 30.5576 67.9318 29.3671C68.4898 28.1765 68.7387 26.1617 68.7387 26.1617L68.7587 23.1428C68.7587 23.1428 68.6597 20.3556 67.7016 19.1651C66.7435 17.9745 66.1467 17.4578 65.0294 16.9811C63.9121 16.5044 62.0494 16.3672 62.0494 16.3672L59.5653 16.4058C59.5653 16.4058 58.6875 16.5057 58.6875 17.2195Z" fill="#FF6301"/>
<path fill-rule="evenodd" clip-rule="evenodd" d="M74.9036 17.021L70.0369 31.4897C70.0369 31.4897 69.8776 32.3833 70.6551 32.4432C71.5503 32.5111 71.7323 32.3833 72.032 31.5496C72.3318 30.716 76.6981 17.3792 76.6981 17.3792C76.6981 17.3792 77.2962 16.4857 76.0999 16.4257C74.9036 16.3658 74.9036 17.021 74.9036 17.021Z" fill="#FF6301"/>
<path fill-rule="evenodd" clip-rule="evenodd" d="M76.6963 22.3787L79.6282 31.7871C79.6282 31.7871 79.7472 32.5009 80.7642 32.4423C81.7812 32.3837 81.6822 32.0854 81.3236 30.775C80.9649 29.4646 77.9528 20.4744 77.9528 20.4744C77.9528 20.4744 77.5942 19.1641 77.2343 19.1641C76.8743 19.1641 76.7566 20.2361 76.6361 20.7128C76.5157 21.1896 76.4568 21.4865 76.6963 22.3787Z" fill="#FF6301"/>
<path fill-rule="evenodd" clip-rule="evenodd" d="M83.8945 17.2589V29.8726C83.8945 29.8726 83.9146 31.2722 84.2746 31.7489C84.6345 32.2257 85.0881 32.5613 85.6903 32.5613H88.9232C88.9232 32.5613 91.554 32.5613 92.6298 31.7876C93.7057 31.0139 94.5447 30.1376 94.4149 27.5102C94.2958 25.0692 93.4059 24.3395 92.6994 23.8681C92.1989 23.5338 91.1244 23.0144 89.9884 23.0144H87.7497C87.7497 23.0144 86.9722 23.3127 86.9722 23.8481C86.9722 24.3834 87.1569 24.7669 87.9357 24.7416C88.946 24.7083 88.7733 24.6711 90.1489 24.7323C91.194 24.7776 92.6057 25.9961 92.6298 27.5009C92.6539 28.9311 92.4438 29.4984 91.7948 30.2122C91.3184 30.7355 90.0017 30.8807 89.52 30.8621C88.7158 30.8288 88.4053 30.8514 87.6279 30.8514C86.8504 30.8514 86.2657 30.8754 85.9673 30.637C85.6689 30.3986 85.7813 29.81 85.7813 29.81V17.3188C85.7813 17.3188 85.8643 16.5558 84.7857 16.6037C83.9293 16.6423 83.8945 17.2589 83.8945 17.2589Z" fill="#FF6301"/>
<path fill-rule="evenodd" clip-rule="evenodd" d="M98.9541 22.8516H103.561C103.561 22.8516 104.578 22.9115 104.518 23.9236C104.475 24.6387 103.62 24.8171 103.62 24.8171L98.8939 24.8757C98.8939 24.8757 97.7578 24.8757 97.7578 23.8636C97.7578 22.8516 98.9541 22.8516 98.9541 22.8516Z" fill="#FF6301"/>
<path fill-rule="evenodd" clip-rule="evenodd" d="M106.852 16.3858L118.459 16.3672C118.459 16.3672 119.236 16.3672 119.236 17.1409C119.246 17.3469 119.177 17.5489 119.044 17.707C118.911 17.8651 118.723 17.9677 118.518 17.9945H106.891C106.891 17.9945 105.918 18.2888 105.954 17.2195C105.988 16.2527 106.852 16.3858 106.852 16.3858Z" fill="#FF6301"/>
<path fill-rule="evenodd" clip-rule="evenodd" d="M121.827 17.8522L125.051 24.167C125.051 24.167 125.214 24.44 125.382 24.7809C125.643 25.3123 125.849 25.3868 126.045 25.3709C126.381 25.3442 126.488 25.03 126.737 24.5279C126.893 24.1164 126.911 23.8035 126.765 23.4959C126.576 23.0964 126.456 22.6822 126.027 21.9045C125.44 20.8205 123.561 17.1983 123.561 17.1983C123.561 17.1983 123.379 16.5525 122.424 16.5432C121.345 16.5312 121.348 17.0785 121.827 17.8522Z" fill="#FF6301"/>
<path fill-rule="evenodd" clip-rule="evenodd" d="M130.663 17.257L124.859 31.7857C124.859 31.7857 124.44 32.6792 125.158 32.7378C125.995 32.8071 126.414 32.8577 126.893 31.8456C127.372 30.8335 132.636 17.1984 132.636 17.1984C132.636 17.1984 133.054 16.3222 131.799 16.3648C130.78 16.3981 130.663 17.257 130.663 17.257Z" fill="#FF6301"/>
<path fill-rule="evenodd" clip-rule="evenodd" d="M136.692 19.5L136.645 31.6076C136.645 31.6076 136.597 32.5398 135.701 32.5398C134.804 32.5398 134.692 31.6276 134.692 31.6276L134.71 18.0911C134.71 18.0911 134.763 17.2308 135.07 16.8805C135.489 16.4038 136.226 16.3852 136.226 16.3852H140.38C140.38 16.3852 142.505 16.228 143.669 17.1495C144.803 18.0444 145.435 19.2816 145.45 20.8903C145.466 22.5589 144.922 23.8266 144.048 24.6017C143.067 25.4699 141.701 25.7029 141.701 25.7029L138.465 25.7522C138.465 25.7522 137.787 25.4872 137.768 24.7801C137.753 24.2354 138.112 23.8652 138.586 23.8652C139.303 23.8652 140.345 23.8692 140.345 23.8692C140.345 23.8692 141.936 23.8865 142.714 23.1128C143.205 22.6241 143.351 21.8344 143.337 21.0088C143.325 20.2484 143.225 19.4507 142.898 18.9939C142.261 18.1057 141.464 18.1443 140.11 18.0964C138.838 18.0524 137.923 18.0964 137.923 18.0964C137.923 18.0964 137.274 18.0111 136.934 18.3667C136.612 18.7023 136.708 19.231 136.692 19.5Z" fill="#FF6301"/>
<path fill-rule="evenodd" clip-rule="evenodd" d="M112.521 19.2213C113.476 19.1667 113.511 19.995 113.511 19.995V31.9629C113.511 31.9629 113.306 32.7765 112.468 32.8365C111.631 32.8964 111.609 31.8963 111.609 31.8963V19.9364C111.66 19.7336 111.777 19.5534 111.942 19.4239C112.107 19.2945 112.311 19.2233 112.521 19.2213Z" fill="#FF6301"/>
<path fill-rule="evenodd" clip-rule="evenodd" d="M60.1845 23.4647H64.7989C64.7989 23.4647 65.6821 23.4514 65.6218 24.4635C65.5737 25.2718 64.7909 25.2745 64.7909 25.2745L59.9453 25.2679C59.9453 25.2679 58.8085 25.1999 58.988 24.2478C59.1674 23.2956 60.1845 23.4647 60.1845 23.4647Z" fill="#FF6301"/>
</g>
<defs>
<clipPath id="clip0_1061_8232">
<rect width="145.455" height="50" fill="white"/>
</clipPath>
</defs>
</svg>
