<svg width="131" height="6" viewBox="0 0 131 6" fill="none" xmlns="http://www.w3.org/2000/svg">
    <mask id="mask0_3238_35548" style="mask-type:alpha" maskUnits="userSpaceOnUse" x="0" y="0" width="131" height="6">
        <rect y="1" width="131" height="5" fill="#D9D9D9"/>
    </mask>
    <g mask="url(#mask0_3238_35548)">
        <path d="M-5 6L0.760855 2.54349C2.34427 1.59344 4.3224 1.59344 5.90581 2.54349L9.09419 4.45651C10.6776 5.40656 12.6557 5.40656 14.2391 4.45651L17.4275 2.54349C19.0109 1.59344 20.9891 1.59344 22.5725 2.54349L25.7609 4.45651C27.3443 5.40656 29.3224 5.40656 30.9058 4.45651L34.0942 2.54349C35.6776 1.59344 37.6557 1.59344 39.2391 2.54349L42.4275 4.45651C44.0109 5.40656 45.9891 5.40656 47.5725 4.45651L50.7609 2.54349C52.3443 1.59344 54.3224 1.59344 55.9058 2.54349L59.0942 4.45651C60.6776 5.40656 62.6557 5.40656 64.2391 4.45651L67.4275 2.54349C69.0109 1.59344 70.9891 1.59344 72.5725 2.54349L75.7609 4.45651C77.3443 5.40656 79.3224 5.40656 80.9058 4.45651L84.0942 2.54349C85.6776 1.59344 87.6557 1.59344 89.2391 2.54349L92.4275 4.45651C94.0109 5.40656 95.9891 5.40656 97.5725 4.45651L100.761 2.54349C102.344 1.59344 104.322 1.59344 105.906 2.54349L109.094 4.45651C110.678 5.40656 112.656 5.40656 114.239 4.45651L117.428 2.54349C119.011 1.59344 120.989 1.59344 122.572 2.54349L125.761 4.45651C127.344 5.40656 129.322 5.40656 130.906 4.45651L134.094 2.54349C135.678 1.59344 137.656 1.59344 139.239 2.54349L142.428 4.45651C144.011 5.40656 145.989 5.40656 147.572 4.45651L150.761 2.54349C152.344 1.59344 154.322 1.59344 155.906 2.54349L159.094 4.45651C160.678 5.40656 162.656 5.40656 164.239 4.45651L167.428 2.54349C169.011 1.59344 170.989 1.59344 172.572 2.54349L175.761 4.45651C177.344 5.40656 179.322 5.40656 180.906 4.45651L184.094 2.54349C185.678 1.59344 187.656 1.59344 189.239 2.54349L195 6" stroke="#00A3B3"/>
    </g>
</svg>
