<svg width="24" height="24" viewBox="0 0 24 24" fill="none" xmlns="http://www.w3.org/2000/svg">
    <rect x="2" y="2" width="20" height="20" rx="10" fill="#FDB03C" fill-opacity="0.8"/>
    <path fill-rule="evenodd" clip-rule="evenodd" d="M4.53033 0.46967C4.82322 0.762563 4.82322 1.23744 4.53033 1.53033L1.53033 4.53033C1.23744 4.82322 0.762563 4.82322 0.46967 4.53033C0.176777 4.23744 0.176777 3.76256 0.46967 3.46967L3.46967 0.46967C3.76256 0.176777 4.23744 0.176777 4.53033 0.46967ZM2.75 12C2.75 6.89137 6.89137 2.75 12 2.75C17.1086 2.75 21.25 6.89137 21.25 12C21.25 17.1086 17.1086 21.25 12 21.25C6.89137 21.25 2.75 17.1086 2.75 12ZM12 1.25C6.06294 1.25 1.25 6.06294 1.25 12C1.25 17.9371 6.06294 22.75 12 22.75C17.9371 22.75 22.75 17.9371 22.75 12C22.75 6.06294 17.9371 1.25 12 1.25ZM12.75 8C12.75 7.58579 12.4142 7.25 12 7.25C11.5858 7.25 11.25 7.58579 11.25 8V12C11.25 12.2508 11.3753 12.4849 11.584 12.624L14.584 14.624C14.9286 14.8538 15.3943 14.7607 15.624 14.416C15.8538 14.0714 15.7607 13.6057 15.416 13.376L12.75 11.5986V8ZM19.4697 1.53033C19.1768 1.23744 19.1768 0.762563 19.4697 0.46967C19.7626 0.176777 20.2374 0.176777 20.5303 0.46967L23.5303 3.46967C23.8232 3.76256 23.8232 4.23744 23.5303 4.53033C23.2374 4.82322 22.7626 4.82322 22.4697 4.53033L19.4697 1.53033Z" fill="#22272F"/>
</svg>
