<svg width="160" height="55" viewBox="0 0 160 55" fill="none" xmlns="http://www.w3.org/2000/svg">
    <g clip-path="url(#clip0_2094_8042)">
        <path fill-rule="evenodd" clip-rule="evenodd" d="M16.4908 9.4036C16.1385 9.2703 15.3645 7.61503 15.6139 5.33572C15.7352 4.12648 16.1214 2.95841 16.7454 1.91383C17.4078 1.16456 17.9919 1.51334 18.2848 2.52613C18.8579 3.62624 19.5752 4.53151 20.0287 4.95192C20.8383 5.70193 21.0059 5.90994 22.2731 6.59696C22.7883 6.87674 22.9286 7.5828 22.9016 7.96805C22.8806 8.26981 22.275 8.4163 21.4739 8.06034C20.782 7.75272 20.0062 7.2034 19.1423 6.28054C18.283 5.36355 17.4419 4.46413 17.4419 4.46413C17.4419 4.46413 16.925 5.19363 17.2116 6.48269C17.8067 9.15751 18.7077 9.30547 17.9785 9.39922C17.2057 9.49736 16.9942 9.59403 16.4908 9.4036Z" fill="white"/>
        <path fill-rule="evenodd" clip-rule="evenodd" d="M6.04742 23.0822C5.44275 23.1276 4.41931 22.6486 3.07411 21.5544C2.00431 20.6828 1.28232 19.6486 0.352648 17.8161C-0.519032 15.4782 0.282729 15.1442 2.20184 16.0143C3.11132 16.4268 4.10636 16.6181 5.10479 16.5724C6.27174 16.5505 6.88465 16.4142 7.53672 16.1256C8.07383 15.8898 9.35927 16.9064 9.00704 17.2858C8.32538 18.0197 6.6593 18.2717 5.39976 18.2585C3.68363 18.2394 2.94443 18.0373 2.94443 18.0373C2.94443 18.0373 3.51745 19.9518 5.25875 20.8102C7.08763 21.7126 7.31946 21.2599 7.61929 21.9279C7.94429 22.653 6.8901 23.0192 6.04742 23.0822Z" fill="white"/>
        <path fill-rule="evenodd" clip-rule="evenodd" d="M10.796 40.2474C10.4574 40.7484 9.43828 41.0179 6.71873 41.16C5.65717 41.2142 3.64886 40.5741 2.57111 39.9969C0.681437 39.0169 0.713975 38.4896 2.39448 37.6986C3.12574 37.4188 4.40072 36.8255 5.08635 36.285C6.54739 35.1351 6.70916 34.3953 7.436 33.2059C7.74143 32.7078 9.43033 32.2479 9.64847 32.7166C9.86469 33.1824 9.50613 33.616 9.04173 34.3573C8.3352 35.4866 7.79986 36.1693 7.04226 36.8446C5.37456 38.3343 4.44709 38.743 4.44709 38.743C4.44709 38.743 5.67704 39.5296 7.73171 39.3963C9.82436 39.2601 9.8276 38.4647 10.5406 38.6419C11.3135 38.8353 11.2671 39.5501 10.796 40.2474Z" fill="white"/>
        <path fill-rule="evenodd" clip-rule="evenodd" d="M24.6439 49.2432C24.6926 49.8438 23.5159 51.3541 22.5134 52.2799C21.9209 52.8262 19.9299 53.7828 18.8119 54.1592C15.6914 55.2125 16.9777 53.2349 17.5146 52.3384C18.0381 51.4639 18.0487 50.3184 18.0773 49.6285C18.1151 48.5449 17.9189 47.4659 17.5018 46.4644C17.3631 46.126 17.6266 45.8037 18.0227 45.4038C18.2608 45.1621 18.6029 44.6714 18.7772 44.7593C19.2376 44.9893 19.3983 45.6323 19.5937 46.4834C19.8688 47.6831 20.0074 48.6704 19.8377 49.6695C19.464 51.8682 19.0255 52.0176 19.0255 52.0176C19.0255 52.0176 21.0618 51.5005 21.7935 50.793C23.528 49.1114 23.0511 48.3555 23.4752 47.9307C24.038 47.3682 24.5762 48.4039 24.6439 49.2432Z" fill="white"/>
        <path fill-rule="evenodd" clip-rule="evenodd" d="M40.9971 43.7163C41.459 44.1074 41.7535 45.3027 41.9538 47.6318C42.096 49.2798 41.5954 50.4004 41.001 51.5049C39.6193 54.0728 39.1518 53.1909 38.6839 51.4873C38.4849 50.771 37.5753 49.895 37.09 49.2358C36.3031 48.165 35.6276 47.667 34.5234 47.0591C34.0097 46.7749 33.7976 44.9336 34.2904 44.771C34.7793 44.6084 35.242 45.0581 35.9292 45.6001C36.9763 46.4277 37.1067 46.4116 37.7376 47.207C38.4517 48.1296 39.1137 49.0911 39.7203 50.0869C40.2375 49.0483 40.3884 47.8667 40.1485 46.7324C39.6067 44.2011 38.7555 44.2964 39.0138 43.6123C39.2942 42.8681 40.3527 43.1714 40.9971 43.7163Z" fill="white"/>
        <path fill-rule="evenodd" clip-rule="evenodd" d="M33.3803 6.63507C33.2637 6.27911 33.7173 4.46856 35.5361 3.06084C37.2099 1.76591 38.3797 1.41229 39.5288 1.14789C41.6743 0.654232 41.0291 1.71918 40.6504 2.40312C40.2128 3.17276 39.9135 4.01251 39.7661 4.88457C39.4611 6.52666 39.4433 7.22393 39.4302 7.65167C39.4122 8.23615 39.3903 8.86604 38.6027 9.41536C38.181 9.70979 37.8027 9.51788 37.7264 8.83526C37.6676 8.30059 37.5884 8.53059 37.684 7.27375C37.7335 6.62335 38.0113 5.30352 38.2499 4.41729C38.4696 3.5999 38.7917 2.98905 37.3172 3.88701C36.5191 4.39233 35.8499 5.07534 35.3624 5.88214C34.4427 7.32209 34.3725 8.66095 34.0338 8.01202C33.7753 7.57327 33.5566 7.11247 33.3803 6.63507Z" fill="white"/>
        <path fill-rule="evenodd" clip-rule="evenodd" d="M49.1222 30.414C49.4687 30.2661 51.4231 30.8212 52.9976 32.4941C54.3006 33.8798 54.8228 34.9521 55.1374 35.998C55.8929 37.9741 55.1141 38.0239 54.0278 37.3002C53.5301 37.0623 53.0013 36.8952 52.4568 36.8037C50.5001 36.5327 49.7909 37.0043 49.0158 37.0996C48.4327 37.1699 48.9489 36.9194 48.429 36.477C48.0377 36.143 48.3787 35.6962 48.7701 35.5864C49.209 35.4619 49.4701 35.3066 50.3745 35.2128C51.3598 35.1049 52.3559 35.1508 53.3269 35.3491C53.3269 35.3491 52.5898 33.9531 50.3315 32.5307C48.8823 31.6181 47.1317 31.8525 47.7505 31.457C47.7879 31.4335 48.5269 30.6689 49.1222 30.414Z" fill="white"/>
        <path fill-rule="evenodd" clip-rule="evenodd" d="M45.6071 15.5664C45.6691 15.1958 46.6987 14.229 48.997 14.0678C51.3105 13.9052 52.95 14.4472 53.9581 14.9702C55.9873 16.0205 54.5819 16.5053 53.9767 16.6899C52.9782 16.9961 52.1316 17.2802 51.6619 17.6406C50.3413 18.6543 50.0233 19.1084 49.6081 19.7661C49.2958 20.2612 49.1581 20.0854 48.485 20.207C47.9782 20.2993 47.5411 20.4047 47.8851 19.602C48.0966 19.1069 48.2566 18.8432 49.0396 17.853C49.8184 16.8671 51.685 15.8242 51.685 15.8242C51.685 15.8242 49.9905 15.2705 47.4575 16.1186C45.8316 16.6621 46.5248 17.3125 45.6434 17.0224C45.6002 17.0078 45.4306 16.6211 45.6071 15.5664Z" fill="white"/>
        <path fill-rule="evenodd" clip-rule="evenodd" d="M29.3326 35.5351C28.3222 36.0727 25.943 35.4868 23.8084 34.2461C21.7662 33.0581 19.9519 30.5195 20.0756 27.2016C20.2924 21.3774 24.6727 18.7831 27.7002 18.392C31.3135 17.9247 37.7314 19.6723 37.8536 26.4106C37.9627 32.415 33.1515 33.9224 29.9449 33.3657C27.2822 32.9043 24.9198 30.5415 25.644 27.1797C26.335 23.9702 29.0925 23.8413 30.419 24.3774C32.7569 25.3251 32.0381 28.2827 31.3155 27.8125C30.6404 27.373 31.0064 26.4824 29.9361 26.2524C28.7769 26.0019 27.749 26.1923 27.4056 27.8579C26.9666 29.9907 29.2897 32.0649 32.3253 31.3427C34.3906 30.852 35.7955 29.3388 35.87 26.8076C35.9371 24.5253 34.9894 21.7289 32.0724 20.8456C26.7247 19.2284 24.0131 21.9633 22.7139 24.5048C21.739 26.4121 22.0612 28.8423 22.8628 30.3305C23.6694 31.8276 24.4571 32.6318 25.5417 33.3877C26.3782 33.9707 30.1208 35.1162 29.3326 35.5351Z" fill="white"/>
        <path fill-rule="evenodd" clip-rule="evenodd" d="M24.6614 13.2078C25.0751 12.3084 25.3908 10.8392 24.6996 9.00518C23.6481 6.21317 24.1178 5.01347 24.5461 3.73026C24.9805 2.42801 26.4623 1.25466 27.0638 0.54977C28.295 -0.438125 28.9601 -0.13431 29.0174 1.80691C29.0492 2.88211 29.2227 3.59988 29.7681 4.68533C31.2434 7.62089 33.4126 7.33525 34.1456 11.6419C34.5897 14.2508 33.9525 14.1336 33.224 14.1336C32.0719 14.1336 32.8777 12.5765 31.7265 9.92217C30.9065 8.03105 29.8236 8.43829 28.5009 6.63359C27.5165 5.29179 27.3874 3.07986 27.3874 3.07986C27.3874 3.07986 25.1842 4.36307 26.0818 7.28984C26.9181 10.0174 27.2437 10.9022 26.7736 12.4446C26.457 13.4803 26.1776 14.3914 25.6483 15.0492C24.8377 16.0555 24.3904 16.4408 23.932 15.7303C23.5861 15.1956 24.0434 14.5511 24.6614 13.2078Z" fill="white"/>
        <path fill-rule="evenodd" clip-rule="evenodd" d="M16.2097 20.3417C15.881 19.4086 14.9042 18.2894 13.0303 17.6903C10.1789 16.7777 9.11689 15.7758 8.19148 14.1688C7.5219 13.0057 7.29213 11.453 7.21838 10.0863C7.18217 8.47201 7.81644 7.72202 9.19799 9.01255C9.98371 9.74644 11.2431 10.5008 12.4479 10.7513C15.6767 11.4237 17.1247 9.85484 20.9721 11.9584C23.3035 13.2313 22.8942 13.8363 22.4419 14.4047C21.7267 15.3041 20.9214 13.5272 18.1157 12.7772C16.1174 12.2425 15.2843 12.9618 13.0427 12.8739C11.3741 12.808 9.59953 11.4764 9.59953 11.4764C9.59953 11.4764 9.40009 14.2128 12.2637 15.3304C14.9313 16.372 16.0827 16.9183 17.035 17.9789C17.7604 18.786 18.1416 20.1937 18.3801 21.0023C18.7846 22.3734 18.0947 23.1557 17.2877 22.8964C16.3503 22.5976 16.8335 22.1142 16.2097 20.3417Z" fill="white"/>
        <path fill-rule="evenodd" clip-rule="evenodd" d="M21.5266 40.2168C20.2111 40.8364 19.2389 41.522 18.2624 43.2241C16.7757 45.8111 15.5629 46.334 14.2389 46.772C13.1202 47.1426 11.5184 47.3579 10.5296 47.2188C7.77089 47.0181 7.82565 46.0279 9.5746 44.8487C10.2618 44.3858 10.8811 43.5332 11.2904 42.606C12.618 39.6016 11.4781 37.3779 14.0215 34.3061C15.1166 32.9834 15.8358 32.916 16.3012 33.4741C17.0372 34.3559 15.7993 34.6797 14.4828 37.2578C13.545 39.0933 14.079 40.0527 13.5298 42.2178C13.1209 43.8277 11.7074 45.1065 11.7074 45.1065C11.7074 45.1065 14.2097 45.9532 15.8995 43.397C17.4745 41.0137 18.2234 39.7539 19.4629 39.0449C20.4072 38.5059 21.7546 38.081 22.5981 38.0166C24.0303 37.9053 24.8216 38.5 24.4011 39.2324C23.9129 40.082 23.1366 39.458 21.5266 40.2168Z" fill="white"/>
        <path fill-rule="evenodd" clip-rule="evenodd" d="M32.3737 41.8631C31.9596 43.2518 32.2924 44.3138 32.7077 46.2284C33.302 48.9706 33.0893 49.8055 32.3332 51.4974C31.899 52.4701 31.1936 53.6185 30.3891 54.1825C28.9483 55.6151 28.5328 55.057 28.3487 53.3607C28.22 51.7801 27.2625 49.807 26.6776 49.1332C25.1397 47.3636 23.5592 47.308 22.9904 43.4129C22.6077 40.7938 23.2967 40.6854 24.0247 40.7132C25.1758 40.7572 24.4681 42.2645 25.5177 44.9613C26.2653 46.8802 27.2519 46.5155 28.5057 48.3671C29.4385 49.7455 29.8122 51.8431 29.8122 51.8431C29.8122 51.8431 31.5853 50.2406 31.0625 47.4559C30.5361 44.6536 30.1589 43.9725 30.2076 42.5501C30.259 41.0545 30.6286 40.3016 31.0972 39.5999C32.0855 38.1204 33.6341 36.5545 34.3624 37.3558C35.0223 38.0823 32.8805 40.1624 32.3737 41.8631Z" fill="white"/>
        <path fill-rule="evenodd" clip-rule="evenodd" d="M14.839 30.3216C13.8073 29.9012 12.2305 30.1722 10.692 30.6131C7.81407 31.4393 6.75119 31.681 4.98707 31.0907C3.82145 30.701 2.40442 30.1283 1.4824 29.2362C-0.534151 27.6102 0.501362 26.9261 2.62095 26.9803C3.7249 26.8587 4.69254 26.4237 5.57585 25.9212C8.43847 24.2894 8.15748 21.9632 12.437 20.992C15.0299 20.4032 15.0703 21.2601 15.1113 21.9837C15.1763 23.1278 12.8329 22.4437 10.9706 23.4925C9.17031 24.5077 9.10673 25.6166 7.3722 27.0316C6.08102 28.0863 3.89755 28.3763 3.89755 28.3763C3.89755 28.3763 5.31223 30.0961 8.54386 29.1542C11.2936 28.3529 12.3666 28.1009 13.7864 28.2635C14.868 28.3895 15.9724 28.5521 16.8051 29.3417C17.8443 30.329 18.882 31.6752 18.2698 32.2582C17.2548 33.2264 16.443 30.9735 14.839 30.3216Z" fill="white"/>
        <path fill-rule="evenodd" clip-rule="evenodd" d="M32.9939 15.8826C32.6641 16.8684 34.9472 17.2859 36.9387 15.9983C39.2427 14.5071 39.7034 11.9846 41.8922 10.4949C43.5084 9.39476 45.5737 9.81224 45.5737 9.81224C45.5737 9.81224 43.5099 10.8713 43.049 13.2781C42.5881 15.6848 42.5996 16.9212 42.0674 18.2908C41.2263 20.4544 40.6827 19.9226 40.7325 20.469C40.8043 21.26 41.8089 21.4959 42.671 20.5613C43.3892 19.7835 44.3679 17.7093 44.4314 15.7683C44.4812 14.2463 44.9637 12.5486 45.5916 11.9451C46.2157 11.3445 47.2718 10.262 47.9629 10.1096C48.654 9.95726 49.3932 8.95384 48.0234 8.51732C46.8703 7.98265 45.2101 7.8596 43.4401 8.20677C41.4038 8.60521 39.791 9.46361 38.7543 10.9534C37.7177 12.4431 37.4002 13.5901 36.0165 14.5071C34.6329 15.4241 33.2244 15.1956 32.9939 15.8826Z" fill="white"/>
        <path fill-rule="evenodd" clip-rule="evenodd" d="M39.8514 22.0204C39.0171 22.6429 40.6401 24.2425 43.014 24.3099C45.7606 24.389 46.5482 22.9169 49.1968 23.0531C51.6158 23.1776 52.236 24.3729 52.236 24.3729C51.5319 24.4852 50.8601 24.7464 50.266 25.1388C49.6718 25.5312 49.1691 26.0458 48.7916 26.6478C47.8427 28.1376 46.8251 28.6166 45.5467 29.349C43.2722 30.6527 41.574 29.787 41.4352 30.7567C41.3261 31.5185 42.3282 32.2274 44.7229 31.7074C45.7605 31.4818 47.5249 30.6527 48.9865 29.2069C49.9995 28.205 50.2871 27.4652 51.0348 26.8251C51.4934 26.434 52.8524 25.9096 53.7294 25.785C54.6361 25.9784 55.8285 25.8319 54.2276 23.7577C53.6128 22.9594 52.8734 22.3661 51.6538 21.8299C49.8385 21.0301 48.9086 20.8514 47.204 21.4886C45.4993 22.1258 44.5398 22.7382 42.8781 22.7103C41.2165 22.6825 40.4341 21.5853 39.8514 22.0204Z" fill="white"/>
        <path fill-rule="evenodd" clip-rule="evenodd" d="M39.8342 31.1918C38.8078 31.0072 38.729 33.4023 40.2931 35.1806C42.1028 37.2387 44.2389 36.8974 46.0322 38.8427C46.8302 39.7112 47.42 40.7484 47.7571 41.8764C47.7571 41.8764 46.6209 40.769 43.6382 40.4306C41.9736 40.2417 41.2379 40.6445 38.6441 40.1391C36.5392 39.7304 36.2684 38.664 35.4596 39.2221C34.8246 39.6601 34.432 40.0073 36.4433 41.4018C37.3149 42.0054 39.3709 42.3232 41.43 42.2339C43.8587 42.1269 44.9462 42.4199 46.2393 43.3325C46.6252 43.605 47.5459 44.2539 47.8346 44.6186C48.8084 45.8213 49.7481 46.1304 49.7679 43.6811C49.7482 43 49.778 41.3784 49.3794 40.3134C48.4328 37.7851 47.1862 36.975 45.5559 36.1665C43.9255 35.3579 42.6809 35.0458 41.5722 33.8154C40.4635 32.5849 40.5505 31.3222 39.8342 31.1918Z" fill="white"/>
        <path fill-rule="evenodd" clip-rule="evenodd" d="M64.5581 16.5134C64.5581 17.218 64.8819 17.5608 65.5671 17.5403C67.1568 17.4905 68.1577 17.4964 68.1577 17.4964C68.1577 17.4964 70.6541 17.6853 71.8847 19.0037C72.7443 19.9265 73.4552 20.7469 73.5097 23.1492C73.5465 24.8089 73.5641 26.1536 73.5641 26.1536C73.5641 26.1536 73.3227 28.1444 72.8296 28.9691C72.2924 29.8656 71.5917 30.6082 71.2267 30.8455C70.3494 31.4139 67.906 31.5238 67.906 31.5238H65.8306C65.8306 31.5238 64.8214 31.786 64.7337 32.5711C64.646 33.3563 65.6111 33.6522 65.6111 33.6522C65.6111 33.6522 67.3698 33.6742 68.29 33.6742C69.2103 33.6742 71.7771 33.2157 72.7736 32.3748C73.483 31.7757 74.113 31.1854 74.7268 29.8758C75.3406 28.5662 75.6144 26.3499 75.6144 26.3499L75.6365 23.0291C75.6365 23.0291 75.5275 19.9632 74.4736 18.6536C73.4197 17.344 72.7633 16.7757 71.5342 16.2512C70.3051 15.7268 68.2562 15.5759 68.2562 15.5759L65.5237 15.6184C65.5237 15.6184 64.5581 15.7283 64.5581 16.5134Z" fill="white"/>
        <path fill-rule="evenodd" clip-rule="evenodd" d="M82.3937 16.2944L77.0403 32.21C77.0403 32.21 76.8651 33.1929 77.7203 33.2589C78.7051 33.3336 78.9052 33.1929 79.235 32.2759C79.5647 31.3589 84.3676 16.6885 84.3676 16.6885C84.3676 16.6885 85.0255 15.7056 83.7096 15.6396C82.3937 15.5737 82.3937 16.2944 82.3937 16.2944Z" fill="white"/>
        <path fill-rule="evenodd" clip-rule="evenodd" d="M84.3674 22.1889L87.5924 32.538C87.5924 32.538 87.7234 33.3232 88.8421 33.2587C89.9607 33.1943 89.8518 32.8662 89.4573 31.4247C89.0628 29.9833 85.7495 20.0941 85.7495 20.0941C85.7495 20.0941 85.355 18.6527 84.9591 18.6527C84.5631 18.6527 84.4336 19.8319 84.3011 20.3563C84.1687 20.8807 84.1039 21.2074 84.3674 22.1889Z" fill="white"/>
        <path fill-rule="evenodd" clip-rule="evenodd" d="M92.2865 16.5566V30.4316C92.2865 30.4316 92.3086 31.9712 92.7045 32.4956C93.1005 33.02 93.5995 33.3892 94.2618 33.3892H97.818C97.818 33.3892 100.712 33.3892 101.895 32.5381C103.079 31.687 104.002 30.7232 103.859 27.833C103.728 25.1479 102.749 24.3452 101.972 23.8266C101.421 23.459 100.239 22.8877 98.9897 22.8877H96.5272C96.5272 22.8877 95.672 23.2158 95.672 23.8047C95.672 24.3935 95.8751 24.8154 96.7318 24.7876C97.8431 24.751 97.6532 24.7099 99.1663 24.7773C100.316 24.8271 101.869 26.1675 101.895 27.8228C101.922 29.396 101.691 30.02 100.977 30.8052C100.453 31.3809 99.0044 31.5405 98.4745 31.52C97.5899 31.4834 97.2484 31.5083 96.3932 31.5083C95.538 31.5083 94.8948 31.5347 94.5665 31.2725C94.2383 31.0103 94.3619 30.3628 94.3619 30.3628V16.6225C94.3619 16.6225 94.4532 15.7831 93.2668 15.8359C92.3248 15.8784 92.2865 16.5566 92.2865 16.5566Z" fill="white"/>
        <path fill-rule="evenodd" clip-rule="evenodd" d="M108.85 22.7134H113.918C113.918 22.7134 115.037 22.7793 114.971 23.8926C114.923 24.6792 113.983 24.8755 113.983 24.8755L108.784 24.9399C108.784 24.9399 107.534 24.9399 107.534 23.8267C107.534 22.7134 108.85 22.7134 108.85 22.7134Z" fill="white"/>
        <path fill-rule="evenodd" clip-rule="evenodd" d="M117.538 15.5957L130.305 15.5752C130.305 15.5752 131.16 15.5752 131.16 16.4263C131.171 16.6529 131.095 16.8751 130.949 17.049C130.803 17.2229 130.596 17.3358 130.37 17.3653H117.58C117.58 17.3653 116.51 17.689 116.55 16.5127C116.587 15.4492 117.538 15.5957 117.538 15.5957Z" fill="white"/>
        <path fill-rule="evenodd" clip-rule="evenodd" d="M134.013 17.2113L137.559 24.1576C137.559 24.1576 137.738 24.4579 137.924 24.8329C138.211 25.4174 138.438 25.4994 138.652 25.4818C139.022 25.4525 139.14 25.1068 139.413 24.5546C139.586 24.1019 139.605 23.7577 139.444 23.4193C139.237 22.9799 139.104 22.5243 138.633 21.6688C137.987 20.4764 135.921 16.492 135.921 16.492C135.921 16.492 135.72 15.7816 134.669 15.7713C133.483 15.7581 133.486 16.3602 134.013 17.2113Z" fill="white"/>
        <path fill-rule="evenodd" clip-rule="evenodd" d="M143.731 16.5566L137.347 32.5381C137.347 32.5381 136.886 33.521 137.675 33.5855C138.597 33.6617 139.057 33.7173 139.584 32.604C140.111 31.4907 145.902 16.4921 145.902 16.4921C145.902 16.4921 146.361 15.5283 144.98 15.5751C143.86 15.6118 143.731 16.5566 143.731 16.5566Z" fill="white"/>
        <path fill-rule="evenodd" clip-rule="evenodd" d="M150.363 19.0235L150.312 32.342C150.312 32.342 150.259 33.3673 149.272 33.3673C148.286 33.3673 148.163 32.3639 148.163 32.3639L148.183 17.4737C148.183 17.4737 148.241 16.5274 148.579 16.1422C149.04 15.6177 149.851 15.5972 149.851 15.5972H154.42C154.42 15.5972 156.757 15.4244 158.038 16.4381C159.285 17.4224 159.981 18.7833 159.997 20.5528C160.015 22.3883 159.416 23.7828 158.454 24.6354C157.375 25.5905 155.873 25.8468 155.873 25.8468L152.313 25.901C152.313 25.901 151.567 25.6095 151.547 24.8317C151.53 24.2325 151.925 23.8253 152.446 23.8253C153.235 23.8253 154.382 23.8297 154.382 23.8297C154.382 23.8297 156.132 23.8487 156.987 22.9977C157.527 22.4601 157.687 21.5914 157.673 20.6832C157.66 19.8468 157.549 18.9693 157.19 18.4669C156.489 17.4898 155.612 17.5323 154.122 17.4796C152.724 17.4312 151.717 17.4796 151.717 17.4796C151.717 17.4796 151.003 17.3858 150.63 17.7769C150.275 18.1461 150.381 18.7276 150.363 19.0235Z" fill="white"/>
        <path fill-rule="evenodd" clip-rule="evenodd" d="M123.774 18.7187C124.825 18.6586 124.863 19.5697 124.863 19.5697V32.7344C124.863 32.7344 124.638 33.6294 123.717 33.6953C122.795 33.7612 122.772 32.6611 122.772 32.6611V19.5053C122.828 19.2822 122.957 19.0839 123.138 18.9415C123.319 18.7992 123.543 18.7208 123.774 18.7187Z" fill="white"/>
        <path fill-rule="evenodd" clip-rule="evenodd" d="M66.2032 23.3857H71.279C71.279 23.3857 72.2505 23.3711 72.1843 24.4843C72.1313 25.3735 71.2702 25.3764 71.2702 25.3764L65.94 25.3691C65.94 25.3691 64.6896 25.2944 64.887 24.247C65.0844 23.1997 66.2032 23.3857 66.2032 23.3857Z" fill="white"/>
    </g>
    <defs>
        <clipPath id="clip0_2094_8042">
            <rect width="160" height="55" fill="white"/>
        </clipPath>
    </defs>
</svg>
