<svg width="24" height="24" viewBox="0 0 24 24" fill="none" xmlns="http://www.w3.org/2000/svg">
<g clip-path="url(#clip0_3782_13797)">
<mask id="mask0_3782_13797" style="mask-type:alpha" maskUnits="userSpaceOnUse" x="0" y="0" width="24" height="24">
<path d="M12 24C18.6274 24 24 18.6274 24 12C24 5.37258 18.6274 0 12 0C5.37258 0 0 5.37258 0 12C0 18.6274 5.37258 24 12 24Z" fill="#C4C4C4"/>
</mask>
<g mask="url(#mask0_3782_13797)">
<path d="M12 24C18.6274 24 24 18.6274 24 12C24 5.37258 18.6274 0 12 0C5.37258 0 0 5.37258 0 12C0 18.6274 5.37258 24 12 24Z" fill="url(#paint0_linear_3782_13797)"/>
<path d="M16.0789 17.2799C16.7416 17.2799 17.2789 16.7426 17.2789 16.0799C17.2789 15.4171 16.7416 14.8799 16.0789 14.8799C15.4162 14.8799 14.8789 15.4171 14.8789 16.0799C14.8789 16.7426 15.4162 17.2799 16.0789 17.2799Z" fill="white"/>
<path d="M8.84839 17.2802H7.67969V5.76025H10.2007C11.0689 5.76025 11.7256 5.97884 12.1708 6.41602C12.6272 6.85317 12.8553 7.46167 12.8553 8.24148V10.7227C12.8553 11.9279 12.3656 12.6959 11.3861 13.0267L13.4397 17.2802H12.1541L10.2007 13.2039H8.84839V17.2802ZM11.6867 10.7227V8.24148C11.6867 7.79251 11.5586 7.44395 11.3026 7.19583C11.0466 6.94771 10.6793 6.82364 10.2007 6.82364H8.84839V12.1406H10.2007C11.1913 12.1406 11.6867 11.6679 11.6867 10.7227Z" fill="white"/>
</g>
</g>
<defs>
<linearGradient id="paint0_linear_3782_13797" x1="-4.6581e-07" y1="15.6" x2="24" y2="5.76" gradientUnits="userSpaceOnUse">
<stop stop-color="#FF1D38"/>
<stop offset="1" stop-color="#FF008A"/>
</linearGradient>
<clipPath id="clip0_3782_13797">
<rect width="24" height="24" fill="white"/>
</clipPath>
</defs>
</svg>
