<svg width="36" height="36" viewBox="0 0 36 36" fill="none" xmlns="http://www.w3.org/2000/svg">
<mask id="mask0_1986_10355" style="mask-type:alpha" maskUnits="userSpaceOnUse" x="0" y="0" width="36" height="36">
<path d="M18 36C27.9411 36 36 27.9411 36 18C36 8.05888 27.9411 0 18 0C8.05888 0 0 8.05888 0 18C0 27.9411 8.05888 36 18 36Z" fill="#C4C4C4"/>
</mask>
<g mask="url(#mask0_1986_10355)">
<path d="M18 36C27.9411 36 36 27.9411 36 18C36 8.05888 27.9411 0 18 0C8.05888 0 0 8.05888 0 18C0 27.9411 8.05888 36 18 36Z" fill="url(#paint0_linear_1986_10355)"/>
<path d="M24.1203 25.92C25.1144 25.92 25.9203 25.1141 25.9203 24.12C25.9203 23.1259 25.1144 22.32 24.1203 22.32C23.1262 22.32 22.3203 23.1259 22.3203 24.12C22.3203 25.1141 23.1262 25.92 24.1203 25.92Z" fill="white"/>
<path d="M13.2726 25.92H11.5195V8.64005H15.3011C16.6034 8.64005 17.5884 8.96793 18.2562 9.62369C18.9408 10.2794 19.283 11.1922 19.283 12.3619V16.0837C19.283 17.8915 18.5484 19.0435 17.0792 19.5397L20.1595 25.92H18.2312L15.3011 19.8056H13.2726V25.92ZM17.53 16.0837V12.3619C17.53 11.6884 17.338 11.1656 16.954 10.7934C16.57 10.4212 16.019 10.2351 15.3011 10.2351H13.2726V18.2105H15.3011C16.787 18.2105 17.53 17.5016 17.53 16.0837Z" fill="white"/>
</g>
<defs>
<linearGradient id="paint0_linear_1986_10355" x1="-6.98715e-07" y1="23.4" x2="36" y2="8.64" gradientUnits="userSpaceOnUse">
<stop stop-color="#FF1D38"/>
<stop offset="1" stop-color="#FF008A"/>
</linearGradient>
</defs>
</svg>
