<svg width="50" height="50" viewBox="0 0 50 50" fill="none" xmlns="http://www.w3.org/2000/svg">
<path d="M25.0036 0C11.1928 0 0 11.1928 0 24.9964C0 38.8072 11.1928 50 25.0036 50C38.8072 50 50 38.8072 50 24.9964C50 11.1928 38.8072 0 25.0036 0Z" fill="#F6B059"/>
<path d="M22.123 19.226C19.4618 19.226 17.3127 21.3824 17.3127 24.0364C17.3127 26.6903 19.4618 28.8467 22.123 28.8467C24.777 28.8467 26.9261 26.6903 26.9261 24.0364C26.9261 21.3824 24.777 19.226 22.123 19.226ZM25.9669 7.68701C24.3731 7.68701 23.0822 8.97794 23.0822 10.5718C23.0822 12.1656 24.3731 13.4565 25.9669 13.4565C27.5607 13.4565 28.8517 12.1656 28.8517 10.5718C28.8517 8.97794 27.5607 7.68701 25.9669 7.68701ZM32.6956 30.765C30.5753 30.765 28.8517 32.4887 28.8517 34.6162C28.8517 36.7365 30.5753 38.4601 32.6956 38.4601C34.8231 38.4601 36.5468 36.7365 36.5468 34.6162C36.5468 32.4887 34.8231 30.765 32.6956 30.765ZM10.584 24.9955C8.99015 24.9955 7.69922 26.2865 7.69922 27.8803C7.69922 29.4741 8.99015 30.765 10.584 30.765C12.1778 30.765 13.4687 29.4741 13.4687 27.8803C13.4687 26.2865 12.1778 24.9955 10.584 24.9955ZM37.5059 19.226C35.9121 19.226 34.6212 20.517 34.6212 22.1108C34.6212 23.7046 35.9121 24.9955 37.5059 24.9955C39.0998 24.9955 40.3907 23.7046 40.3907 22.1108C40.3907 20.517 39.0998 19.226 37.5059 19.226ZM19.2382 36.5346C18.1709 36.5346 17.3127 37.4 17.3127 38.4601C17.3127 39.5203 18.1709 40.3857 19.2382 40.3857C20.2984 40.3857 21.1566 39.5203 21.1566 38.4601C21.1566 37.4 20.2984 36.5346 19.2382 36.5346Z" fill="#6D420D"/>
</svg>
