<svg width="24" height="24" viewBox="0 0 24 24" fill="none" xmlns="http://www.w3.org/2000/svg">
    <path d="M20.3004 4.28963C18.4571 2.44637 15.3276 2.6 13.2924 4.61602L4.6332 13.2944C2.59803 15.3105 2.4444 18.4592 4.28767 20.3024C6.13094 22.1456 9.26047 21.9921 11.2957 19.976L19.9741 11.2784C21.9901 9.2624 22.1437 6.11363 20.3004 4.28963H20.3004ZM10.3356 18.9968C8.838 20.4944 6.5532 20.648 5.2476 19.3232C3.94207 18.0177 4.09553 15.7328 5.57398 14.2352L9.79798 10.0496C10.3547 12.392 12.198 14.2544 14.5596 14.8112L10.3356 18.9968ZM16.2876 5.46083L15.558 6.19047C15.4235 6.32493 15.27 6.38252 15.0971 6.38252C14.9244 6.38252 14.7516 6.32493 14.6363 6.19047C14.3867 5.94083 14.3867 5.5184 14.6363 5.24963L15.3659 4.52C15.6156 4.27036 16.038 4.27036 16.3068 4.52C16.5373 4.78879 16.5373 5.2112 16.2876 5.46083H16.2876Z" fill="#00A3B3"/>
</svg>
