<svg width="24" height="24" viewBox="0 0 24 24" fill="none" xmlns="http://www.w3.org/2000/svg">
<rect width="24" height="24" fill="white"/>
<circle cx="12" cy="8" r="8" fill="#00A3B3"/>
<path d="M9.75391 24.0001C11.3258 20.1826 11.7188 17.0761 11.7188 16.0001C13.8241 14.9709 18.4276 12.8001 18.3153 12.9124C16.5188 17.1791 11.7188 22.1288 9.75391 24.0001Z" fill="#00A3B3"/>
<path d="M11.7005 11.3521C11.4635 11.3521 11.2632 11.2783 11.0995 11.1306C10.9358 10.9831 10.8555 10.8025 10.8584 10.5893L10.8574 9.00215L8.88184 11.0076C8.71772 11.2373 8.48452 11.3521 8.18208 11.3521C7.96145 11.3521 7.77793 11.2968 7.63176 11.186C7.48552 11.0753 7.39863 10.9215 7.37117 10.7247C7.36202 10.659 7.36863 10.575 7.39108 10.4725C7.41353 10.37 7.44803 10.2814 7.50906 10.2202L8.9348 8.79297C8.91925 8.78743 8.82582 8.78174 8.72702 8.77591C8.42923 8.75848 8.31278 8.72028 8.04674 8.50782C7.94539 8.42681 7.85748 8.33531 7.78324 8.23316C7.60118 7.98301 7.48552 7.6816 7.43627 7.32886C7.34117 6.64809 7.49119 6.09849 7.88633 5.6802C8.28154 5.26191 8.92455 5.05273 9.81538 5.05273H11.7033C11.9404 5.05273 12.143 5.12863 12.3113 5.28036C12.4796 5.43209 12.5617 5.6105 12.5577 5.81552L12.5502 10.5893C12.5473 10.8025 12.4642 10.9831 12.3009 11.1306C12.1377 11.2783 11.9375 11.3521 11.7005 11.3521ZM14.9091 6.69628C14.9461 6.47835 15.1523 6.3318 15.3695 6.36899C15.5865 6.4061 15.7326 6.61309 15.6956 6.83095C15.6458 7.12376 15.5988 7.41591 15.5564 7.70624C15.9287 7.71856 16.2813 7.754 16.5488 7.84171C16.7582 7.91002 16.8727 8.13583 16.8047 8.34603C16.7367 8.55616 16.5116 8.67114 16.3021 8.60282C16.0975 8.53574 15.7888 8.51015 15.4521 8.50242C15.4095 8.87346 15.3738 9.2585 15.348 9.6617C15.3342 9.88233 15.1448 10.0499 14.9251 10.0361C14.7052 10.0222 14.5383 9.83216 14.552 9.61161C14.5761 9.237 14.6097 8.86873 14.6504 8.50563L14.6476 8.5057C14.3105 8.51154 14.0026 8.51686 13.7862 8.50009C13.5665 8.48376 13.4016 8.29157 13.4179 8.07094C13.4342 7.85038 13.6257 7.68495 13.8455 7.70128C14.0486 7.7171 14.3286 7.71222 14.6351 7.7069L14.7519 7.70493C14.8011 7.35423 14.8541 7.02008 14.9091 6.69628ZM9.09884 7.11967C9.11598 7.24275 9.18486 7.35554 9.30545 7.45805C9.42605 7.56064 9.64974 7.61189 9.97666 7.61189H10.8593L10.8572 6.45531H9.83964C9.28388 6.45531 9.03694 6.67682 9.09884 7.11967Z" fill="#FEFEFE"/>
</svg>
