<svg width="10" height="15" viewBox="0 0 10 15" fill="none" xmlns="http://www.w3.org/2000/svg">
<path d="M8.78219 1.66098L8.78221 1.0594L8.26398 1.3649L8.43852 1.66096C8.26398 1.3649 8.26393 1.36493 8.26386 1.36498L8.26356 1.36515L8.26246 1.3658L8.25825 1.36829L8.24197 1.37793L8.17909 1.41531C8.12416 1.44806 8.04379 1.49616 7.94161 1.55783C7.73728 1.68117 7.44566 1.85885 7.09582 2.07661C6.3965 2.5119 5.46287 3.10839 4.52819 3.75175C3.59548 4.39376 2.65312 5.0883 1.9408 5.71938C1.58541 6.03423 1.27767 6.34166 1.05602 6.62564C0.846964 6.89349 0.663987 7.20249 0.664016 7.51004C0.664046 7.82028 0.849503 8.12421 1.06022 8.38368C1.28328 8.65836 1.59237 8.95164 1.94828 9.24926C2.66176 9.84589 3.60506 10.4942 4.53796 11.0899C5.47297 11.687 6.40685 12.2373 7.10628 12.6379C7.4562 12.8383 7.74788 13.0015 7.95227 13.1147C8.05447 13.1713 8.13487 13.2154 8.18983 13.2455L8.25275 13.2797L8.26906 13.2886L8.27328 13.2909L8.27438 13.2915L8.27468 13.2916C8.27476 13.2917 8.27481 13.2917 8.43807 12.9893L8.27481 13.2917L8.78172 13.5653L8.78174 12.9893L8.78219 1.66098Z" fill="white" stroke="white" stroke-width="0.68735"/>
</svg>
