<svg width="632" height="400" viewBox="0 0 632 400" fill="none" xmlns="http://www.w3.org/2000/svg">
<g clip-path="url(#clip0_2523_175979)">
<g filter="url(#filter0_bii_2523_175979)">
<rect width="257.864" height="409.095" rx="24" transform="matrix(0.285354 -0.958422 0.824126 0.566406 0 62.4452)" fill="white" fill-opacity="0.9"/>
<rect width="257.864" height="409.095" rx="24" transform="matrix(0.285354 -0.958422 0.824126 0.566406 0 62.4452)" fill="url(#paint0_radial_2523_175979)"/>
</g>
<path fill-rule="evenodd" clip-rule="evenodd" d="M165.046 -22.5055L153.417 16.5542C145.812 42.0971 124.472 39.0091 104.743 24.5786L116.832 -16.0247C125.305 -42.933 143.165 -37.0355 162.327 -24.3742C163.242 -23.7827 165.046 -22.5055 165.046 -22.5055Z" fill="#43BEB8"/>
<path fill-rule="evenodd" clip-rule="evenodd" d="M100.188 -44.0654L89.4808 -8.10358C85.8317 10.4287 93.0079 25.9657 107.073 36.8332C107.963 37.5303 109.879 38.7619 109.879 38.7619L120.447 3.26653C126 -16.5046 117.565 -31.1698 102.968 -42.1549C102.078 -42.8277 100.188 -44.0654 100.188 -44.0654Z" fill="#F4CC00"/>
<path fill-rule="evenodd" clip-rule="evenodd" d="M160.223 41.121L136.285 24.6686C126.92 19.4371 122.296 23.0026 118.86 30.7904L115.357 42.5567L117.956 44.4287L130.799 53.255C145.181 62.8464 154.717 54.8516 159.024 44.2687C159.454 43.2252 160.223 41.121 160.223 41.121Z" fill="#3795D2"/>
<path fill-rule="evenodd" clip-rule="evenodd" d="M120.45 3.26579C123.207 -6.5353 122.523 -15.0681 119.348 -22.5404C118.437 -20.6179 117.591 -18.4574 116.833 -16.0228L104.744 24.5806C104.744 24.5806 106.61 25.8017 107.525 26.4387C109.215 27.6372 110.904 28.7045 112.595 29.6465L120.45 3.26579Z" fill="#E3420E"/>
<path fill-rule="evenodd" clip-rule="evenodd" d="M136.283 24.6676C127.243 18.4545 121.37 22.3665 118.862 30.7917L118.355 32.4944C128.574 37.0516 137.948 37.5888 145.184 30.7848L136.283 24.6676Z" fill="white"/>
<path fill-rule="evenodd" clip-rule="evenodd" d="M259.944 115.81C259.811 114.657 258.447 112.828 256.588 111.551C253.974 109.754 252.312 109.901 251.829 111.525C251.348 113.14 252.471 115.135 254.962 116.847C256.783 118.098 258.628 118.309 259.435 117.52L259.944 115.81ZM251.672 95.6969C254.257 94.3627 257.555 94.9966 260.723 97.1741C266.069 100.848 268.675 106.814 266.87 112.878L262.42 127.824L257.666 124.557L258.493 121.779C256.977 122.852 254.197 122.951 251.659 121.207C247.381 118.267 245.234 113.171 246.667 108.358C248.169 103.313 252.793 103.148 256.951 106.006C259.563 107.802 261.043 109.872 261.361 111.05L261.555 110.399C262.368 107.669 261.334 104.724 258.329 102.658C255.754 100.889 253.555 100.641 251.465 101.345L251.672 95.6969Z" fill="#434343"/>
<path fill-rule="evenodd" clip-rule="evenodd" d="M187.074 64.5008L185.846 68.6252L191.04 72.1948C192.184 72.9813 193.198 72.621 193.558 71.4152C193.875 70.3483 193.412 68.8569 192.224 68.0404L187.074 64.5008ZM189.692 55.7076L188.494 59.7323L192.618 62.5665C193.804 63.3815 194.832 62.9849 195.152 61.9112C195.481 60.8052 195.04 59.3829 193.775 58.5138L189.692 55.7076ZM194.883 52.7024C199.002 55.5331 201.588 59.9754 200.222 64.5633C199.643 66.5079 198.782 67.3099 197.463 67.7471C198.661 69.9617 199.226 72.4029 198.425 75.0931C197.033 79.7679 192.778 79.9623 188.739 77.1862L179.393 70.7629L186.488 46.9327L194.883 52.7024Z" fill="#434343"/>
<path fill-rule="evenodd" clip-rule="evenodd" d="M212.712 64.9568L208.454 79.2566L221.935 71.2955L226.962 74.7503L219.867 98.5796L214.92 95.1799L219.176 80.8861L205.694 88.8392L200.668 85.3844L207.762 61.5551L212.712 64.9568Z" fill="#434343"/>
<path fill-rule="evenodd" clip-rule="evenodd" d="M246.914 95.9791L240.622 91.6552L235.385 109.244L230.362 105.791L235.598 88.2024L229.301 83.8744L231.159 77.6342L248.772 89.7389L246.914 95.9791Z" fill="#434343"/>
<path fill-rule="evenodd" clip-rule="evenodd" d="M202.741 37.6682C202.606 36.521 201.24 34.6883 199.384 33.4124C196.769 31.6151 195.106 31.7503 194.624 33.3711C194.14 34.9945 195.26 36.995 197.754 38.7092C199.577 39.9619 201.424 40.1668 202.231 39.3818L202.741 37.6682ZM194.472 17.5573C197.051 16.2191 200.354 16.8596 203.519 19.0346C208.865 22.7089 211.471 28.6755 209.665 34.7393L205.215 49.6885L200.458 46.4195L201.285 43.6415C199.772 44.7175 196.983 44.8062 194.45 43.0655C190.174 40.1266 188.026 35.0358 189.46 30.2203C190.962 25.1731 195.591 25.0044 199.749 27.8621C202.361 29.6575 203.839 31.7339 204.161 32.9005L204.353 32.2536C205.165 29.5276 204.13 26.5854 201.122 24.5181C198.548 22.7494 196.35 22.5056 194.261 23.2068L194.472 17.5573Z" fill="#434343"/>
<path fill-rule="evenodd" clip-rule="evenodd" d="M315.841 115.4C315.709 114.255 314.343 112.422 312.485 111.145C309.872 109.349 308.209 109.484 307.727 111.105C307.243 112.728 308.363 114.729 310.857 116.443C312.678 117.694 314.525 117.899 315.331 117.114L315.841 115.4ZM307.575 95.2912C310.157 93.955 313.455 94.5915 316.617 96.765C321.965 100.441 324.577 106.411 322.771 112.475L318.32 127.424L313.556 124.15L314.383 121.372C312.87 122.448 310.088 122.542 307.553 120.799C303.277 117.86 301.129 112.77 302.563 107.954C304.065 102.907 308.694 102.738 312.851 105.596C315.461 107.389 316.942 109.468 317.261 110.632L317.454 109.986C318.265 107.26 317.231 104.318 314.222 102.25C311.656 100.487 309.453 100.239 307.367 100.943L307.575 95.2912Z" fill="#434343"/>
<path fill-rule="evenodd" clip-rule="evenodd" d="M236.559 42.5216L229.464 66.3509L224.515 62.9491L229.75 45.3635L220.45 38.9717L215.215 56.5573L210.265 53.1556L217.36 29.3263L236.559 42.5216Z" fill="#434343"/>
<path fill-rule="evenodd" clip-rule="evenodd" d="M256.493 63.7428L250.203 59.4204L244.967 77.0068L239.938 73.5505L245.174 55.964L238.882 51.6396L240.741 45.3959L258.352 57.4992L256.493 63.7428Z" fill="#434343"/>
<path fill-rule="evenodd" clip-rule="evenodd" d="M273.545 79.0351C273.971 76.3177 272.37 73.5372 269.914 71.8496C267.42 70.1355 264.845 69.984 263.651 72.2351L273.545 79.0351ZM273.75 87.2329L273.969 93.0077C271.866 94.3185 268.443 93.9246 264.687 91.3429C258.472 87.0715 255.193 79.0171 257.494 71.2881C259.505 64.5332 265.273 61.4749 271.69 65.8855C277.709 70.0221 279.861 78.6393 277.878 85.2979C277.671 85.9924 277.385 86.7985 277.141 87.2969L262.02 76.9043C261.573 80.3306 263.518 83.3983 266.608 85.5222C269.437 87.4663 271.912 88.0596 273.75 87.2329Z" fill="#434343"/>
<path fill-rule="evenodd" clip-rule="evenodd" d="M293.636 95.4049L298.701 113.94L291.905 109.27L287.232 91.5725L298.279 84.9404L304.846 89.4537L293.636 95.4049ZM285.736 76.3201L290.945 79.9002L283.851 103.729L278.641 100.149L285.736 76.3201Z" fill="#434343"/>
</g>
<g filter="url(#filter1_f_2523_175979)">
<rect x="263.811" y="233.598" width="187.3" height="82.6514" transform="rotate(-40 263.811 233.598)" fill="black" fill-opacity="0.51"/>
</g>
<g clip-path="url(#clip1_2523_175979)">
<g filter="url(#filter2_bii_2523_175979)">
<rect width="257.864" height="409.095" rx="24" transform="matrix(-0.475931 -0.879483 0.760406 -0.649448 298.335 540.467)" fill="white" fill-opacity="0.9"/>
<rect width="257.864" height="409.095" rx="24" transform="matrix(-0.475931 -0.879483 0.760406 -0.649448 298.335 540.467)" fill="url(#paint1_radial_2523_175979)"/>
</g>
<path fill-rule="evenodd" clip-rule="evenodd" d="M323.6 297.922L342.996 333.765C355.68 357.204 343.404 380.585 324.643 395.639L304.48 358.38C291.341 333.144 303.736 315.454 321.091 300.065C321.912 299.324 323.6 297.922 323.6 297.922Z" fill="#43BEB8"/>
<path fill-rule="evenodd" clip-rule="evenodd" d="M278.493 362.084L296.351 395.083C306.456 409.889 319.867 410.246 333.613 399.843C334.489 399.19 336.203 397.632 336.203 397.632L318.577 365.06C308.597 347.311 295.136 348.93 281.058 359.893C280.198 360.56 278.493 362.084 278.493 362.084Z" fill="#F4CC00"/>
<path fill-rule="evenodd" clip-rule="evenodd" d="M362.011 339.678L339.923 358.543C332.054 366.605 332.105 374.073 335.433 382.535L341.276 393.333L343.729 391.332L355.579 381.212C368.661 369.712 368.145 353.948 363.448 342.875C362.987 341.777 362.011 339.678 362.011 339.678Z" fill="#3795D2"/>
<path fill-rule="evenodd" clip-rule="evenodd" d="M318.577 365.057C313.633 356.252 307.839 352.22 301.522 351.723C302.314 353.885 303.289 356.107 304.482 358.38L324.644 395.639C324.644 395.639 326.327 394.134 327.176 393.417C328.759 392.106 330.258 390.722 331.677 389.265L318.577 365.057Z" fill="#E3420E"/>
<path fill-rule="evenodd" clip-rule="evenodd" d="M339.922 358.544C331.581 365.668 331.251 374.803 335.435 382.534L336.28 384.096C344.131 374.644 348.999 363.909 348.134 351.53L339.922 358.544Z" fill="white"/>
<path fill-rule="evenodd" clip-rule="evenodd" d="M457.961 264.582C457.158 264.085 455.33 264.655 453.614 266.12C451.202 268.18 450.495 270.22 451.301 271.71C452.103 273.192 453.922 273.001 456.22 271.038C457.9 269.603 458.926 267.549 458.81 266.151L457.961 264.582ZM441.091 262.92C441.484 259.12 443.482 255.595 446.405 253.098C451.337 248.886 456.415 249.199 459.426 254.763L466.848 268.479L462.462 272.225L461.082 269.676C461.038 272.069 459.76 275.4 457.418 277.4C453.471 280.771 449.172 280.41 446.782 275.993C444.277 271.364 446.403 265.826 450.239 262.549C452.649 260.49 454.689 259.921 455.598 260.215L455.274 259.616C453.918 257.112 451.534 256.659 448.761 259.028C446.385 261.057 445.165 263.506 444.608 266.366L441.091 262.92Z" fill="#434343"/>
<path fill-rule="evenodd" clip-rule="evenodd" d="M389.94 321.311L391.988 325.096L396.78 321.003C397.836 320.101 398.094 318.702 397.496 317.596C396.966 316.617 395.788 316.316 394.691 317.253L389.94 321.311ZM385.573 313.242L387.572 316.935L391.377 313.686C392.471 312.751 392.713 311.315 392.18 310.33C391.631 309.315 390.507 309.028 389.34 310.025L385.573 313.242ZM386.154 305.425C389.954 302.179 394.047 301.652 396.325 305.862C397.291 307.647 397.389 309.116 397.032 310.917C399.028 310.761 400.864 311.48 402.2 313.949C404.521 318.239 402.592 323.36 398.865 326.543L390.242 333.908L378.408 312.04L386.154 305.425Z" fill="#434343"/>
<path fill-rule="evenodd" clip-rule="evenodd" d="M402.605 291.376L409.706 304.498L411.115 284.108L415.753 280.146L427.586 302.013L423.022 305.911L415.924 292.794L414.51 313.181L409.871 317.143L398.038 295.276L402.605 291.376Z" fill="#434343"/>
<path fill-rule="evenodd" clip-rule="evenodd" d="M438.975 268.684L433.17 273.642L441.904 289.783L437.269 293.742L428.534 277.601L422.724 282.564L419.625 276.838L435.876 262.958L438.975 268.684Z" fill="#434343"/>
<path fill-rule="evenodd" clip-rule="evenodd" d="M380.321 287.646C379.521 287.155 377.688 287.724 375.976 289.187C373.563 291.248 372.847 293.282 373.652 294.77C374.458 296.259 376.279 296.075 378.58 294.109C380.262 292.673 381.285 290.614 381.172 289.218L380.321 287.646ZM363.453 285.982C363.841 282.186 365.846 278.659 368.766 276.165C373.698 271.952 378.776 272.266 381.787 277.831L389.211 291.548L384.822 295.297L383.443 292.747C383.401 295.139 382.112 298.475 379.775 300.47C375.83 303.84 371.533 303.484 369.142 299.065C366.636 294.434 368.761 288.887 372.598 285.61C375.008 283.552 377.051 282.988 377.953 283.271L377.632 282.677C376.278 280.176 373.895 279.727 371.12 282.097C368.745 284.125 367.528 286.576 366.969 289.434L363.453 285.982Z" fill="#434343"/>
<path fill-rule="evenodd" clip-rule="evenodd" d="M484.676 198.518C483.879 198.025 482.047 198.594 480.332 200.058C477.921 202.118 477.205 204.152 478.01 205.64C478.816 207.129 480.637 206.945 482.939 204.979C484.619 203.544 485.641 201.485 485.527 200.091L484.676 198.518ZM467.812 196.852C468.202 193.054 470.201 189.531 473.119 187.039C478.054 182.824 483.137 183.134 486.148 188.698L493.572 202.416L489.176 206.171L487.796 203.622C487.755 206.013 486.472 209.343 484.133 211.34C480.188 214.71 475.892 214.354 473.5 209.935C470.994 205.304 473.12 199.757 476.956 196.481C479.364 194.424 481.409 193.858 482.309 194.143L481.988 193.549C480.634 191.048 478.251 190.599 475.475 192.97C473.108 194.991 471.886 197.446 471.33 200.302L467.812 196.852Z" fill="#434343"/>
<path fill-rule="evenodd" clip-rule="evenodd" d="M399.75 250.57L411.583 272.436L407.016 276.337L398.283 260.2L389.702 267.529L398.435 283.666L393.868 287.566L382.035 265.7L399.75 250.57Z" fill="#434343"/>
<path fill-rule="evenodd" clip-rule="evenodd" d="M422.958 239.126L417.155 244.082L425.888 260.22L421.248 264.183L412.515 248.045L406.709 253.003L403.609 247.274L419.858 233.396L422.958 239.126Z" fill="#434343"/>
<path fill-rule="evenodd" clip-rule="evenodd" d="M440.979 227.713C439.445 225.671 436.892 225.98 434.626 227.915C432.325 229.88 430.985 232.828 431.85 235.51L440.979 227.713ZM446.327 232.12L450.13 235.136C449.954 238.356 448.05 242.164 444.584 245.124C438.85 250.022 432.11 249.317 428.272 242.225C424.918 236.026 425.743 227.499 431.665 222.442C437.218 217.699 443.774 220.051 447.081 226.161C447.425 226.798 447.803 227.592 448.004 228.163L434.052 240.079C436.03 242.548 438.934 241.996 441.785 239.561C444.395 237.332 445.969 234.753 446.327 232.12Z" fill="#434343"/>
<path fill-rule="evenodd" clip-rule="evenodd" d="M461.157 213.333L475.469 217.877L469.199 223.232L455.612 218.702L456.698 201.932L462.757 196.757L461.157 213.333ZM445.125 211.816L449.931 207.711L461.764 229.578L456.958 233.683L445.125 211.816Z" fill="#434343"/>
</g>
<defs>
<filter id="filter0_bii_2523_175979" x="-244.309" y="-424.825" width="899.347" height="959.111" filterUnits="userSpaceOnUse" color-interpolation-filters="sRGB">
<feFlood flood-opacity="0" result="BackgroundImageFix"/>
<feGaussianBlur in="BackgroundImageFix" stdDeviation="125"/>
<feComposite in2="SourceAlpha" operator="in" result="effect1_backgroundBlur_2523_175979"/>
<feBlend mode="normal" in="SourceGraphic" in2="effect1_backgroundBlur_2523_175979" result="shape"/>
<feColorMatrix in="SourceAlpha" type="matrix" values="0 0 0 0 0 0 0 0 0 0 0 0 0 0 0 0 0 0 127 0" result="hardAlpha"/>
<feOffset dx="-2" dy="-2"/>
<feGaussianBlur stdDeviation="1.5"/>
<feComposite in2="hardAlpha" operator="arithmetic" k2="-1" k3="1"/>
<feColorMatrix type="matrix" values="0 0 0 0 0 0 0 0 0 0 0 0 0 0 0 0 0 0 0.36 0"/>
<feBlend mode="normal" in2="shape" result="effect2_innerShadow_2523_175979"/>
<feColorMatrix in="SourceAlpha" type="matrix" values="0 0 0 0 0 0 0 0 0 0 0 0 0 0 0 0 0 0 127 0" result="hardAlpha"/>
<feOffset dx="5" dy="4"/>
<feGaussianBlur stdDeviation="2"/>
<feComposite in2="hardAlpha" operator="arithmetic" k2="-1" k3="1"/>
<feColorMatrix type="matrix" values="0 0 0 0 1 0 0 0 0 1 0 0 0 0 1 0 0 0 0.25 0"/>
<feBlend mode="normal" in2="effect2_innerShadow_2523_175979" result="effect3_innerShadow_2523_175979"/>
</filter>
<filter id="filter1_f_2523_175979" x="13.8114" y="-136.796" width="696.607" height="683.708" filterUnits="userSpaceOnUse" color-interpolation-filters="sRGB">
<feFlood flood-opacity="0" result="BackgroundImageFix"/>
<feBlend mode="normal" in="SourceGraphic" in2="BackgroundImageFix" result="shape"/>
<feGaussianBlur stdDeviation="125" result="effect1_foregroundBlur_2523_175979"/>
</filter>
<filter id="filter2_bii_2523_175979" x="-66.251" y="-191.552" width="917.524" height="971.565" filterUnits="userSpaceOnUse" color-interpolation-filters="sRGB">
<feFlood flood-opacity="0" result="BackgroundImageFix"/>
<feGaussianBlur in="BackgroundImageFix" stdDeviation="125"/>
<feComposite in2="SourceAlpha" operator="in" result="effect1_backgroundBlur_2523_175979"/>
<feBlend mode="normal" in="SourceGraphic" in2="effect1_backgroundBlur_2523_175979" result="shape"/>
<feColorMatrix in="SourceAlpha" type="matrix" values="0 0 0 0 0 0 0 0 0 0 0 0 0 0 0 0 0 0 127 0" result="hardAlpha"/>
<feOffset dx="-2" dy="-2"/>
<feGaussianBlur stdDeviation="1.5"/>
<feComposite in2="hardAlpha" operator="arithmetic" k2="-1" k3="1"/>
<feColorMatrix type="matrix" values="0 0 0 0 0 0 0 0 0 0 0 0 0 0 0 0 0 0 0.36 0"/>
<feBlend mode="normal" in2="shape" result="effect2_innerShadow_2523_175979"/>
<feColorMatrix in="SourceAlpha" type="matrix" values="0 0 0 0 0 0 0 0 0 0 0 0 0 0 0 0 0 0 127 0" result="hardAlpha"/>
<feOffset dx="5" dy="4"/>
<feGaussianBlur stdDeviation="2"/>
<feComposite in2="hardAlpha" operator="arithmetic" k2="-1" k3="1"/>
<feColorMatrix type="matrix" values="0 0 0 0 1 0 0 0 0 1 0 0 0 0 1 0 0 0 0.25 0"/>
<feBlend mode="normal" in2="effect2_innerShadow_2523_175979" result="effect3_innerShadow_2523_175979"/>
</filter>
<radialGradient id="paint0_radial_2523_175979" cx="0" cy="0" r="1" gradientUnits="userSpaceOnUse" gradientTransform="translate(-8.02728 -5.74792) rotate(60.0023) scale(448.569 282.746)">
<stop stop-color="white" stop-opacity="0.3"/>
<stop offset="1" stop-color="white" stop-opacity="0"/>
</radialGradient>
<radialGradient id="paint1_radial_2523_175979" cx="0" cy="0" r="1" gradientUnits="userSpaceOnUse" gradientTransform="translate(-8.02728 -5.74792) rotate(60.0023) scale(448.569 282.746)">
<stop stop-color="white" stop-opacity="0.3"/>
<stop offset="1" stop-color="white" stop-opacity="0"/>
</radialGradient>
<clipPath id="clip0_2523_175979">
<rect width="409.095" height="257.864" fill="white" transform="matrix(0.824126 0.566406 -0.285354 0.958422 73.5826 -184.698)"/>
</clipPath>
<clipPath id="clip1_2523_175979">
<rect width="409.095" height="257.864" fill="white" transform="matrix(0.760406 -0.649448 0.475931 0.879483 175.609 313.68)"/>
</clipPath>
</defs>
</svg>
